<svg xmlns="http://www.w3.org/2000/svg" xmlns:xlink="http://www.w3.org/1999/xlink" width="531" zoomAndPan="magnify" viewBox="0 0 398.25 173.999997" height="232" preserveAspectRatio="xMidYMid meet" version="1.2"><defs><clipPath id="f4e4b15aa7"><path d="M 118.929688 36 L 199 36 L 199 107.210938 L 118.929688 107.210938 Z M 118.929688 36 "/></clipPath><clipPath id="d1fb22ac69"><path d="M 198 0.164062 L 278.378906 0.164062 L 278.378906 71 L 198 71 Z M 198 0.164062 "/></clipPath></defs><g id="6c61fb043d"><g clip-rule="nonzero" clip-path="url(#f4e4b15aa7)"><path style=" stroke:none;fill-rule:nonzero;fill:#0097b2;fill-opacity:1;" d="M 172.535156 86.707031 L 172.535156 96.394531 L 128.652344 76.007812 L 128.652344 68.148438 L 172.535156 47.757812 L 172.535156 57.453125 L 139.347656 71.988281 L 139.347656 72.167969 Z M 198.597656 36.992188 L 125.210938 36.992188 C 121.746094 36.992188 118.9375 39.800781 118.9375 43.265625 L 118.9375 100.890625 C 118.9375 104.355469 121.746094 107.164062 125.210938 107.164062 L 178.222656 107.164062 L 198.597656 36.992188 "/></g><g clip-rule="nonzero" clip-path="url(#d1fb22ac69)"><path style=" stroke:none;fill-rule:nonzero;fill:#62e1e9;fill-opacity:1;" d="M 268.421875 39.484375 L 224.539062 59.597656 L 224.539062 49.90625 L 258.457031 35.371094 L 258.457031 35.1875 L 224.539062 20.652344 L 224.539062 10.960938 L 268.421875 31.074219 Z M 218.96875 0.195312 L 198.597656 70.367188 L 271.863281 70.367188 C 275.328125 70.367188 278.136719 67.558594 278.136719 64.089844 L 278.136719 6.464844 C 278.136719 3.003906 275.328125 0.195312 271.863281 0.195312 L 218.96875 0.195312 "/></g><g style="fill:#62e1e9;fill-opacity:1;"><g transform="translate(30.488016, 150.01397)"><path style="stroke:none" d="M 17.4375 0 L 15.921875 -4.625 L 6.75 -4.625 L 5.234375 0 L -0.53125 0 L 8.3125 -24.546875 L 14.359375 -24.546875 L 23.203125 0 Z M 8.1875 -9.125 L 14.484375 -9.125 L 11.328125 -18.859375 Z M 8.1875 -9.125 "/></g></g><g style="fill:#62e1e9;fill-opacity:1;"><g transform="translate(54.592344, 150.01397)"><path style="stroke:none" d="M 7.8125 -4.78125 L 15.953125 -4.78125 L 15.953125 0 L 2.421875 0 L 2.421875 -24.546875 L 7.8125 -24.546875 Z M 7.8125 -4.78125 "/></g></g><g style="fill:#62e1e9;fill-opacity:1;"><g transform="translate(72.069382, 150.01397)"><path style="stroke:none" d="M 22.0625 -24.546875 L 13.5 -11.578125 L 13.5 0 L 8.109375 0 L 8.109375 -11.53125 L -0.53125 -24.546875 L 5.5625 -24.546875 L 10.796875 -16.25 L 16.046875 -24.546875 Z M 22.0625 -24.546875 "/></g></g><g style="fill:#62e1e9;fill-opacity:1;"><g transform="translate(95.069169, 150.01397)"><path style="stroke:none" d="M 9.984375 0.328125 C 7.828125 0.328125 5.929688 -0.203125 4.296875 -1.265625 C 2.660156 -2.328125 1.445312 -3.625 0.65625 -5.15625 L 5.109375 -7.9375 C 5.578125 -6.976562 6.234375 -6.207031 7.078125 -5.625 C 7.921875 -5.039062 8.90625 -4.75 10.03125 -4.75 C 10.976562 -4.75 11.71875 -4.953125 12.25 -5.359375 C 12.78125 -5.765625 13.046875 -6.3125 13.046875 -7 C 13.046875 -7.707031 12.773438 -8.28125 12.234375 -8.71875 C 11.691406 -9.15625 10.988281 -9.519531 10.125 -9.8125 C 9.269531 -10.113281 8.359375 -10.4375 7.390625 -10.78125 C 6.421875 -11.125 5.503906 -11.566406 4.640625 -12.109375 C 3.785156 -12.660156 3.082031 -13.367188 2.53125 -14.234375 C 1.988281 -15.109375 1.71875 -16.242188 1.71875 -17.640625 C 1.71875 -19.273438 2.097656 -20.625 2.859375 -21.6875 C 3.628906 -22.75 4.617188 -23.546875 5.828125 -24.078125 C 7.046875 -24.609375 8.296875 -24.875 9.578125 -24.875 C 11.097656 -24.875 12.515625 -24.550781 13.828125 -23.90625 C 15.140625 -23.269531 16.242188 -22.4375 17.140625 -21.40625 L 13.546875 -17.96875 C 12.941406 -18.644531 12.296875 -19.164062 11.609375 -19.53125 C 10.929688 -19.90625 10.238281 -20.09375 9.53125 -20.09375 C 8.875 -20.09375 8.3125 -19.925781 7.84375 -19.59375 C 7.382812 -19.269531 7.15625 -18.753906 7.15625 -18.046875 C 7.15625 -17.335938 7.425781 -16.773438 7.96875 -16.359375 C 8.519531 -15.953125 9.222656 -15.597656 10.078125 -15.296875 C 10.941406 -15.003906 11.847656 -14.679688 12.796875 -14.328125 C 13.753906 -13.972656 14.660156 -13.507812 15.515625 -12.9375 C 16.378906 -12.363281 17.082031 -11.601562 17.625 -10.65625 C 18.175781 -9.71875 18.453125 -8.484375 18.453125 -6.953125 C 18.453125 -5.429688 18.0625 -4.125 17.28125 -3.03125 C 16.507812 -1.9375 15.484375 -1.101562 14.203125 -0.53125 C 12.921875 0.0390625 11.515625 0.328125 9.984375 0.328125 Z M 9.984375 0.328125 "/></g></g><g style="fill:#62e1e9;fill-opacity:1;"><g transform="translate(115.900757, 150.01397)"><path style="stroke:none" d="M 9.984375 0.328125 C 7.828125 0.328125 5.929688 -0.203125 4.296875 -1.265625 C 2.660156 -2.328125 1.445312 -3.625 0.65625 -5.15625 L 5.109375 -7.9375 C 5.578125 -6.976562 6.234375 -6.207031 7.078125 -5.625 C 7.921875 -5.039062 8.90625 -4.75 10.03125 -4.75 C 10.976562 -4.75 11.71875 -4.953125 12.25 -5.359375 C 12.78125 -5.765625 13.046875 -6.3125 13.046875 -7 C 13.046875 -7.707031 12.773438 -8.28125 12.234375 -8.71875 C 11.691406 -9.15625 10.988281 -9.519531 10.125 -9.8125 C 9.269531 -10.113281 8.359375 -10.4375 7.390625 -10.78125 C 6.421875 -11.125 5.503906 -11.566406 4.640625 -12.109375 C 3.785156 -12.660156 3.082031 -13.367188 2.53125 -14.234375 C 1.988281 -15.109375 1.71875 -16.242188 1.71875 -17.640625 C 1.71875 -19.273438 2.097656 -20.625 2.859375 -21.6875 C 3.628906 -22.75 4.617188 -23.546875 5.828125 -24.078125 C 7.046875 -24.609375 8.296875 -24.875 9.578125 -24.875 C 11.097656 -24.875 12.515625 -24.550781 13.828125 -23.90625 C 15.140625 -23.269531 16.242188 -22.4375 17.140625 -21.40625 L 13.546875 -17.96875 C 12.941406 -18.644531 12.296875 -19.164062 11.609375 -19.53125 C 10.929688 -19.90625 10.238281 -20.09375 9.53125 -20.09375 C 8.875 -20.09375 8.3125 -19.925781 7.84375 -19.59375 C 7.382812 -19.269531 7.15625 -18.753906 7.15625 -18.046875 C 7.15625 -17.335938 7.425781 -16.773438 7.96875 -16.359375 C 8.519531 -15.953125 9.222656 -15.597656 10.078125 -15.296875 C 10.941406 -15.003906 11.847656 -14.679688 12.796875 -14.328125 C 13.753906 -13.972656 14.660156 -13.507812 15.515625 -12.9375 C 16.378906 -12.363281 17.082031 -11.601562 17.625 -10.65625 C 18.175781 -9.71875 18.453125 -8.484375 18.453125 -6.953125 C 18.453125 -5.429688 18.0625 -4.125 17.28125 -3.03125 C 16.507812 -1.9375 15.484375 -1.101562 14.203125 -0.53125 C 12.921875 0.0390625 11.515625 0.328125 9.984375 0.328125 Z M 9.984375 0.328125 "/></g></g><g style="fill:#62e1e9;fill-opacity:1;"><g transform="translate(136.732344, 150.01397)"><path style="stroke:none" d="M 17.4375 0 L 15.921875 -4.625 L 6.75 -4.625 L 5.234375 0 L -0.53125 0 L 8.3125 -24.546875 L 14.359375 -24.546875 L 23.203125 0 Z M 8.1875 -9.125 L 14.484375 -9.125 L 11.328125 -18.859375 Z M 8.1875 -9.125 "/></g></g><g style="fill:#62e1e9;fill-opacity:1;"><g transform="translate(160.836672, 150.01397)"><path style="stroke:none" d="M 14.109375 0.328125 C 12.367188 0.328125 10.738281 0 9.21875 -0.65625 C 7.707031 -1.3125 6.375 -2.21875 5.21875 -3.375 C 4.0625 -4.53125 3.15625 -5.863281 2.5 -7.375 C 1.84375 -8.894531 1.515625 -10.53125 1.515625 -12.28125 C 1.515625 -14.019531 1.84375 -15.644531 2.5 -17.15625 C 3.15625 -18.675781 4.0625 -20.015625 5.21875 -21.171875 C 6.375 -22.328125 7.707031 -23.234375 9.21875 -23.890625 C 10.738281 -24.546875 12.367188 -24.875 14.109375 -24.875 C 16.546875 -24.875 18.757812 -24.253906 20.75 -23.015625 C 22.738281 -21.773438 24.25 -20.144531 25.28125 -18.125 L 20.625 -15.71875 C 20.019531 -16.882812 19.144531 -17.820312 18 -18.53125 C 16.851562 -19.238281 15.554688 -19.59375 14.109375 -19.59375 C 12.753906 -19.59375 11.519531 -19.269531 10.40625 -18.625 C 9.300781 -17.988281 8.425781 -17.117188 7.78125 -16.015625 C 7.144531 -14.910156 6.828125 -13.664062 6.828125 -12.28125 C 6.828125 -10.882812 7.144531 -9.632812 7.78125 -8.53125 C 8.425781 -7.425781 9.300781 -6.550781 10.40625 -5.90625 C 11.519531 -5.269531 12.753906 -4.953125 14.109375 -4.953125 C 15.554688 -4.953125 16.851562 -5.304688 18 -6.015625 C 19.144531 -6.722656 20.019531 -7.664062 20.625 -8.84375 L 25.28125 -6.421875 C 24.25 -4.429688 22.738281 -2.804688 20.75 -1.546875 C 18.757812 -0.296875 16.546875 0.328125 14.109375 0.328125 Z M 14.109375 0.328125 "/></g></g><g style="fill:#62e1e9;fill-opacity:1;"><g transform="translate(188.62284, 150.01397)"><path style="stroke:none" d="M 14.109375 0.328125 C 12.367188 0.328125 10.738281 0 9.21875 -0.65625 C 7.707031 -1.3125 6.375 -2.21875 5.21875 -3.375 C 4.0625 -4.53125 3.15625 -5.863281 2.5 -7.375 C 1.84375 -8.894531 1.515625 -10.53125 1.515625 -12.28125 C 1.515625 -14.019531 1.84375 -15.644531 2.5 -17.15625 C 3.15625 -18.675781 4.0625 -20.015625 5.21875 -21.171875 C 6.375 -22.328125 7.707031 -23.234375 9.21875 -23.890625 C 10.738281 -24.546875 12.367188 -24.875 14.109375 -24.875 C 15.859375 -24.875 17.492188 -24.546875 19.015625 -23.890625 C 20.546875 -23.234375 21.882812 -22.328125 23.03125 -21.171875 C 24.175781 -20.015625 25.078125 -18.675781 25.734375 -17.15625 C 26.390625 -15.644531 26.71875 -14.019531 26.71875 -12.28125 C 26.71875 -10.53125 26.390625 -8.894531 25.734375 -7.375 C 25.078125 -5.863281 24.175781 -4.53125 23.03125 -3.375 C 21.882812 -2.21875 20.546875 -1.3125 19.015625 -0.65625 C 17.492188 0 15.859375 0.328125 14.109375 0.328125 Z M 14.109375 -4.953125 C 15.503906 -4.953125 16.753906 -5.269531 17.859375 -5.90625 C 18.960938 -6.550781 19.832031 -7.425781 20.46875 -8.53125 C 21.113281 -9.632812 21.4375 -10.882812 21.4375 -12.28125 C 21.4375 -13.664062 21.113281 -14.910156 20.46875 -16.015625 C 19.832031 -17.117188 18.960938 -17.988281 17.859375 -18.625 C 16.753906 -19.269531 15.503906 -19.59375 14.109375 -19.59375 C 12.753906 -19.59375 11.519531 -19.269531 10.40625 -18.625 C 9.300781 -17.988281 8.425781 -17.117188 7.78125 -16.015625 C 7.144531 -14.910156 6.828125 -13.664062 6.828125 -12.28125 C 6.828125 -10.882812 7.144531 -9.632812 7.78125 -8.53125 C 8.425781 -7.425781 9.300781 -6.550781 10.40625 -5.90625 C 11.519531 -5.269531 12.753906 -4.953125 14.109375 -4.953125 Z M 14.109375 -4.953125 "/></g></g><g style="fill:#62e1e9;fill-opacity:1;"><g transform="translate(218.331736, 150.01397)"><path style="stroke:none" d="M 2.421875 0 L 2.421875 -24.546875 L 10.515625 -24.546875 C 12.203125 -24.546875 13.789062 -24.222656 15.28125 -23.578125 C 16.769531 -22.941406 18.070312 -22.0625 19.1875 -20.9375 C 20.3125 -19.820312 21.191406 -18.519531 21.828125 -17.03125 C 22.472656 -15.550781 22.796875 -13.96875 22.796875 -12.28125 C 22.796875 -10.582031 22.472656 -8.988281 21.828125 -7.5 C 21.191406 -6.019531 20.3125 -4.71875 19.1875 -3.59375 C 18.070312 -2.476562 16.769531 -1.597656 15.28125 -0.953125 C 13.789062 -0.316406 12.203125 0 10.515625 0 Z M 7.8125 -4.78125 L 10.46875 -4.78125 C 11.78125 -4.78125 12.953125 -5.109375 13.984375 -5.765625 C 15.023438 -6.421875 15.851562 -7.3125 16.46875 -8.4375 C 17.082031 -9.570312 17.390625 -10.851562 17.390625 -12.28125 C 17.390625 -13.695312 17.082031 -14.96875 16.46875 -16.09375 C 15.851562 -17.226562 15.023438 -18.125 13.984375 -18.78125 C 12.953125 -19.4375 11.78125 -19.765625 10.46875 -19.765625 L 7.8125 -19.765625 Z M 7.8125 -4.78125 "/></g></g><g style="fill:#62e1e9;fill-opacity:1;"><g transform="translate(244.07244, 150.01397)"><path style="stroke:none" d="M 17.390625 -19.796875 L 8.015625 -19.796875 L 8.015625 -14.65625 L 16.046875 -14.65625 L 16.046875 -9.90625 L 8.015625 -9.90625 L 8.015625 -4.75 L 17.390625 -4.75 L 17.390625 0 L 2.625 0 L 2.625 -24.546875 L 17.390625 -24.546875 Z M 17.390625 -19.796875 "/></g></g><g style="fill:#62e1e9;fill-opacity:1;"><g transform="translate(264.576748, 150.01397)"><path style="stroke:none" d="M 9.984375 0.328125 C 7.828125 0.328125 5.929688 -0.203125 4.296875 -1.265625 C 2.660156 -2.328125 1.445312 -3.625 0.65625 -5.15625 L 5.109375 -7.9375 C 5.578125 -6.976562 6.234375 -6.207031 7.078125 -5.625 C 7.921875 -5.039062 8.90625 -4.75 10.03125 -4.75 C 10.976562 -4.75 11.71875 -4.953125 12.25 -5.359375 C 12.78125 -5.765625 13.046875 -6.3125 13.046875 -7 C 13.046875 -7.707031 12.773438 -8.28125 12.234375 -8.71875 C 11.691406 -9.15625 10.988281 -9.519531 10.125 -9.8125 C 9.269531 -10.113281 8.359375 -10.4375 7.390625 -10.78125 C 6.421875 -11.125 5.503906 -11.566406 4.640625 -12.109375 C 3.785156 -12.660156 3.082031 -13.367188 2.53125 -14.234375 C 1.988281 -15.109375 1.71875 -16.242188 1.71875 -17.640625 C 1.71875 -19.273438 2.097656 -20.625 2.859375 -21.6875 C 3.628906 -22.75 4.617188 -23.546875 5.828125 -24.078125 C 7.046875 -24.609375 8.296875 -24.875 9.578125 -24.875 C 11.097656 -24.875 12.515625 -24.550781 13.828125 -23.90625 C 15.140625 -23.269531 16.242188 -22.4375 17.140625 -21.40625 L 13.546875 -17.96875 C 12.941406 -18.644531 12.296875 -19.164062 11.609375 -19.53125 C 10.929688 -19.90625 10.238281 -20.09375 9.53125 -20.09375 C 8.875 -20.09375 8.3125 -19.925781 7.84375 -19.59375 C 7.382812 -19.269531 7.15625 -18.753906 7.15625 -18.046875 C 7.15625 -17.335938 7.425781 -16.773438 7.96875 -16.359375 C 8.519531 -15.953125 9.222656 -15.597656 10.078125 -15.296875 C 10.941406 -15.003906 11.847656 -14.679688 12.796875 -14.328125 C 13.753906 -13.972656 14.660156 -13.507812 15.515625 -12.9375 C 16.378906 -12.363281 17.082031 -11.601562 17.625 -10.65625 C 18.175781 -9.71875 18.453125 -8.484375 18.453125 -6.953125 C 18.453125 -5.429688 18.0625 -4.125 17.28125 -3.03125 C 16.507812 -1.9375 15.484375 -1.101562 14.203125 -0.53125 C 12.921875 0.0390625 11.515625 0.328125 9.984375 0.328125 Z M 9.984375 0.328125 "/></g></g><g style="fill:#62e1e9;fill-opacity:1;"><g transform="translate(285.408335, 150.01397)"><path style="stroke:none" d="M 5.53125 0.328125 C 4.738281 0.328125 4.046875 0.0351562 3.453125 -0.546875 C 2.867188 -1.140625 2.578125 -1.84375 2.578125 -2.65625 C 2.578125 -3.476562 2.867188 -4.179688 3.453125 -4.765625 C 4.046875 -5.347656 4.738281 -5.640625 5.53125 -5.640625 C 6.34375 -5.640625 7.046875 -5.347656 7.640625 -4.765625 C 8.242188 -4.179688 8.546875 -3.476562 8.546875 -2.65625 C 8.546875 -1.84375 8.242188 -1.140625 7.640625 -0.546875 C 7.046875 0.0351562 6.34375 0.328125 5.53125 0.328125 Z M 5.53125 0.328125 "/></g></g><g style="fill:#62e1e9;fill-opacity:1;"><g transform="translate(297.935364, 150.01397)"><path style="stroke:none" d="M 2.421875 0 L 2.421875 -24.546875 L 10.515625 -24.546875 C 12.203125 -24.546875 13.789062 -24.222656 15.28125 -23.578125 C 16.769531 -22.941406 18.070312 -22.0625 19.1875 -20.9375 C 20.3125 -19.820312 21.191406 -18.519531 21.828125 -17.03125 C 22.472656 -15.550781 22.796875 -13.96875 22.796875 -12.28125 C 22.796875 -10.582031 22.472656 -8.988281 21.828125 -7.5 C 21.191406 -6.019531 20.3125 -4.71875 19.1875 -3.59375 C 18.070312 -2.476562 16.769531 -1.597656 15.28125 -0.953125 C 13.789062 -0.316406 12.203125 0 10.515625 0 Z M 7.8125 -4.78125 L 10.46875 -4.78125 C 11.78125 -4.78125 12.953125 -5.109375 13.984375 -5.765625 C 15.023438 -6.421875 15.851562 -7.3125 16.46875 -8.4375 C 17.082031 -9.570312 17.390625 -10.851562 17.390625 -12.28125 C 17.390625 -13.695312 17.082031 -14.96875 16.46875 -16.09375 C 15.851562 -17.226562 15.023438 -18.125 13.984375 -18.78125 C 12.953125 -19.4375 11.78125 -19.765625 10.46875 -19.765625 L 7.8125 -19.765625 Z M 7.8125 -4.78125 "/></g></g><g style="fill:#62e1e9;fill-opacity:1;"><g transform="translate(323.67608, 150.01397)"><path style="stroke:none" d="M 17.390625 -19.796875 L 8.015625 -19.796875 L 8.015625 -14.65625 L 16.046875 -14.65625 L 16.046875 -9.90625 L 8.015625 -9.90625 L 8.015625 -4.75 L 17.390625 -4.75 L 17.390625 0 L 2.625 0 L 2.625 -24.546875 L 17.390625 -24.546875 Z M 17.390625 -19.796875 "/></g></g><g style="fill:#62e1e9;fill-opacity:1;"><g transform="translate(344.180387, 150.01397)"><path style="stroke:none" d="M 17.1875 -24.546875 L 23.203125 -24.546875 L 14.359375 0 L 8.3125 0 L -0.53125 -24.546875 L 5.484375 -24.546875 L 11.328125 -7 Z M 17.1875 -24.546875 "/></g></g></g></svg>