<svg xmlns="http://www.w3.org/2000/svg" xmlns:xlink="http://www.w3.org/1999/xlink" width="500" zoomAndPan="magnify" viewBox="0 0 375 374.999991" height="500" preserveAspectRatio="xMidYMid meet" version="1.2"><defs><clipPath id="df996d4d4a"><path d="M 107.613281 133 L 188 133 L 188 203.980469 L 107.613281 203.980469 Z M 107.613281 133 "/></clipPath><clipPath id="f1ca29a88e"><path d="M 187 96.730469 L 267.363281 96.730469 L 267.363281 168 L 187 168 Z M 187 96.730469 "/></clipPath></defs><g id="84bfb79ef2"><g clip-rule="nonzero" clip-path="url(#df996d4d4a)"><path style=" stroke:none;fill-rule:nonzero;fill:#0097b2;fill-opacity:1;" d="M 161.316406 183.4375 L 161.316406 193.144531 L 117.351562 172.722656 L 117.351562 164.84375 L 161.316406 144.417969 L 161.316406 154.128906 L 128.066406 168.691406 L 128.066406 168.875 Z M 187.425781 133.628906 L 113.902344 133.628906 C 110.433594 133.628906 107.617188 136.445312 107.617188 139.917969 L 107.617188 197.648438 C 107.617188 201.121094 110.433594 203.933594 113.902344 203.933594 L 167.019531 203.933594 L 187.425781 133.628906 "/></g><g clip-rule="nonzero" clip-path="url(#f1ca29a88e)"><path style=" stroke:none;fill-rule:nonzero;fill:#62e1e9;fill-opacity:1;" d="M 257.382812 136.128906 L 213.421875 156.277344 L 213.421875 146.566406 L 247.402344 132.007812 L 247.402344 131.824219 L 213.421875 117.257812 L 213.421875 107.550781 L 257.382812 127.699219 Z M 207.839844 96.761719 L 187.425781 167.066406 L 260.832031 167.066406 C 264.304688 167.066406 267.117188 164.253906 267.117188 160.78125 L 267.117188 103.046875 C 267.117188 99.578125 264.304688 96.761719 260.832031 96.761719 L 207.839844 96.761719 "/></g><g style="fill:#62e1e9;fill-opacity:1;"><g transform="translate(34.588854, 241.798167)"><path style="stroke:none" d="M 11.375 -24.140625 L 22.984375 0 L 18.765625 0 L 16.6875 -4.71875 L 5.640625 -4.71875 L 3.578125 0 L -0.53125 0 L 11.015625 -24.140625 Z M 9.734375 -13.875 L 7.109375 -8.03125 L 15.25 -8.03125 L 12.65625 -13.84375 L 11.25 -17.15625 L 11.1875 -17.15625 Z M 9.734375 -13.875 "/></g></g><g style="fill:#62e1e9;fill-opacity:1;"><g transform="translate(58.49271, 241.798167)"><path style="stroke:none" d="M 2.5625 -24.109375 L 6.265625 -24.109375 L 6.265625 -3.28125 L 13.1875 -3.28125 L 13.1875 0 L 2.5625 0 Z M 2.5625 -24.109375 "/></g></g><g style="fill:#62e1e9;fill-opacity:1;"><g transform="translate(74.100928, 241.798167)"><path style="stroke:none" d="M 7.84375 -11.25 L -0.53125 -24.109375 L 3.875 -24.109375 L 9.671875 -14.59375 L 15.484375 -24.109375 L 19.84375 -24.109375 L 11.515625 -11.1875 L 11.515625 0 L 7.84375 0 Z M 7.84375 -11.25 "/></g></g><g style="fill:#62e1e9;fill-opacity:1;"><g transform="translate(94.857031, 241.798167)"><path style="stroke:none" d="M 8.09375 0.328125 C 6.789062 0.328125 5.492188 0.0976562 4.203125 -0.359375 C 2.910156 -0.816406 1.976562 -1.332031 1.40625 -1.90625 L 3.15625 -5.015625 C 3.613281 -4.597656 4.328125 -4.164062 5.296875 -3.71875 C 6.265625 -3.269531 7.195312 -3.046875 8.09375 -3.046875 C 9.257812 -3.046875 10.207031 -3.316406 10.9375 -3.859375 C 11.664062 -4.410156 12.03125 -5.171875 12.03125 -6.140625 C 12.03125 -6.878906 11.832031 -7.519531 11.4375 -8.0625 C 11.050781 -8.613281 10.570312 -9.066406 10 -9.421875 C 9.4375 -9.785156 8.628906 -10.226562 7.578125 -10.75 C 6.328125 -11.363281 5.472656 -11.828125 5.015625 -12.140625 C 2.898438 -13.554688 1.84375 -15.519531 1.84375 -18.03125 C 1.84375 -20.113281 2.53125 -21.707031 3.90625 -22.8125 C 5.28125 -23.914062 7.019531 -24.46875 9.125 -24.46875 C 11.375 -24.46875 13.285156 -23.820312 14.859375 -22.53125 L 13.125 -19.546875 C 12.707031 -19.984375 12.117188 -20.359375 11.359375 -20.671875 C 10.609375 -20.992188 9.804688 -21.15625 8.953125 -21.15625 C 7.859375 -21.15625 7 -20.90625 6.375 -20.40625 C 5.75 -19.914062 5.4375 -19.191406 5.4375 -18.234375 C 5.4375 -17.554688 5.632812 -16.945312 6.03125 -16.40625 C 6.425781 -15.875 6.921875 -15.410156 7.515625 -15.015625 C 8.117188 -14.628906 8.9375 -14.148438 9.96875 -13.578125 C 10.957031 -13.035156 11.710938 -12.601562 12.234375 -12.28125 C 12.753906 -11.96875 13.242188 -11.59375 13.703125 -11.15625 C 14.335938 -10.582031 14.851562 -9.898438 15.25 -9.109375 C 15.644531 -8.328125 15.84375 -7.46875 15.84375 -6.53125 C 15.84375 -5.0625 15.507812 -3.8125 14.84375 -2.78125 C 14.175781 -1.757812 13.253906 -0.984375 12.078125 -0.453125 C 10.910156 0.0664062 9.582031 0.328125 8.09375 0.328125 Z M 8.09375 0.328125 "/></g></g><g style="fill:#62e1e9;fill-opacity:1;"><g transform="translate(113.51463, 241.798167)"><path style="stroke:none" d="M 8.09375 0.328125 C 6.789062 0.328125 5.492188 0.0976562 4.203125 -0.359375 C 2.910156 -0.816406 1.976562 -1.332031 1.40625 -1.90625 L 3.15625 -5.015625 C 3.613281 -4.597656 4.328125 -4.164062 5.296875 -3.71875 C 6.265625 -3.269531 7.195312 -3.046875 8.09375 -3.046875 C 9.257812 -3.046875 10.207031 -3.316406 10.9375 -3.859375 C 11.664062 -4.410156 12.03125 -5.171875 12.03125 -6.140625 C 12.03125 -6.878906 11.832031 -7.519531 11.4375 -8.0625 C 11.050781 -8.613281 10.570312 -9.066406 10 -9.421875 C 9.4375 -9.785156 8.628906 -10.226562 7.578125 -10.75 C 6.328125 -11.363281 5.472656 -11.828125 5.015625 -12.140625 C 2.898438 -13.554688 1.84375 -15.519531 1.84375 -18.03125 C 1.84375 -20.113281 2.53125 -21.707031 3.90625 -22.8125 C 5.28125 -23.914062 7.019531 -24.46875 9.125 -24.46875 C 11.375 -24.46875 13.285156 -23.820312 14.859375 -22.53125 L 13.125 -19.546875 C 12.707031 -19.984375 12.117188 -20.359375 11.359375 -20.671875 C 10.609375 -20.992188 9.804688 -21.15625 8.953125 -21.15625 C 7.859375 -21.15625 7 -20.90625 6.375 -20.40625 C 5.75 -19.914062 5.4375 -19.191406 5.4375 -18.234375 C 5.4375 -17.554688 5.632812 -16.945312 6.03125 -16.40625 C 6.425781 -15.875 6.921875 -15.410156 7.515625 -15.015625 C 8.117188 -14.628906 8.9375 -14.148438 9.96875 -13.578125 C 10.957031 -13.035156 11.710938 -12.601562 12.234375 -12.28125 C 12.753906 -11.96875 13.242188 -11.59375 13.703125 -11.15625 C 14.335938 -10.582031 14.851562 -9.898438 15.25 -9.109375 C 15.644531 -8.328125 15.84375 -7.46875 15.84375 -6.53125 C 15.84375 -5.0625 15.507812 -3.8125 14.84375 -2.78125 C 14.175781 -1.757812 13.253906 -0.984375 12.078125 -0.453125 C 10.910156 0.0664062 9.582031 0.328125 8.09375 0.328125 Z M 8.09375 0.328125 "/></g></g><g style="fill:#62e1e9;fill-opacity:1;"><g transform="translate(132.17223, 241.798167)"><path style="stroke:none" d="M 11.375 -24.140625 L 22.984375 0 L 18.765625 0 L 16.6875 -4.71875 L 5.640625 -4.71875 L 3.578125 0 L -0.53125 0 L 11.015625 -24.140625 Z M 9.734375 -13.875 L 7.109375 -8.03125 L 15.25 -8.03125 L 12.65625 -13.84375 L 11.25 -17.15625 L 11.1875 -17.15625 Z M 9.734375 -13.875 "/></g></g><g style="fill:#62e1e9;fill-opacity:1;"><g transform="translate(156.076087, 241.798167)"><path style="stroke:none" d="M 13.515625 0.234375 C 11.023438 0.234375 8.863281 -0.320312 7.03125 -1.4375 C 5.207031 -2.550781 3.8125 -4.039062 2.84375 -5.90625 C 1.882812 -7.78125 1.40625 -9.847656 1.40625 -12.109375 C 1.40625 -14.484375 1.925781 -16.609375 2.96875 -18.484375 C 4.007812 -20.367188 5.46875 -21.84375 7.34375 -22.90625 C 9.226562 -23.96875 11.359375 -24.5 13.734375 -24.5 C 14.804688 -24.5 15.804688 -24.382812 16.734375 -24.15625 C 17.671875 -23.925781 18.441406 -23.660156 19.046875 -23.359375 C 19.660156 -23.066406 20.066406 -22.820312 20.265625 -22.625 L 18.65625 -19.34375 C 17.320312 -20.53125 15.585938 -21.125 13.453125 -21.125 C 11.941406 -21.125 10.570312 -20.75 9.34375 -20 C 8.125 -19.257812 7.160156 -18.203125 6.453125 -16.828125 C 5.753906 -15.453125 5.40625 -13.851562 5.40625 -12.03125 C 5.40625 -10.375 5.71875 -8.867188 6.34375 -7.515625 C 6.96875 -6.160156 7.878906 -5.085938 9.078125 -4.296875 C 10.285156 -3.503906 11.71875 -3.109375 13.375 -3.109375 C 15.300781 -3.109375 17.160156 -3.65625 18.953125 -4.75 L 20.03125 -1.640625 C 19.550781 -1.203125 18.671875 -0.78125 17.390625 -0.375 C 16.117188 0.03125 14.828125 0.234375 13.515625 0.234375 Z M 13.515625 0.234375 "/></g></g><g style="fill:#62e1e9;fill-opacity:1;"><g transform="translate(178.799531, 241.798167)"><path style="stroke:none" d="M 13.640625 0.328125 C 11.453125 0.328125 9.4375 -0.175781 7.59375 -1.1875 C 5.75 -2.207031 4.28125 -3.65625 3.1875 -5.53125 C 2.09375 -7.414062 1.546875 -9.609375 1.546875 -12.109375 C 1.546875 -14.617188 2.09375 -16.804688 3.1875 -18.671875 C 4.28125 -20.546875 5.75 -21.984375 7.59375 -22.984375 C 9.4375 -23.992188 11.453125 -24.5 13.640625 -24.5 C 15.828125 -24.5 17.84375 -23.992188 19.6875 -22.984375 C 21.539062 -21.984375 23.015625 -20.546875 24.109375 -18.671875 C 25.203125 -16.804688 25.75 -14.617188 25.75 -12.109375 C 25.75 -9.609375 25.203125 -7.414062 24.109375 -5.53125 C 23.015625 -3.65625 21.539062 -2.207031 19.6875 -1.1875 C 17.84375 -0.175781 15.828125 0.328125 13.640625 0.328125 Z M 13.640625 -2.984375 C 15.148438 -2.984375 16.523438 -3.335938 17.765625 -4.046875 C 19.015625 -4.753906 20.003906 -5.789062 20.734375 -7.15625 C 21.472656 -8.53125 21.84375 -10.164062 21.84375 -12.0625 C 21.84375 -13.988281 21.472656 -15.632812 20.734375 -17 C 20.003906 -18.375 19.019531 -19.410156 17.78125 -20.109375 C 16.550781 -20.804688 15.171875 -21.15625 13.640625 -21.15625 C 12.109375 -21.15625 10.71875 -20.804688 9.46875 -20.109375 C 8.226562 -19.410156 7.242188 -18.375 6.515625 -17 C 5.796875 -15.632812 5.4375 -13.988281 5.4375 -12.0625 C 5.4375 -10.164062 5.804688 -8.53125 6.546875 -7.15625 C 7.296875 -5.789062 8.300781 -4.753906 9.5625 -4.046875 C 10.820312 -3.335938 12.179688 -2.984375 13.640625 -2.984375 Z M 13.640625 -2.984375 "/></g></g><g style="fill:#62e1e9;fill-opacity:1;"><g transform="translate(207.523387, 241.798167)"><path style="stroke:none" d="M 2.5625 -24.109375 L 8.359375 -24.109375 C 13.210938 -24.109375 16.609375 -22.957031 18.546875 -20.65625 C 20.484375 -18.363281 21.453125 -15.632812 21.453125 -12.46875 C 21.453125 -10.257812 21.035156 -8.21875 20.203125 -6.34375 C 19.367188 -4.476562 17.992188 -2.953125 16.078125 -1.765625 C 14.171875 -0.585938 11.664062 0 8.5625 0 L 2.5625 0 Z M 8.953125 -3.25 C 11.972656 -3.25 14.164062 -4.101562 15.53125 -5.8125 C 16.894531 -7.53125 17.578125 -9.691406 17.578125 -12.296875 C 17.578125 -14.835938 16.890625 -16.90625 15.515625 -18.5 C 14.140625 -20.09375 11.953125 -20.890625 8.953125 -20.890625 L 6.234375 -20.890625 L 6.234375 -3.25 Z M 8.953125 -3.25 "/></g></g><g style="fill:#62e1e9;fill-opacity:1;"><g transform="translate(231.525617, 241.798167)"><path style="stroke:none" d="M 2.53125 -24.109375 L 13.09375 -24.109375 L 13.09375 -20.890625 L 6.171875 -20.890625 L 6.171875 -14.234375 L 11.734375 -14.234375 L 11.734375 -10.953125 L 6.171875 -10.953125 L 6.171875 -3.25 L 14.171875 -3.25 L 14.171875 0 L 2.53125 0 Z M 2.53125 -24.109375 "/></g></g><g style="fill:#62e1e9;fill-opacity:1;"><g transform="translate(248.281437, 241.798167)"><path style="stroke:none" d="M 8.09375 0.328125 C 6.789062 0.328125 5.492188 0.0976562 4.203125 -0.359375 C 2.910156 -0.816406 1.976562 -1.332031 1.40625 -1.90625 L 3.15625 -5.015625 C 3.613281 -4.597656 4.328125 -4.164062 5.296875 -3.71875 C 6.265625 -3.269531 7.195312 -3.046875 8.09375 -3.046875 C 9.257812 -3.046875 10.207031 -3.316406 10.9375 -3.859375 C 11.664062 -4.410156 12.03125 -5.171875 12.03125 -6.140625 C 12.03125 -6.878906 11.832031 -7.519531 11.4375 -8.0625 C 11.050781 -8.613281 10.570312 -9.066406 10 -9.421875 C 9.4375 -9.785156 8.628906 -10.226562 7.578125 -10.75 C 6.328125 -11.363281 5.472656 -11.828125 5.015625 -12.140625 C 2.898438 -13.554688 1.84375 -15.519531 1.84375 -18.03125 C 1.84375 -20.113281 2.53125 -21.707031 3.90625 -22.8125 C 5.28125 -23.914062 7.019531 -24.46875 9.125 -24.46875 C 11.375 -24.46875 13.285156 -23.820312 14.859375 -22.53125 L 13.125 -19.546875 C 12.707031 -19.984375 12.117188 -20.359375 11.359375 -20.671875 C 10.609375 -20.992188 9.804688 -21.15625 8.953125 -21.15625 C 7.859375 -21.15625 7 -20.90625 6.375 -20.40625 C 5.75 -19.914062 5.4375 -19.191406 5.4375 -18.234375 C 5.4375 -17.554688 5.632812 -16.945312 6.03125 -16.40625 C 6.425781 -15.875 6.921875 -15.410156 7.515625 -15.015625 C 8.117188 -14.628906 8.9375 -14.148438 9.96875 -13.578125 C 10.957031 -13.035156 11.710938 -12.601562 12.234375 -12.28125 C 12.753906 -11.96875 13.242188 -11.59375 13.703125 -11.15625 C 14.335938 -10.582031 14.851562 -9.898438 15.25 -9.109375 C 15.644531 -8.328125 15.84375 -7.46875 15.84375 -6.53125 C 15.84375 -5.0625 15.507812 -3.8125 14.84375 -2.78125 C 14.175781 -1.757812 13.253906 -0.984375 12.078125 -0.453125 C 10.910156 0.0664062 9.582031 0.328125 8.09375 0.328125 Z M 8.09375 0.328125 "/></g></g><g style="fill:#62e1e9;fill-opacity:1;"><g transform="translate(266.939059, 241.798167)"><path style="stroke:none" d="M 4.75 0.328125 C 4.09375 0.328125 3.535156 0.101562 3.078125 -0.34375 C 2.617188 -0.789062 2.390625 -1.34375 2.390625 -2 C 2.390625 -2.675781 2.613281 -3.238281 3.0625 -3.6875 C 3.507812 -4.132812 4.070312 -4.359375 4.75 -4.359375 C 5.425781 -4.359375 5.988281 -4.132812 6.4375 -3.6875 C 6.882812 -3.238281 7.109375 -2.675781 7.109375 -2 C 7.109375 -1.34375 6.882812 -0.789062 6.4375 -0.34375 C 5.988281 0.101562 5.425781 0.328125 4.75 0.328125 Z M 4.75 0.328125 "/></g></g><g style="fill:#62e1e9;fill-opacity:1;"><g transform="translate(277.92399, 241.798167)"><path style="stroke:none" d="M 2.5625 -24.109375 L 8.359375 -24.109375 C 13.210938 -24.109375 16.609375 -22.957031 18.546875 -20.65625 C 20.484375 -18.363281 21.453125 -15.632812 21.453125 -12.46875 C 21.453125 -10.257812 21.035156 -8.21875 20.203125 -6.34375 C 19.367188 -4.476562 17.992188 -2.953125 16.078125 -1.765625 C 14.171875 -0.585938 11.664062 0 8.5625 0 L 2.5625 0 Z M 8.953125 -3.25 C 11.972656 -3.25 14.164062 -4.101562 15.53125 -5.8125 C 16.894531 -7.53125 17.578125 -9.691406 17.578125 -12.296875 C 17.578125 -14.835938 16.890625 -16.90625 15.515625 -18.5 C 14.140625 -20.09375 11.953125 -20.890625 8.953125 -20.890625 L 6.234375 -20.890625 L 6.234375 -3.25 Z M 8.953125 -3.25 "/></g></g><g style="fill:#62e1e9;fill-opacity:1;"><g transform="translate(301.926208, 241.798167)"><path style="stroke:none" d="M 2.53125 -24.109375 L 13.09375 -24.109375 L 13.09375 -20.890625 L 6.171875 -20.890625 L 6.171875 -14.234375 L 11.734375 -14.234375 L 11.734375 -10.953125 L 6.171875 -10.953125 L 6.171875 -3.25 L 14.171875 -3.25 L 14.171875 0 L 2.53125 0 Z M 2.53125 -24.109375 "/></g></g><g style="fill:#62e1e9;fill-opacity:1;"><g transform="translate(318.682051, 241.798167)"><path style="stroke:none" d="M -0.53125 -24.109375 L 3.640625 -24.109375 L 10.859375 -7.546875 L 18.109375 -24.109375 L 22.234375 -24.109375 L 11.125 0 L 10.625 0 Z M -0.53125 -24.109375 "/></g></g></g></svg>