<svg xmlns="http://www.w3.org/2000/svg" xmlns:xlink="http://www.w3.org/1999/xlink" width="500" zoomAndPan="magnify" viewBox="0 0 375 374.999991" height="500" preserveAspectRatio="xMidYMid meet" version="1.2"><defs><clipPath id="40fc700869"><path d="M 107.613281 133 L 188 133 L 188 203.980469 L 107.613281 203.980469 Z M 107.613281 133 "/></clipPath><clipPath id="e8652bbe0c"><path d="M 187 96.730469 L 267.363281 96.730469 L 267.363281 168 L 187 168 Z M 187 96.730469 "/></clipPath></defs><g id="c7ed73dc88"><g clip-rule="nonzero" clip-path="url(#40fc700869)"><path style=" stroke:none;fill-rule:nonzero;fill:#0097b2;fill-opacity:1;" d="M 161.316406 183.4375 L 161.316406 193.144531 L 117.351562 172.722656 L 117.351562 164.84375 L 161.316406 144.417969 L 161.316406 154.128906 L 128.066406 168.691406 L 128.066406 168.875 Z M 187.425781 133.628906 L 113.902344 133.628906 C 110.433594 133.628906 107.617188 136.445312 107.617188 139.917969 L 107.617188 197.648438 C 107.617188 201.121094 110.433594 203.933594 113.902344 203.933594 L 167.019531 203.933594 L 187.425781 133.628906 "/></g><g clip-rule="nonzero" clip-path="url(#e8652bbe0c)"><path style=" stroke:none;fill-rule:nonzero;fill:#62e1e9;fill-opacity:1;" d="M 257.382812 136.128906 L 213.421875 156.277344 L 213.421875 146.566406 L 247.402344 132.007812 L 247.402344 131.824219 L 213.421875 117.257812 L 213.421875 107.550781 L 257.382812 127.699219 Z M 207.839844 96.761719 L 187.425781 167.066406 L 260.832031 167.066406 C 264.304688 167.066406 267.117188 164.253906 267.117188 160.78125 L 267.117188 103.046875 C 267.117188 99.578125 264.304688 96.761719 260.832031 96.761719 L 207.839844 96.761719 "/></g><g style="fill:#62e1e9;fill-opacity:1;"><g transform="translate(36.006822, 239.548167)"><path style="stroke:none" d="M 10.796875 0.09375 L 10.921875 -1.1875 C 12.035156 -1.269531 12.800781 -1.398438 13.21875 -1.578125 C 13.632812 -1.753906 13.84375 -2.035156 13.84375 -2.421875 C 13.84375 -2.859375 13.742188 -3.382812 13.546875 -4 L 12.46875 -7.578125 C 11.9375 -7.597656 10.796875 -7.609375 9.046875 -7.609375 C 8.003906 -7.609375 6.816406 -7.519531 5.484375 -7.34375 L 4.265625 -3.9375 C 4.066406 -3.34375 3.96875 -2.914062 3.96875 -2.65625 C 3.96875 -2.175781 4.117188 -1.832031 4.421875 -1.625 C 4.734375 -1.414062 5.238281 -1.3125 5.9375 -1.3125 L 7.8125 -1.3125 L 7.875 -1.1875 L 7.671875 0.234375 C 7.410156 0.210938 6.804688 0.164062 5.859375 0.09375 C 4.921875 0.03125 4.003906 0 3.109375 0 C 2.304688 0 1.5625 0.0078125 0.875 0.03125 C 0.1875 0.0507812 -0.265625 0.0703125 -0.484375 0.09375 L -0.234375 -1.4375 C 0.378906 -1.507812 0.867188 -1.722656 1.234375 -2.078125 C 1.609375 -2.441406 1.972656 -3.070312 2.328125 -3.96875 L 8.71875 -20.734375 L 10.796875 -21.28125 L 11.046875 -21.28125 C 11.179688 -20.757812 11.515625 -19.546875 12.046875 -17.640625 C 12.585938 -15.742188 13.242188 -13.492188 14.015625 -10.890625 C 14.796875 -8.285156 15.546875 -5.890625 16.265625 -3.703125 C 16.523438 -2.898438 16.875 -2.332031 17.3125 -2 C 17.75 -1.675781 18.453125 -1.46875 19.421875 -1.375 L 19.484375 -1.25 L 19.25 0.09375 C 18.988281 0.09375 18.515625 0.078125 17.828125 0.046875 C 17.140625 0.015625 16.457031 0 15.78125 0 C 14.726562 0 13.710938 0.0390625 12.734375 0.125 C 11.765625 0.21875 11.148438 0.285156 10.890625 0.328125 Z M 8.953125 -8.953125 C 9.742188 -8.953125 10.757812 -9.007812 12 -9.125 L 9.40625 -17.703125 L 9.1875 -17.703125 L 6.0625 -8.953125 Z M 8.953125 -8.953125 "/></g></g><g style="fill:#62e1e9;fill-opacity:1;"><g transform="translate(56.598976, 239.548167)"><path style="stroke:none" d="M 2.421875 -1.1875 C 3.273438 -1.3125 3.859375 -1.566406 4.171875 -1.953125 C 4.492188 -2.335938 4.65625 -3 4.65625 -3.9375 L 4.6875 -17.703125 C 4.6875 -18.410156 4.601562 -18.882812 4.4375 -19.125 C 4.28125 -19.363281 3.957031 -19.484375 3.46875 -19.484375 C 3.257812 -19.484375 3.046875 -19.472656 2.828125 -19.453125 C 2.609375 -19.429688 2.453125 -19.421875 2.359375 -19.421875 L 2.296875 -19.546875 L 2.53125 -20.984375 C 2.789062 -20.960938 3.28125 -20.941406 4 -20.921875 C 4.71875 -20.898438 5.453125 -20.890625 6.203125 -20.890625 C 6.785156 -20.890625 7.453125 -20.925781 8.203125 -21 C 8.960938 -21.082031 9.460938 -21.144531 9.703125 -21.1875 L 9.578125 -19.703125 C 8.859375 -19.617188 8.359375 -19.476562 8.078125 -19.28125 C 7.804688 -19.082031 7.644531 -18.851562 7.59375 -18.59375 C 7.539062 -18.332031 7.476562 -17.6875 7.40625 -16.65625 C 7.28125 -14.800781 7.179688 -12.679688 7.109375 -10.296875 C 7.046875 -7.910156 7.015625 -5.8125 7.015625 -4 C 7.015625 -3.21875 7.078125 -2.65625 7.203125 -2.3125 C 7.335938 -1.96875 7.585938 -1.738281 7.953125 -1.625 C 8.316406 -1.519531 8.9375 -1.46875 9.8125 -1.46875 C 11.144531 -1.46875 12.117188 -1.578125 12.734375 -1.796875 C 13.359375 -2.015625 13.828125 -2.441406 14.140625 -3.078125 C 14.460938 -3.710938 14.753906 -4.734375 15.015625 -6.140625 L 16.46875 -6.296875 L 16.5625 -6.140625 C 16.5 -5.785156 16.363281 -4.992188 16.15625 -3.765625 C 15.945312 -2.546875 15.765625 -1.257812 15.609375 0.09375 L 15.453125 0.296875 C 14.816406 0.253906 13.507812 0.191406 11.53125 0.109375 C 9.550781 0.0351562 7.914062 0 6.625 0 C 5.59375 0 4.65625 0.0390625 3.8125 0.125 C 2.976562 0.21875 2.453125 0.285156 2.234375 0.328125 Z M 2.421875 -1.1875 "/></g></g><g style="fill:#62e1e9;fill-opacity:1;"><g transform="translate(74.666369, 239.548167)"><path style="stroke:none" d="M 4.921875 -1.109375 C 5.703125 -1.265625 6.269531 -1.460938 6.625 -1.703125 C 6.976562 -1.941406 7.207031 -2.269531 7.3125 -2.6875 C 7.425781 -3.101562 7.484375 -3.757812 7.484375 -4.65625 L 7.484375 -6.09375 C 7.484375 -6.769531 7.414062 -7.363281 7.28125 -7.875 C 7.144531 -8.394531 6.894531 -9.039062 6.53125 -9.8125 L 3.578125 -15.8125 C 3.003906 -16.96875 2.597656 -17.75 2.359375 -18.15625 C 2.117188 -18.5625 1.78125 -18.882812 1.34375 -19.125 C 0.90625 -19.363281 0.269531 -19.515625 -0.5625 -19.578125 L -0.625 -19.703125 L -0.421875 -20.984375 C -0.179688 -20.960938 0.273438 -20.941406 0.953125 -20.921875 C 1.628906 -20.898438 2.375 -20.890625 3.1875 -20.890625 C 3.945312 -20.890625 4.832031 -20.925781 5.84375 -21 C 6.863281 -21.082031 7.53125 -21.132812 7.84375 -21.15625 L 7.9375 -20.921875 L 7.84375 -19.78125 C 6.851562 -19.6875 6.1875 -19.554688 5.84375 -19.390625 C 5.507812 -19.234375 5.34375 -18.96875 5.34375 -18.59375 C 5.34375 -18.3125 5.613281 -17.535156 6.15625 -16.265625 C 6.707031 -14.992188 7.269531 -13.742188 7.84375 -12.515625 C 8.425781 -11.296875 8.816406 -10.503906 9.015625 -10.140625 L 9.1875 -10.140625 L 12.921875 -17.09375 C 13.273438 -17.71875 13.453125 -18.265625 13.453125 -18.734375 C 13.453125 -19.296875 12.757812 -19.617188 11.375 -19.703125 L 11.3125 -19.84375 L 11.515625 -21.125 C 11.773438 -21.101562 12.316406 -21.054688 13.140625 -20.984375 C 13.972656 -20.921875 14.644531 -20.890625 15.15625 -20.890625 C 15.675781 -20.890625 16.257812 -20.90625 16.90625 -20.9375 C 17.550781 -20.96875 17.972656 -20.992188 18.171875 -21.015625 L 18.296875 -20.796875 L 18.109375 -19.578125 C 17.398438 -19.453125 16.847656 -19.269531 16.453125 -19.03125 C 16.066406 -18.800781 15.722656 -18.472656 15.421875 -18.046875 C 15.128906 -17.628906 14.703125 -16.914062 14.140625 -15.90625 C 14.003906 -15.644531 13.894531 -15.445312 13.8125 -15.3125 L 10.53125 -9.546875 C 10.238281 -9.046875 10.054688 -8.476562 9.984375 -7.84375 C 9.910156 -7.207031 9.851562 -6.054688 9.8125 -4.390625 L 9.8125 -3.671875 C 9.789062 -2.816406 9.878906 -2.226562 10.078125 -1.90625 C 10.285156 -1.59375 10.675781 -1.4375 11.25 -1.4375 C 11.601562 -1.4375 11.929688 -1.445312 12.234375 -1.46875 C 12.535156 -1.5 12.742188 -1.523438 12.859375 -1.546875 L 12.921875 -1.40625 L 12.625 0.09375 C 12.320312 0.0703125 11.757812 0.0507812 10.9375 0.03125 C 10.113281 0.0078125 9.289062 0 8.46875 0 C 7.78125 0 7.039062 0.0507812 6.25 0.15625 C 5.46875 0.269531 4.957031 0.347656 4.71875 0.390625 Z M 4.921875 -1.109375 "/></g></g><g style="fill:#62e1e9;fill-opacity:1;"><g transform="translate(93.750227, 239.548167)"><path style="stroke:none" d="M 7.1875 0.390625 C 6.269531 0.390625 5.425781 0.304688 4.65625 0.140625 C 3.894531 -0.015625 3.265625 -0.191406 2.765625 -0.390625 C 2.273438 -0.585938 2.03125 -0.695312 2.03125 -0.71875 L 1.875 -1.046875 C 1.894531 -1.179688 1.9375 -1.507812 2 -2.03125 C 2.0625 -2.5625 2.117188 -3.242188 2.171875 -4.078125 C 2.234375 -4.921875 2.265625 -5.8125 2.265625 -6.75 L 3.734375 -6.921875 C 3.734375 -5.273438 3.84375 -4.054688 4.0625 -3.265625 C 4.28125 -2.484375 4.6875 -1.945312 5.28125 -1.65625 C 5.875 -1.363281 6.78125 -1.21875 8 -1.21875 C 9.375 -1.21875 10.476562 -1.539062 11.3125 -2.1875 C 12.144531 -2.832031 12.5625 -3.710938 12.5625 -4.828125 C 12.5625 -5.484375 12.335938 -6.070312 11.890625 -6.59375 C 11.441406 -7.113281 10.910156 -7.5625 10.296875 -7.9375 C 9.679688 -8.3125 8.773438 -8.816406 7.578125 -9.453125 C 6.441406 -10.035156 5.507812 -10.570312 4.78125 -11.0625 C 4.0625 -11.5625 3.457031 -12.148438 2.96875 -12.828125 C 2.476562 -13.503906 2.234375 -14.289062 2.234375 -15.1875 C 2.234375 -16.320312 2.566406 -17.351562 3.234375 -18.28125 C 3.898438 -19.207031 4.804688 -19.9375 5.953125 -20.46875 C 7.097656 -21.007812 8.375 -21.28125 9.78125 -21.28125 C 10.644531 -21.28125 11.445312 -21.21875 12.1875 -21.09375 C 12.9375 -20.976562 13.53125 -20.851562 13.96875 -20.71875 C 14.40625 -20.59375 14.679688 -20.507812 14.796875 -20.46875 L 14.890625 -20.265625 C 14.867188 -20.140625 14.8125 -19.832031 14.71875 -19.34375 C 14.632812 -18.863281 14.535156 -18.195312 14.421875 -17.34375 C 14.316406 -16.5 14.234375 -15.625 14.171875 -14.71875 L 12.890625 -14.59375 L 12.6875 -14.765625 C 12.707031 -14.847656 12.726562 -15.046875 12.75 -15.359375 C 12.78125 -15.679688 12.796875 -16.050781 12.796875 -16.46875 C 12.796875 -17.625 12.507812 -18.421875 11.9375 -18.859375 C 11.363281 -19.296875 10.347656 -19.515625 8.890625 -19.515625 C 7.679688 -19.515625 6.6875 -19.210938 5.90625 -18.609375 C 5.132812 -18.003906 4.75 -17.253906 4.75 -16.359375 C 4.75 -15.484375 5.125 -14.722656 5.875 -14.078125 C 6.632812 -13.441406 7.75 -12.738281 9.21875 -11.96875 C 10.632812 -11.25 11.710938 -10.65625 12.453125 -10.1875 C 13.203125 -9.71875 13.859375 -9.128906 14.421875 -8.421875 C 14.992188 -7.722656 15.28125 -6.914062 15.28125 -6 C 15.28125 -4.78125 14.9375 -3.679688 14.25 -2.703125 C 13.5625 -1.734375 12.601562 -0.972656 11.375 -0.421875 C 10.15625 0.117188 8.757812 0.390625 7.1875 0.390625 Z M 7.1875 0.390625 "/></g></g><g style="fill:#62e1e9;fill-opacity:1;"><g transform="translate(112.571774, 239.548167)"><path style="stroke:none" d="M 7.1875 0.390625 C 6.269531 0.390625 5.425781 0.304688 4.65625 0.140625 C 3.894531 -0.015625 3.265625 -0.191406 2.765625 -0.390625 C 2.273438 -0.585938 2.03125 -0.695312 2.03125 -0.71875 L 1.875 -1.046875 C 1.894531 -1.179688 1.9375 -1.507812 2 -2.03125 C 2.0625 -2.5625 2.117188 -3.242188 2.171875 -4.078125 C 2.234375 -4.921875 2.265625 -5.8125 2.265625 -6.75 L 3.734375 -6.921875 C 3.734375 -5.273438 3.84375 -4.054688 4.0625 -3.265625 C 4.28125 -2.484375 4.6875 -1.945312 5.28125 -1.65625 C 5.875 -1.363281 6.78125 -1.21875 8 -1.21875 C 9.375 -1.21875 10.476562 -1.539062 11.3125 -2.1875 C 12.144531 -2.832031 12.5625 -3.710938 12.5625 -4.828125 C 12.5625 -5.484375 12.335938 -6.070312 11.890625 -6.59375 C 11.441406 -7.113281 10.910156 -7.5625 10.296875 -7.9375 C 9.679688 -8.3125 8.773438 -8.816406 7.578125 -9.453125 C 6.441406 -10.035156 5.507812 -10.570312 4.78125 -11.0625 C 4.0625 -11.5625 3.457031 -12.148438 2.96875 -12.828125 C 2.476562 -13.503906 2.234375 -14.289062 2.234375 -15.1875 C 2.234375 -16.320312 2.566406 -17.351562 3.234375 -18.28125 C 3.898438 -19.207031 4.804688 -19.9375 5.953125 -20.46875 C 7.097656 -21.007812 8.375 -21.28125 9.78125 -21.28125 C 10.644531 -21.28125 11.445312 -21.21875 12.1875 -21.09375 C 12.9375 -20.976562 13.53125 -20.851562 13.96875 -20.71875 C 14.40625 -20.59375 14.679688 -20.507812 14.796875 -20.46875 L 14.890625 -20.265625 C 14.867188 -20.140625 14.8125 -19.832031 14.71875 -19.34375 C 14.632812 -18.863281 14.535156 -18.195312 14.421875 -17.34375 C 14.316406 -16.5 14.234375 -15.625 14.171875 -14.71875 L 12.890625 -14.59375 L 12.6875 -14.765625 C 12.707031 -14.847656 12.726562 -15.046875 12.75 -15.359375 C 12.78125 -15.679688 12.796875 -16.050781 12.796875 -16.46875 C 12.796875 -17.625 12.507812 -18.421875 11.9375 -18.859375 C 11.363281 -19.296875 10.347656 -19.515625 8.890625 -19.515625 C 7.679688 -19.515625 6.6875 -19.210938 5.90625 -18.609375 C 5.132812 -18.003906 4.75 -17.253906 4.75 -16.359375 C 4.75 -15.484375 5.125 -14.722656 5.875 -14.078125 C 6.632812 -13.441406 7.75 -12.738281 9.21875 -11.96875 C 10.632812 -11.25 11.710938 -10.65625 12.453125 -10.1875 C 13.203125 -9.71875 13.859375 -9.128906 14.421875 -8.421875 C 14.992188 -7.722656 15.28125 -6.914062 15.28125 -6 C 15.28125 -4.78125 14.9375 -3.679688 14.25 -2.703125 C 13.5625 -1.734375 12.601562 -0.972656 11.375 -0.421875 C 10.15625 0.117188 8.757812 0.390625 7.1875 0.390625 Z M 7.1875 0.390625 "/></g></g><g style="fill:#62e1e9;fill-opacity:1;"><g transform="translate(131.393321, 239.548167)"><path style="stroke:none" d="M 10.796875 0.09375 L 10.921875 -1.1875 C 12.035156 -1.269531 12.800781 -1.398438 13.21875 -1.578125 C 13.632812 -1.753906 13.84375 -2.035156 13.84375 -2.421875 C 13.84375 -2.859375 13.742188 -3.382812 13.546875 -4 L 12.46875 -7.578125 C 11.9375 -7.597656 10.796875 -7.609375 9.046875 -7.609375 C 8.003906 -7.609375 6.816406 -7.519531 5.484375 -7.34375 L 4.265625 -3.9375 C 4.066406 -3.34375 3.96875 -2.914062 3.96875 -2.65625 C 3.96875 -2.175781 4.117188 -1.832031 4.421875 -1.625 C 4.734375 -1.414062 5.238281 -1.3125 5.9375 -1.3125 L 7.8125 -1.3125 L 7.875 -1.1875 L 7.671875 0.234375 C 7.410156 0.210938 6.804688 0.164062 5.859375 0.09375 C 4.921875 0.03125 4.003906 0 3.109375 0 C 2.304688 0 1.5625 0.0078125 0.875 0.03125 C 0.1875 0.0507812 -0.265625 0.0703125 -0.484375 0.09375 L -0.234375 -1.4375 C 0.378906 -1.507812 0.867188 -1.722656 1.234375 -2.078125 C 1.609375 -2.441406 1.972656 -3.070312 2.328125 -3.96875 L 8.71875 -20.734375 L 10.796875 -21.28125 L 11.046875 -21.28125 C 11.179688 -20.757812 11.515625 -19.546875 12.046875 -17.640625 C 12.585938 -15.742188 13.242188 -13.492188 14.015625 -10.890625 C 14.796875 -8.285156 15.546875 -5.890625 16.265625 -3.703125 C 16.523438 -2.898438 16.875 -2.332031 17.3125 -2 C 17.75 -1.675781 18.453125 -1.46875 19.421875 -1.375 L 19.484375 -1.25 L 19.25 0.09375 C 18.988281 0.09375 18.515625 0.078125 17.828125 0.046875 C 17.140625 0.015625 16.457031 0 15.78125 0 C 14.726562 0 13.710938 0.0390625 12.734375 0.125 C 11.765625 0.21875 11.148438 0.285156 10.890625 0.328125 Z M 8.953125 -8.953125 C 9.742188 -8.953125 10.757812 -9.007812 12 -9.125 L 9.40625 -17.703125 L 9.1875 -17.703125 L 6.0625 -8.953125 Z M 8.953125 -8.953125 "/></g></g><g style="fill:#62e1e9;fill-opacity:1;"><g transform="translate(151.985475, 239.548167)"><path style="stroke:none" d="M 11.125 0.390625 C 9.15625 0.390625 7.425781 -0.0195312 5.9375 -0.84375 C 4.445312 -1.675781 3.300781 -2.851562 2.5 -4.375 C 1.707031 -5.894531 1.3125 -7.679688 1.3125 -9.734375 C 1.3125 -11.921875 1.800781 -13.894531 2.78125 -15.65625 C 3.769531 -17.414062 5.132812 -18.789062 6.875 -19.78125 C 8.613281 -20.78125 10.578125 -21.28125 12.765625 -21.28125 C 13.566406 -21.28125 14.390625 -21.21875 15.234375 -21.09375 C 16.078125 -20.976562 16.785156 -20.859375 17.359375 -20.734375 C 17.941406 -20.617188 18.3125 -20.539062 18.46875 -20.5 L 18.59375 -20.296875 C 18.550781 -20.171875 18.476562 -19.851562 18.375 -19.34375 C 18.28125 -18.84375 18.171875 -18.1875 18.046875 -17.375 C 17.929688 -16.570312 17.84375 -15.722656 17.78125 -14.828125 L 16.203125 -14.6875 C 16.222656 -14.800781 16.242188 -15.003906 16.265625 -15.296875 C 16.285156 -15.597656 16.296875 -15.929688 16.296875 -16.296875 C 16.296875 -18.328125 14.691406 -19.34375 11.484375 -19.34375 C 10.035156 -19.34375 8.765625 -18.992188 7.671875 -18.296875 C 6.578125 -17.597656 5.734375 -16.609375 5.140625 -15.328125 C 4.554688 -14.046875 4.265625 -12.546875 4.265625 -10.828125 C 4.265625 -8.921875 4.578125 -7.242188 5.203125 -5.796875 C 5.828125 -4.359375 6.707031 -3.238281 7.84375 -2.4375 C 8.976562 -1.644531 10.289062 -1.25 11.78125 -1.25 C 13.257812 -1.25 14.453125 -1.664062 15.359375 -2.5 C 16.265625 -3.34375 16.925781 -4.648438 17.34375 -6.421875 L 18.921875 -6.5625 C 18.859375 -6.226562 18.71875 -5.5 18.5 -4.375 C 18.28125 -3.25 18.125 -2.195312 18.03125 -1.21875 L 17.84375 -0.921875 C 17.84375 -0.898438 17.507812 -0.773438 16.84375 -0.546875 C 16.175781 -0.316406 15.34375 -0.101562 14.34375 0.09375 C 13.351562 0.289062 12.28125 0.390625 11.125 0.390625 Z M 11.125 0.390625 "/></g></g><g style="fill:#62e1e9;fill-opacity:1;"><g transform="translate(173.954777, 239.548167)"><path style="stroke:none" d="M 10.390625 0.390625 C 8.617188 0.390625 7.046875 -0.0351562 5.671875 -0.890625 C 4.296875 -1.742188 3.222656 -2.9375 2.453125 -4.46875 C 1.691406 -6.007812 1.3125 -7.765625 1.3125 -9.734375 C 1.3125 -11.878906 1.785156 -13.832031 2.734375 -15.59375 C 3.691406 -17.351562 4.992188 -18.738281 6.640625 -19.75 C 8.296875 -20.769531 10.117188 -21.28125 12.109375 -21.28125 C 13.921875 -21.28125 15.523438 -20.851562 16.921875 -20 C 18.316406 -19.15625 19.410156 -17.96875 20.203125 -16.4375 C 20.992188 -14.90625 21.390625 -13.15625 21.390625 -11.1875 C 21.390625 -9.039062 20.898438 -7.082031 19.921875 -5.3125 C 18.953125 -3.539062 17.628906 -2.144531 15.953125 -1.125 C 14.285156 -0.113281 12.429688 0.390625 10.390625 0.390625 Z M 11.40625 -1.28125 C 12.789062 -1.28125 14.015625 -1.640625 15.078125 -2.359375 C 16.148438 -3.078125 16.984375 -4.082031 17.578125 -5.375 C 18.171875 -6.664062 18.46875 -8.144531 18.46875 -9.8125 C 18.46875 -11.664062 18.148438 -13.304688 17.515625 -14.734375 C 16.878906 -16.171875 16 -17.289062 14.875 -18.09375 C 13.75 -18.90625 12.453125 -19.3125 10.984375 -19.3125 C 9.648438 -19.3125 8.460938 -18.953125 7.421875 -18.234375 C 6.390625 -17.515625 5.582031 -16.507812 5 -15.21875 C 4.414062 -13.925781 4.125 -12.453125 4.125 -10.796875 C 4.125 -8.929688 4.429688 -7.28125 5.046875 -5.84375 C 5.660156 -4.414062 6.519531 -3.296875 7.625 -2.484375 C 8.726562 -1.679688 9.988281 -1.28125 11.40625 -1.28125 Z M 11.40625 -1.28125 "/></g></g><g style="fill:#62e1e9;fill-opacity:1;"><g transform="translate(198.088156, 239.548167)"><path style="stroke:none" d="M 10.390625 0.390625 C 10.066406 0.347656 9.375 0.269531 8.3125 0.15625 C 7.25 0.0507812 6.367188 0 5.671875 0 C 4.992188 0 4.253906 0.0507812 3.453125 0.15625 C 2.660156 0.269531 2.144531 0.347656 1.90625 0.390625 L 2.09375 -1.109375 C 3.101562 -1.304688 3.78125 -1.597656 4.125 -1.984375 C 4.476562 -2.367188 4.65625 -3.019531 4.65625 -3.9375 L 4.6875 -17.703125 C 4.6875 -18.410156 4.601562 -18.882812 4.4375 -19.125 C 4.28125 -19.363281 3.957031 -19.484375 3.46875 -19.484375 C 3.257812 -19.484375 3.046875 -19.472656 2.828125 -19.453125 C 2.609375 -19.429688 2.453125 -19.421875 2.359375 -19.421875 L 2.296875 -19.546875 L 2.53125 -20.984375 C 2.769531 -20.960938 3.226562 -20.941406 3.90625 -20.921875 C 4.582031 -20.898438 5.269531 -20.890625 5.96875 -20.890625 C 6.90625 -20.890625 7.875 -20.90625 8.875 -20.9375 C 9.882812 -20.96875 10.578125 -20.992188 10.953125 -21.015625 C 13.054688 -21.015625 14.925781 -20.601562 16.5625 -19.78125 C 18.195312 -18.96875 19.46875 -17.816406 20.375 -16.328125 C 21.289062 -14.847656 21.75 -13.144531 21.75 -11.21875 C 21.75 -9.070312 21.242188 -7.113281 20.234375 -5.34375 C 19.234375 -3.570312 17.867188 -2.171875 16.140625 -1.140625 C 14.410156 -0.117188 12.492188 0.390625 10.390625 0.390625 Z M 8.6875 -19.421875 C 8.226562 -19.421875 7.921875 -19.367188 7.765625 -19.265625 C 7.617188 -19.171875 7.535156 -18.976562 7.515625 -18.6875 C 7.179688 -10.269531 7.015625 -5.472656 7.015625 -4.296875 C 7.015625 -3.460938 7.128906 -2.835938 7.359375 -2.421875 C 7.585938 -2.003906 7.992188 -1.707031 8.578125 -1.53125 C 9.160156 -1.363281 10.019531 -1.28125 11.15625 -1.28125 C 13.507812 -1.28125 15.363281 -2.09375 16.71875 -3.71875 C 18.082031 -5.351562 18.765625 -7.585938 18.765625 -10.421875 C 18.765625 -13.316406 17.894531 -15.539062 16.15625 -17.09375 C 14.414062 -18.644531 11.925781 -19.421875 8.6875 -19.421875 Z M 8.6875 -19.421875 "/></g></g><g style="fill:#62e1e9;fill-opacity:1;"><g transform="translate(222.582218, 239.548167)"><path style="stroke:none" d="M 17.453125 -5.484375 C 17.078125 -3.710938 16.78125 -1.875 16.5625 0.03125 L 16.390625 0.234375 C 11.804688 0.078125 8.5 0 6.46875 0 C 4.84375 0 3.320312 0.109375 1.90625 0.328125 L 2.09375 -1.1875 C 3.082031 -1.3125 3.753906 -1.566406 4.109375 -1.953125 C 4.472656 -2.335938 4.65625 -3 4.65625 -3.9375 L 4.6875 -17.703125 C 4.6875 -18.410156 4.601562 -18.882812 4.4375 -19.125 C 4.28125 -19.363281 3.957031 -19.484375 3.46875 -19.484375 L 2.359375 -19.421875 L 2.296875 -19.546875 L 2.53125 -20.984375 C 4.757812 -20.921875 6.273438 -20.890625 7.078125 -20.890625 C 9.679688 -20.890625 11.703125 -20.914062 13.140625 -20.96875 C 14.585938 -21.03125 15.847656 -21.132812 16.921875 -21.28125 L 17.015625 -21.09375 C 16.628906 -19.363281 16.378906 -17.546875 16.265625 -15.640625 L 14.6875 -15.515625 L 14.765625 -16.921875 C 14.765625 -17.691406 14.664062 -18.222656 14.46875 -18.515625 C 14.269531 -18.804688 13.84375 -19 13.1875 -19.09375 C 12.53125 -19.195312 11.378906 -19.25 9.734375 -19.25 C 8.972656 -19.25 8.445312 -19.226562 8.15625 -19.1875 C 7.875 -19.144531 7.691406 -19.039062 7.609375 -18.875 C 7.523438 -18.707031 7.46875 -18.40625 7.4375 -17.96875 L 7.1875 -11.609375 L 10.5625 -11.578125 C 11.414062 -11.578125 12.75 -11.695312 14.5625 -11.9375 L 14.6875 -11.78125 L 14.234375 -9.84375 C 11.804688 -9.90625 10.273438 -9.9375 9.640625 -9.9375 C 8.921875 -9.9375 8.078125 -9.859375 7.109375 -9.703125 L 6.984375 -3.4375 C 6.984375 -2.8125 7.035156 -2.367188 7.140625 -2.109375 C 7.253906 -1.859375 7.476562 -1.6875 7.8125 -1.59375 C 8.15625 -1.507812 8.742188 -1.46875 9.578125 -1.46875 C 11.410156 -1.46875 12.710938 -1.554688 13.484375 -1.734375 C 14.265625 -1.910156 14.816406 -2.257812 15.140625 -2.78125 C 15.472656 -3.3125 15.726562 -4.210938 15.90625 -5.484375 L 17.34375 -5.640625 Z M 17.453125 -5.484375 "/></g></g><g style="fill:#62e1e9;fill-opacity:1;"><g transform="translate(243.403895, 239.548167)"><path style="stroke:none" d="M 7.1875 0.390625 C 6.269531 0.390625 5.425781 0.304688 4.65625 0.140625 C 3.894531 -0.015625 3.265625 -0.191406 2.765625 -0.390625 C 2.273438 -0.585938 2.03125 -0.695312 2.03125 -0.71875 L 1.875 -1.046875 C 1.894531 -1.179688 1.9375 -1.507812 2 -2.03125 C 2.0625 -2.5625 2.117188 -3.242188 2.171875 -4.078125 C 2.234375 -4.921875 2.265625 -5.8125 2.265625 -6.75 L 3.734375 -6.921875 C 3.734375 -5.273438 3.84375 -4.054688 4.0625 -3.265625 C 4.28125 -2.484375 4.6875 -1.945312 5.28125 -1.65625 C 5.875 -1.363281 6.78125 -1.21875 8 -1.21875 C 9.375 -1.21875 10.476562 -1.539062 11.3125 -2.1875 C 12.144531 -2.832031 12.5625 -3.710938 12.5625 -4.828125 C 12.5625 -5.484375 12.335938 -6.070312 11.890625 -6.59375 C 11.441406 -7.113281 10.910156 -7.5625 10.296875 -7.9375 C 9.679688 -8.3125 8.773438 -8.816406 7.578125 -9.453125 C 6.441406 -10.035156 5.507812 -10.570312 4.78125 -11.0625 C 4.0625 -11.5625 3.457031 -12.148438 2.96875 -12.828125 C 2.476562 -13.503906 2.234375 -14.289062 2.234375 -15.1875 C 2.234375 -16.320312 2.566406 -17.351562 3.234375 -18.28125 C 3.898438 -19.207031 4.804688 -19.9375 5.953125 -20.46875 C 7.097656 -21.007812 8.375 -21.28125 9.78125 -21.28125 C 10.644531 -21.28125 11.445312 -21.21875 12.1875 -21.09375 C 12.9375 -20.976562 13.53125 -20.851562 13.96875 -20.71875 C 14.40625 -20.59375 14.679688 -20.507812 14.796875 -20.46875 L 14.890625 -20.265625 C 14.867188 -20.140625 14.8125 -19.832031 14.71875 -19.34375 C 14.632812 -18.863281 14.535156 -18.195312 14.421875 -17.34375 C 14.316406 -16.5 14.234375 -15.625 14.171875 -14.71875 L 12.890625 -14.59375 L 12.6875 -14.765625 C 12.707031 -14.847656 12.726562 -15.046875 12.75 -15.359375 C 12.78125 -15.679688 12.796875 -16.050781 12.796875 -16.46875 C 12.796875 -17.625 12.507812 -18.421875 11.9375 -18.859375 C 11.363281 -19.296875 10.347656 -19.515625 8.890625 -19.515625 C 7.679688 -19.515625 6.6875 -19.210938 5.90625 -18.609375 C 5.132812 -18.003906 4.75 -17.253906 4.75 -16.359375 C 4.75 -15.484375 5.125 -14.722656 5.875 -14.078125 C 6.632812 -13.441406 7.75 -12.738281 9.21875 -11.96875 C 10.632812 -11.25 11.710938 -10.65625 12.453125 -10.1875 C 13.203125 -9.71875 13.859375 -9.128906 14.421875 -8.421875 C 14.992188 -7.722656 15.28125 -6.914062 15.28125 -6 C 15.28125 -4.78125 14.9375 -3.679688 14.25 -2.703125 C 13.5625 -1.734375 12.601562 -0.972656 11.375 -0.421875 C 10.15625 0.117188 8.757812 0.390625 7.1875 0.390625 Z M 7.1875 0.390625 "/></g></g><g style="fill:#62e1e9;fill-opacity:1;"><g transform="translate(262.225443, 239.548167)"><path style="stroke:none" d="M 4.890625 0.390625 C 4.296875 0.390625 3.835938 0.210938 3.515625 -0.140625 C 3.203125 -0.503906 3.046875 -0.945312 3.046875 -1.46875 C 3.046875 -2.039062 3.234375 -2.523438 3.609375 -2.921875 C 3.984375 -3.316406 4.472656 -3.515625 5.078125 -3.515625 C 5.671875 -3.515625 6.128906 -3.332031 6.453125 -2.96875 C 6.785156 -2.601562 6.953125 -2.160156 6.953125 -1.640625 C 6.953125 -1.066406 6.757812 -0.582031 6.375 -0.1875 C 6 0.195312 5.503906 0.390625 4.890625 0.390625 Z M 4.890625 0.390625 "/></g></g><g style="fill:#62e1e9;fill-opacity:1;"><g transform="translate(273.669442, 239.548167)"><path style="stroke:none" d="M 10.390625 0.390625 C 10.066406 0.347656 9.375 0.269531 8.3125 0.15625 C 7.25 0.0507812 6.367188 0 5.671875 0 C 4.992188 0 4.253906 0.0507812 3.453125 0.15625 C 2.660156 0.269531 2.144531 0.347656 1.90625 0.390625 L 2.09375 -1.109375 C 3.101562 -1.304688 3.78125 -1.597656 4.125 -1.984375 C 4.476562 -2.367188 4.65625 -3.019531 4.65625 -3.9375 L 4.6875 -17.703125 C 4.6875 -18.410156 4.601562 -18.882812 4.4375 -19.125 C 4.28125 -19.363281 3.957031 -19.484375 3.46875 -19.484375 C 3.257812 -19.484375 3.046875 -19.472656 2.828125 -19.453125 C 2.609375 -19.429688 2.453125 -19.421875 2.359375 -19.421875 L 2.296875 -19.546875 L 2.53125 -20.984375 C 2.769531 -20.960938 3.226562 -20.941406 3.90625 -20.921875 C 4.582031 -20.898438 5.269531 -20.890625 5.96875 -20.890625 C 6.90625 -20.890625 7.875 -20.90625 8.875 -20.9375 C 9.882812 -20.96875 10.578125 -20.992188 10.953125 -21.015625 C 13.054688 -21.015625 14.925781 -20.601562 16.5625 -19.78125 C 18.195312 -18.96875 19.46875 -17.816406 20.375 -16.328125 C 21.289062 -14.847656 21.75 -13.144531 21.75 -11.21875 C 21.75 -9.070312 21.242188 -7.113281 20.234375 -5.34375 C 19.234375 -3.570312 17.867188 -2.171875 16.140625 -1.140625 C 14.410156 -0.117188 12.492188 0.390625 10.390625 0.390625 Z M 8.6875 -19.421875 C 8.226562 -19.421875 7.921875 -19.367188 7.765625 -19.265625 C 7.617188 -19.171875 7.535156 -18.976562 7.515625 -18.6875 C 7.179688 -10.269531 7.015625 -5.472656 7.015625 -4.296875 C 7.015625 -3.460938 7.128906 -2.835938 7.359375 -2.421875 C 7.585938 -2.003906 7.992188 -1.707031 8.578125 -1.53125 C 9.160156 -1.363281 10.019531 -1.28125 11.15625 -1.28125 C 13.507812 -1.28125 15.363281 -2.09375 16.71875 -3.71875 C 18.082031 -5.351562 18.765625 -7.585938 18.765625 -10.421875 C 18.765625 -13.316406 17.894531 -15.539062 16.15625 -17.09375 C 14.414062 -18.644531 11.925781 -19.421875 8.6875 -19.421875 Z M 8.6875 -19.421875 "/></g></g><g style="fill:#62e1e9;fill-opacity:1;"><g transform="translate(298.163504, 239.548167)"><path style="stroke:none" d="M 17.453125 -5.484375 C 17.078125 -3.710938 16.78125 -1.875 16.5625 0.03125 L 16.390625 0.234375 C 11.804688 0.078125 8.5 0 6.46875 0 C 4.84375 0 3.320312 0.109375 1.90625 0.328125 L 2.09375 -1.1875 C 3.082031 -1.3125 3.753906 -1.566406 4.109375 -1.953125 C 4.472656 -2.335938 4.65625 -3 4.65625 -3.9375 L 4.6875 -17.703125 C 4.6875 -18.410156 4.601562 -18.882812 4.4375 -19.125 C 4.28125 -19.363281 3.957031 -19.484375 3.46875 -19.484375 L 2.359375 -19.421875 L 2.296875 -19.546875 L 2.53125 -20.984375 C 4.757812 -20.921875 6.273438 -20.890625 7.078125 -20.890625 C 9.679688 -20.890625 11.703125 -20.914062 13.140625 -20.96875 C 14.585938 -21.03125 15.847656 -21.132812 16.921875 -21.28125 L 17.015625 -21.09375 C 16.628906 -19.363281 16.378906 -17.546875 16.265625 -15.640625 L 14.6875 -15.515625 L 14.765625 -16.921875 C 14.765625 -17.691406 14.664062 -18.222656 14.46875 -18.515625 C 14.269531 -18.804688 13.84375 -19 13.1875 -19.09375 C 12.53125 -19.195312 11.378906 -19.25 9.734375 -19.25 C 8.972656 -19.25 8.445312 -19.226562 8.15625 -19.1875 C 7.875 -19.144531 7.691406 -19.039062 7.609375 -18.875 C 7.523438 -18.707031 7.46875 -18.40625 7.4375 -17.96875 L 7.1875 -11.609375 L 10.5625 -11.578125 C 11.414062 -11.578125 12.75 -11.695312 14.5625 -11.9375 L 14.6875 -11.78125 L 14.234375 -9.84375 C 11.804688 -9.90625 10.273438 -9.9375 9.640625 -9.9375 C 8.921875 -9.9375 8.078125 -9.859375 7.109375 -9.703125 L 6.984375 -3.4375 C 6.984375 -2.8125 7.035156 -2.367188 7.140625 -2.109375 C 7.253906 -1.859375 7.476562 -1.6875 7.8125 -1.59375 C 8.15625 -1.507812 8.742188 -1.46875 9.578125 -1.46875 C 11.410156 -1.46875 12.710938 -1.554688 13.484375 -1.734375 C 14.265625 -1.910156 14.816406 -2.257812 15.140625 -2.78125 C 15.472656 -3.3125 15.726562 -4.210938 15.90625 -5.484375 L 17.34375 -5.640625 Z M 17.453125 -5.484375 "/></g></g><g style="fill:#62e1e9;fill-opacity:1;"><g transform="translate(318.985182, 239.548167)"><path style="stroke:none" d="M 8.46875 0.5625 C 8.132812 -0.53125 7.394531 -2.9375 6.25 -6.65625 C 5.101562 -10.375 3.945312 -14.015625 2.78125 -17.578125 C 2.59375 -18.210938 2.253906 -18.675781 1.765625 -18.96875 C 1.285156 -19.269531 0.617188 -19.429688 -0.234375 -19.453125 L -0.296875 -19.578125 L -0.0625 -20.984375 C 0.21875 -20.984375 0.742188 -20.96875 1.515625 -20.9375 C 2.296875 -20.90625 3.035156 -20.890625 3.734375 -20.890625 C 4.460938 -20.890625 5.378906 -20.9375 6.484375 -21.03125 C 7.585938 -21.132812 8.3125 -21.207031 8.65625 -21.25 L 8.75 -21.015625 L 8.625 -19.75 C 7.445312 -19.65625 6.664062 -19.519531 6.28125 -19.34375 C 5.894531 -19.175781 5.703125 -18.847656 5.703125 -18.359375 C 5.703125 -17.921875 6.28125 -15.648438 7.4375 -11.546875 C 8.601562 -7.453125 9.40625 -4.664062 9.84375 -3.1875 L 10.140625 -3.1875 C 13.765625 -12.539062 15.578125 -17.566406 15.578125 -18.265625 C 15.578125 -18.722656 15.398438 -19.054688 15.046875 -19.265625 C 14.703125 -19.472656 14.125 -19.578125 13.3125 -19.578125 L 11.609375 -19.578125 L 11.546875 -19.703125 L 11.734375 -21.125 C 12.023438 -21.101562 12.65625 -21.054688 13.625 -20.984375 C 14.601562 -20.921875 15.539062 -20.890625 16.4375 -20.890625 C 17.238281 -20.890625 17.984375 -20.898438 18.671875 -20.921875 C 19.359375 -20.941406 19.8125 -20.960938 20.03125 -20.984375 L 19.78125 -19.453125 C 19.101562 -19.429688 18.628906 -19.320312 18.359375 -19.125 C 18.097656 -18.925781 17.847656 -18.507812 17.609375 -17.875 L 10.5625 -0.15625 Z M 8.46875 0.5625 "/></g></g></g></svg>