<svg xmlns="http://www.w3.org/2000/svg" xmlns:xlink="http://www.w3.org/1999/xlink" width="500" zoomAndPan="magnify" viewBox="0 0 375 374.999991" height="500" preserveAspectRatio="xMidYMid meet" version="1.2"><defs><clipPath id="d6e23dcfb4"><path d="M 107.613281 133 L 188 133 L 188 203.980469 L 107.613281 203.980469 Z M 107.613281 133 "/></clipPath><clipPath id="de5367082c"><path d="M 187 96.730469 L 267.363281 96.730469 L 267.363281 168 L 187 168 Z M 187 96.730469 "/></clipPath></defs><g id="575fad5465"><g clip-rule="nonzero" clip-path="url(#d6e23dcfb4)"><path style=" stroke:none;fill-rule:nonzero;fill:#0097b2;fill-opacity:1;" d="M 161.316406 183.4375 L 161.316406 193.144531 L 117.351562 172.722656 L 117.351562 164.84375 L 161.316406 144.417969 L 161.316406 154.128906 L 128.066406 168.691406 L 128.066406 168.875 Z M 187.425781 133.628906 L 113.902344 133.628906 C 110.433594 133.628906 107.617188 136.445312 107.617188 139.917969 L 107.617188 197.648438 C 107.617188 201.121094 110.433594 203.933594 113.902344 203.933594 L 167.019531 203.933594 L 187.425781 133.628906 "/></g><g clip-rule="nonzero" clip-path="url(#de5367082c)"><path style=" stroke:none;fill-rule:nonzero;fill:#62e1e9;fill-opacity:1;" d="M 257.382812 136.128906 L 213.421875 156.277344 L 213.421875 146.566406 L 247.402344 132.007812 L 247.402344 131.824219 L 213.421875 117.257812 L 213.421875 107.550781 L 257.382812 127.699219 Z M 207.839844 96.761719 L 187.425781 167.066406 L 260.832031 167.066406 C 264.304688 167.066406 267.117188 164.253906 267.117188 160.78125 L 267.117188 103.046875 C 267.117188 99.578125 264.304688 96.761719 260.832031 96.761719 L 207.839844 96.761719 "/></g><g style="fill:#62e1e9;fill-opacity:1;"><g transform="translate(47.678696, 238.798168)"><path style="stroke:none" d="M 17.15625 0.03125 L 13.609375 -8.265625 L 5.578125 -8.265625 L 1.90625 0.03125 L 1.140625 0.03125 L 10.5 -20.984375 L 10.6875 -20.984375 L 19.671875 0.03125 Z M 5.84375 -8.796875 L 13.375 -8.796875 L 9.671875 -17.453125 Z M 5.84375 -8.796875 "/></g></g><g style="fill:#62e1e9;fill-opacity:1;"><g transform="translate(69.975883, 238.798168)"><path style="stroke:none" d="M 3.9375 -0.53125 L 12.140625 -0.53125 L 12.140625 0.03125 L 1.578125 0.03125 L 1.578125 -20.59375 L 3.9375 -20.59375 Z M 3.9375 -0.53125 "/></g></g><g style="fill:#62e1e9;fill-opacity:1;"><g transform="translate(84.797159, 238.798168)"><path style="stroke:none" d="M 16 -20.59375 L 16.625 -20.59375 L 10.0625 -9.609375 L 10.0625 0.03125 L 7.703125 0.03125 L 7.703125 -8.953125 L 1.046875 -20.59375 L 3.765625 -20.59375 L 9.734375 -10.140625 Z M 16 -20.59375 "/></g></g><g style="fill:#62e1e9;fill-opacity:1;"><g transform="translate(103.946591, 238.798168)"><path style="stroke:none" d="M 0.8125 -1.546875 C 1.382812 -1.085938 2.101562 -0.660156 2.96875 -0.265625 C 3.832031 0.128906 4.960938 0.328125 6.359375 0.328125 C 7.253906 0.328125 8.082031 0.15625 8.84375 -0.1875 C 9.613281 -0.539062 10.234375 -1.070312 10.703125 -1.78125 C 11.171875 -2.5 11.40625 -3.390625 11.40625 -4.453125 C 11.40625 -5.378906 11.21875 -6.132812 10.84375 -6.71875 C 10.476562 -7.3125 9.984375 -7.804688 9.359375 -8.203125 C 8.734375 -8.597656 8.050781 -8.9375 7.3125 -9.21875 C 6.570312 -9.5 5.820312 -9.796875 5.0625 -10.109375 C 4.3125 -10.429688 3.625 -10.8125 3 -11.25 C 2.375 -11.6875 1.875 -12.25 1.5 -12.9375 C 1.132812 -13.625 0.953125 -14.492188 0.953125 -15.546875 C 0.953125 -16.578125 1.144531 -17.453125 1.53125 -18.171875 C 1.925781 -18.890625 2.441406 -19.472656 3.078125 -19.921875 C 3.710938 -20.367188 4.390625 -20.695312 5.109375 -20.90625 C 5.835938 -21.113281 6.53125 -21.21875 7.1875 -21.21875 C 8.0625 -21.21875 8.84375 -21.113281 9.53125 -20.90625 C 10.21875 -20.695312 10.765625 -20.488281 11.171875 -20.28125 C 11.578125 -20.070312 11.78125 -19.96875 11.78125 -19.96875 L 11.8125 -19.3125 C 11.8125 -19.3125 11.617188 -19.421875 11.234375 -19.640625 C 10.847656 -19.859375 10.3125 -20.082031 9.625 -20.3125 C 8.9375 -20.539062 8.125 -20.65625 7.1875 -20.65625 C 5.78125 -20.65625 4.6875 -20.238281 3.90625 -19.40625 C 3.132812 -18.582031 2.75 -17.578125 2.75 -16.390625 C 2.75 -15.410156 3.003906 -14.613281 3.515625 -14 C 4.035156 -13.394531 4.691406 -12.890625 5.484375 -12.484375 C 6.285156 -12.078125 7.132812 -11.691406 8.03125 -11.328125 C 8.925781 -10.972656 9.773438 -10.554688 10.578125 -10.078125 C 11.378906 -9.609375 12.03125 -8.988281 12.53125 -8.21875 C 13.03125 -7.457031 13.28125 -6.476562 13.28125 -5.28125 C 13.28125 -4.050781 12.953125 -2.976562 12.296875 -2.0625 C 11.640625 -1.144531 10.78125 -0.4375 9.71875 0.0625 C 8.664062 0.5625 7.546875 0.8125 6.359375 0.8125 C 5.179688 0.8125 4.179688 0.679688 3.359375 0.421875 C 2.535156 0.160156 1.90625 -0.0976562 1.46875 -0.359375 C 1.03125 -0.617188 0.8125 -0.75 0.8125 -0.75 Z M 0.8125 -1.546875 "/></g></g><g style="fill:#62e1e9;fill-opacity:1;"><g transform="translate(119.981068, 238.798168)"><path style="stroke:none" d="M 0.8125 -1.546875 C 1.382812 -1.085938 2.101562 -0.660156 2.96875 -0.265625 C 3.832031 0.128906 4.960938 0.328125 6.359375 0.328125 C 7.253906 0.328125 8.082031 0.15625 8.84375 -0.1875 C 9.613281 -0.539062 10.234375 -1.070312 10.703125 -1.78125 C 11.171875 -2.5 11.40625 -3.390625 11.40625 -4.453125 C 11.40625 -5.378906 11.21875 -6.132812 10.84375 -6.71875 C 10.476562 -7.3125 9.984375 -7.804688 9.359375 -8.203125 C 8.734375 -8.597656 8.050781 -8.9375 7.3125 -9.21875 C 6.570312 -9.5 5.820312 -9.796875 5.0625 -10.109375 C 4.3125 -10.429688 3.625 -10.8125 3 -11.25 C 2.375 -11.6875 1.875 -12.25 1.5 -12.9375 C 1.132812 -13.625 0.953125 -14.492188 0.953125 -15.546875 C 0.953125 -16.578125 1.144531 -17.453125 1.53125 -18.171875 C 1.925781 -18.890625 2.441406 -19.472656 3.078125 -19.921875 C 3.710938 -20.367188 4.390625 -20.695312 5.109375 -20.90625 C 5.835938 -21.113281 6.53125 -21.21875 7.1875 -21.21875 C 8.0625 -21.21875 8.84375 -21.113281 9.53125 -20.90625 C 10.21875 -20.695312 10.765625 -20.488281 11.171875 -20.28125 C 11.578125 -20.070312 11.78125 -19.96875 11.78125 -19.96875 L 11.8125 -19.3125 C 11.8125 -19.3125 11.617188 -19.421875 11.234375 -19.640625 C 10.847656 -19.859375 10.3125 -20.082031 9.625 -20.3125 C 8.9375 -20.539062 8.125 -20.65625 7.1875 -20.65625 C 5.78125 -20.65625 4.6875 -20.238281 3.90625 -19.40625 C 3.132812 -18.582031 2.75 -17.578125 2.75 -16.390625 C 2.75 -15.410156 3.003906 -14.613281 3.515625 -14 C 4.035156 -13.394531 4.691406 -12.890625 5.484375 -12.484375 C 6.285156 -12.078125 7.132812 -11.691406 8.03125 -11.328125 C 8.925781 -10.972656 9.773438 -10.554688 10.578125 -10.078125 C 11.378906 -9.609375 12.03125 -8.988281 12.53125 -8.21875 C 13.03125 -7.457031 13.28125 -6.476562 13.28125 -5.28125 C 13.28125 -4.050781 12.953125 -2.976562 12.296875 -2.0625 C 11.640625 -1.144531 10.78125 -0.4375 9.71875 0.0625 C 8.664062 0.5625 7.546875 0.8125 6.359375 0.8125 C 5.179688 0.8125 4.179688 0.679688 3.359375 0.421875 C 2.535156 0.160156 1.90625 -0.0976562 1.46875 -0.359375 C 1.03125 -0.617188 0.8125 -0.75 0.8125 -0.75 Z M 0.8125 -1.546875 "/></g></g><g style="fill:#62e1e9;fill-opacity:1;"><g transform="translate(136.015544, 238.798168)"><path style="stroke:none" d="M 17.15625 0.03125 L 13.609375 -8.265625 L 5.578125 -8.265625 L 1.90625 0.03125 L 1.140625 0.03125 L 10.5 -20.984375 L 10.6875 -20.984375 L 19.671875 0.03125 Z M 5.84375 -8.796875 L 13.375 -8.796875 L 9.671875 -17.453125 Z M 5.84375 -8.796875 "/></g></g><g style="fill:#62e1e9;fill-opacity:1;"><g transform="translate(158.31273, 238.798168)"><path style="stroke:none" d="M 18.625 -1.875 L 18.625 -1.109375 C 18.625 -1.109375 18.382812 -0.96875 17.90625 -0.6875 C 17.425781 -0.40625 16.710938 -0.125 15.765625 0.15625 C 14.828125 0.445312 13.671875 0.59375 12.296875 0.59375 C 11.460938 0.59375 10.5625 0.5 9.59375 0.3125 C 8.625 0.125 7.648438 -0.207031 6.671875 -0.6875 C 5.703125 -1.164062 4.8125 -1.816406 4 -2.640625 C 3.1875 -3.460938 2.535156 -4.488281 2.046875 -5.71875 C 1.554688 -6.957031 1.3125 -8.453125 1.3125 -10.203125 C 1.3125 -12.097656 1.617188 -13.726562 2.234375 -15.09375 C 2.847656 -16.46875 3.679688 -17.585938 4.734375 -18.453125 C 5.796875 -19.316406 7.003906 -19.953125 8.359375 -20.359375 C 9.710938 -20.773438 11.125 -20.984375 12.59375 -20.984375 C 13.84375 -20.984375 14.921875 -20.867188 15.828125 -20.640625 C 16.734375 -20.410156 17.425781 -20.1875 17.90625 -19.96875 C 18.382812 -19.75 18.625 -19.640625 18.625 -19.640625 L 18.625 -18.921875 C 18.625 -18.921875 18.390625 -19.046875 17.921875 -19.296875 C 17.453125 -19.546875 16.769531 -19.796875 15.875 -20.046875 C 14.976562 -20.304688 13.882812 -20.4375 12.59375 -20.4375 C 11.957031 -20.4375 11.242188 -20.351562 10.453125 -20.1875 C 9.671875 -20.019531 8.882812 -19.71875 8.09375 -19.28125 C 7.3125 -18.84375 6.585938 -18.238281 5.921875 -17.46875 C 5.253906 -16.707031 4.71875 -15.734375 4.3125 -14.546875 C 3.90625 -13.359375 3.703125 -11.910156 3.703125 -10.203125 C 3.703125 -8.054688 3.984375 -6.304688 4.546875 -4.953125 C 5.117188 -3.597656 5.859375 -2.554688 6.765625 -1.828125 C 7.679688 -1.109375 8.648438 -0.613281 9.671875 -0.34375 C 10.703125 -0.0703125 11.675781 0.0625 12.59375 0.0625 C 13.863281 0.0625 14.945312 -0.09375 15.84375 -0.40625 C 16.738281 -0.726562 17.425781 -1.050781 17.90625 -1.375 C 18.382812 -1.707031 18.625 -1.875 18.625 -1.875 Z M 18.625 -1.875 "/></g></g><g style="fill:#62e1e9;fill-opacity:1;"><g transform="translate(179.757401, 238.798168)"><path style="stroke:none" d="M 12.59375 -20.984375 C 14.0625 -20.984375 15.472656 -20.773438 16.828125 -20.359375 C 18.179688 -19.953125 19.390625 -19.316406 20.453125 -18.453125 C 21.515625 -17.585938 22.351562 -16.46875 22.96875 -15.09375 C 23.59375 -13.726562 23.90625 -12.097656 23.90625 -10.203125 C 23.90625 -8.453125 23.648438 -6.957031 23.140625 -5.71875 C 22.628906 -4.488281 21.953125 -3.460938 21.109375 -2.640625 C 20.265625 -1.816406 19.34375 -1.164062 18.34375 -0.6875 C 17.351562 -0.207031 16.351562 0.125 15.34375 0.3125 C 14.34375 0.5 13.425781 0.59375 12.59375 0.59375 C 11.78125 0.59375 10.867188 0.5 9.859375 0.3125 C 8.859375 0.125 7.851562 -0.207031 6.84375 -0.6875 C 5.84375 -1.164062 4.925781 -1.816406 4.09375 -2.640625 C 3.269531 -3.460938 2.597656 -4.488281 2.078125 -5.71875 C 1.566406 -6.957031 1.3125 -8.453125 1.3125 -10.203125 C 1.3125 -12.097656 1.617188 -13.726562 2.234375 -15.09375 C 2.847656 -16.46875 3.679688 -17.585938 4.734375 -18.453125 C 5.796875 -19.316406 7.003906 -19.953125 8.359375 -20.359375 C 9.710938 -20.773438 11.125 -20.984375 12.59375 -20.984375 Z M 12.59375 0.0625 C 13.507812 0.0625 14.488281 -0.0703125 15.53125 -0.34375 C 16.570312 -0.613281 17.539062 -1.109375 18.4375 -1.828125 C 19.332031 -2.554688 20.0625 -3.597656 20.625 -4.953125 C 21.195312 -6.304688 21.484375 -8.054688 21.484375 -10.203125 C 21.484375 -11.910156 21.28125 -13.359375 20.875 -14.546875 C 20.46875 -15.734375 19.9375 -16.707031 19.28125 -17.46875 C 18.625 -18.238281 17.894531 -18.84375 17.09375 -19.28125 C 16.300781 -19.71875 15.507812 -20.019531 14.71875 -20.1875 C 13.9375 -20.351562 13.226562 -20.4375 12.59375 -20.4375 C 11.957031 -20.4375 11.242188 -20.351562 10.453125 -20.1875 C 9.671875 -20.019531 8.882812 -19.71875 8.09375 -19.28125 C 7.3125 -18.84375 6.585938 -18.238281 5.921875 -17.46875 C 5.253906 -16.707031 4.71875 -15.734375 4.3125 -14.546875 C 3.90625 -13.359375 3.703125 -11.910156 3.703125 -10.203125 C 3.703125 -8.054688 3.984375 -6.304688 4.546875 -4.953125 C 5.117188 -3.597656 5.859375 -2.554688 6.765625 -1.828125 C 7.679688 -1.109375 8.648438 -0.613281 9.671875 -0.34375 C 10.703125 -0.0703125 11.675781 0.0625 12.59375 0.0625 Z M 12.59375 0.0625 "/></g></g><g style="fill:#62e1e9;fill-opacity:1;"><g transform="translate(206.579489, 238.798168)"><path style="stroke:none" d="M 10.09375 -20.59375 C 10.84375 -20.59375 11.679688 -20.523438 12.609375 -20.390625 C 13.535156 -20.265625 14.460938 -20.015625 15.390625 -19.640625 C 16.328125 -19.273438 17.175781 -18.726562 17.9375 -18 C 18.707031 -17.28125 19.328125 -16.316406 19.796875 -15.109375 C 20.265625 -13.910156 20.5 -12.414062 20.5 -10.625 C 20.5 -8.769531 20.234375 -7.210938 19.703125 -5.953125 C 19.179688 -4.691406 18.492188 -3.671875 17.640625 -2.890625 C 16.785156 -2.117188 15.875 -1.523438 14.90625 -1.109375 C 13.9375 -0.691406 12.992188 -0.40625 12.078125 -0.25 C 11.171875 -0.101562 10.394531 -0.0195312 9.75 0 C 9.113281 0.0195312 8.707031 0.03125 8.53125 0.03125 L 1.578125 0.03125 L 1.578125 -20.59375 Z M 8.5 -0.53125 C 9.613281 -0.53125 10.738281 -0.679688 11.875 -0.984375 C 13.007812 -1.285156 14.046875 -1.804688 14.984375 -2.546875 C 15.921875 -3.296875 16.675781 -4.328125 17.25 -5.640625 C 17.820312 -6.953125 18.109375 -8.613281 18.109375 -10.625 C 18.109375 -12.21875 17.910156 -13.570312 17.515625 -14.6875 C 17.117188 -15.800781 16.585938 -16.707031 15.921875 -17.40625 C 15.253906 -18.113281 14.515625 -18.648438 13.703125 -19.015625 C 12.898438 -19.390625 12.078125 -19.644531 11.234375 -19.78125 C 10.390625 -19.925781 9.597656 -20 8.859375 -20 L 3.9375 -20 L 3.9375 -0.53125 Z M 8.5 -0.53125 "/></g></g><g style="fill:#62e1e9;fill-opacity:1;"><g transform="translate(230.0243, 238.798168)"><path style="stroke:none" d="M 12.03125 -20.03125 L 3.9375 -20.03125 L 3.9375 -11.015625 L 11.15625 -11.015625 L 11.15625 -10.46875 L 3.9375 -10.46875 L 3.9375 -0.53125 L 12.03125 -0.53125 L 12.03125 0.03125 L 1.578125 0.03125 L 1.578125 -20.59375 L 12.03125 -20.59375 Z M 12.03125 -20.03125 "/></g></g><g style="fill:#62e1e9;fill-opacity:1;"><g transform="translate(244.878376, 238.798168)"><path style="stroke:none" d="M 0.8125 -1.546875 C 1.382812 -1.085938 2.101562 -0.660156 2.96875 -0.265625 C 3.832031 0.128906 4.960938 0.328125 6.359375 0.328125 C 7.253906 0.328125 8.082031 0.15625 8.84375 -0.1875 C 9.613281 -0.539062 10.234375 -1.070312 10.703125 -1.78125 C 11.171875 -2.5 11.40625 -3.390625 11.40625 -4.453125 C 11.40625 -5.378906 11.21875 -6.132812 10.84375 -6.71875 C 10.476562 -7.3125 9.984375 -7.804688 9.359375 -8.203125 C 8.734375 -8.597656 8.050781 -8.9375 7.3125 -9.21875 C 6.570312 -9.5 5.820312 -9.796875 5.0625 -10.109375 C 4.3125 -10.429688 3.625 -10.8125 3 -11.25 C 2.375 -11.6875 1.875 -12.25 1.5 -12.9375 C 1.132812 -13.625 0.953125 -14.492188 0.953125 -15.546875 C 0.953125 -16.578125 1.144531 -17.453125 1.53125 -18.171875 C 1.925781 -18.890625 2.441406 -19.472656 3.078125 -19.921875 C 3.710938 -20.367188 4.390625 -20.695312 5.109375 -20.90625 C 5.835938 -21.113281 6.53125 -21.21875 7.1875 -21.21875 C 8.0625 -21.21875 8.84375 -21.113281 9.53125 -20.90625 C 10.21875 -20.695312 10.765625 -20.488281 11.171875 -20.28125 C 11.578125 -20.070312 11.78125 -19.96875 11.78125 -19.96875 L 11.8125 -19.3125 C 11.8125 -19.3125 11.617188 -19.421875 11.234375 -19.640625 C 10.847656 -19.859375 10.3125 -20.082031 9.625 -20.3125 C 8.9375 -20.539062 8.125 -20.65625 7.1875 -20.65625 C 5.78125 -20.65625 4.6875 -20.238281 3.90625 -19.40625 C 3.132812 -18.582031 2.75 -17.578125 2.75 -16.390625 C 2.75 -15.410156 3.003906 -14.613281 3.515625 -14 C 4.035156 -13.394531 4.691406 -12.890625 5.484375 -12.484375 C 6.285156 -12.078125 7.132812 -11.691406 8.03125 -11.328125 C 8.925781 -10.972656 9.773438 -10.554688 10.578125 -10.078125 C 11.378906 -9.609375 12.03125 -8.988281 12.53125 -8.21875 C 13.03125 -7.457031 13.28125 -6.476562 13.28125 -5.28125 C 13.28125 -4.050781 12.953125 -2.976562 12.296875 -2.0625 C 11.640625 -1.144531 10.78125 -0.4375 9.71875 0.0625 C 8.664062 0.5625 7.546875 0.8125 6.359375 0.8125 C 5.179688 0.8125 4.179688 0.679688 3.359375 0.421875 C 2.535156 0.160156 1.90625 -0.0976562 1.46875 -0.359375 C 1.03125 -0.617188 0.8125 -0.75 0.8125 -0.75 Z M 0.8125 -1.546875 "/></g></g><g style="fill:#62e1e9;fill-opacity:1;"><g transform="translate(260.912829, 238.798168)"><path style="stroke:none" d="M 2.984375 0.53125 L 1.46875 -0.984375 L 2.984375 -2.5 L 4.5 -0.984375 Z M 2.984375 0.53125 "/></g></g><g style="fill:#62e1e9;fill-opacity:1;"><g transform="translate(268.290971, 238.798168)"><path style="stroke:none" d="M 10.09375 -20.59375 C 10.84375 -20.59375 11.679688 -20.523438 12.609375 -20.390625 C 13.535156 -20.265625 14.460938 -20.015625 15.390625 -19.640625 C 16.328125 -19.273438 17.175781 -18.726562 17.9375 -18 C 18.707031 -17.28125 19.328125 -16.316406 19.796875 -15.109375 C 20.265625 -13.910156 20.5 -12.414062 20.5 -10.625 C 20.5 -8.769531 20.234375 -7.210938 19.703125 -5.953125 C 19.179688 -4.691406 18.492188 -3.671875 17.640625 -2.890625 C 16.785156 -2.117188 15.875 -1.523438 14.90625 -1.109375 C 13.9375 -0.691406 12.992188 -0.40625 12.078125 -0.25 C 11.171875 -0.101562 10.394531 -0.0195312 9.75 0 C 9.113281 0.0195312 8.707031 0.03125 8.53125 0.03125 L 1.578125 0.03125 L 1.578125 -20.59375 Z M 8.5 -0.53125 C 9.613281 -0.53125 10.738281 -0.679688 11.875 -0.984375 C 13.007812 -1.285156 14.046875 -1.804688 14.984375 -2.546875 C 15.921875 -3.296875 16.675781 -4.328125 17.25 -5.640625 C 17.820312 -6.953125 18.109375 -8.613281 18.109375 -10.625 C 18.109375 -12.21875 17.910156 -13.570312 17.515625 -14.6875 C 17.117188 -15.800781 16.585938 -16.707031 15.921875 -17.40625 C 15.253906 -18.113281 14.515625 -18.648438 13.703125 -19.015625 C 12.898438 -19.390625 12.078125 -19.644531 11.234375 -19.78125 C 10.390625 -19.925781 9.597656 -20 8.859375 -20 L 3.9375 -20 L 3.9375 -0.53125 Z M 8.5 -0.53125 "/></g></g><g style="fill:#62e1e9;fill-opacity:1;"><g transform="translate(291.735794, 238.798168)"><path style="stroke:none" d="M 12.03125 -20.03125 L 3.9375 -20.03125 L 3.9375 -11.015625 L 11.15625 -11.015625 L 11.15625 -10.46875 L 3.9375 -10.46875 L 3.9375 -0.53125 L 12.03125 -0.53125 L 12.03125 0.03125 L 1.578125 0.03125 L 1.578125 -20.59375 L 12.03125 -20.59375 Z M 12.03125 -20.03125 "/></g></g><g style="fill:#62e1e9;fill-opacity:1;"><g transform="translate(306.589858, 238.798168)"><path style="stroke:none" d="M 18.859375 -20.59375 L 19.609375 -20.59375 L 10.265625 0.421875 L 10.09375 0.421875 L 1.078125 -20.59375 L 3.609375 -20.59375 L 11.078125 -3.109375 Z M 18.859375 -20.59375 "/></g></g></g></svg>