<svg xmlns="http://www.w3.org/2000/svg" xmlns:xlink="http://www.w3.org/1999/xlink" width="500" zoomAndPan="magnify" viewBox="0 0 375 374.999991" height="500" preserveAspectRatio="xMidYMid meet" version="1.2"><defs><clipPath id="56264aa90e"><path d="M 107.613281 133 L 188 133 L 188 203.980469 L 107.613281 203.980469 Z M 107.613281 133 "/></clipPath><clipPath id="b9b1b11bca"><path d="M 187 96.730469 L 267.363281 96.730469 L 267.363281 168 L 187 168 Z M 187 96.730469 "/></clipPath></defs><g id="27235ae16e"><g clip-rule="nonzero" clip-path="url(#56264aa90e)"><path style=" stroke:none;fill-rule:nonzero;fill:#0097b2;fill-opacity:1;" d="M 161.316406 183.4375 L 161.316406 193.144531 L 117.351562 172.722656 L 117.351562 164.84375 L 161.316406 144.417969 L 161.316406 154.128906 L 128.066406 168.691406 L 128.066406 168.875 Z M 187.425781 133.628906 L 113.902344 133.628906 C 110.433594 133.628906 107.617188 136.445312 107.617188 139.917969 L 107.617188 197.648438 C 107.617188 201.121094 110.433594 203.933594 113.902344 203.933594 L 167.019531 203.933594 L 187.425781 133.628906 "/></g><g clip-rule="nonzero" clip-path="url(#b9b1b11bca)"><path style=" stroke:none;fill-rule:nonzero;fill:#62e1e9;fill-opacity:1;" d="M 257.382812 136.128906 L 213.421875 156.277344 L 213.421875 146.566406 L 247.402344 132.007812 L 247.402344 131.824219 L 213.421875 117.257812 L 213.421875 107.550781 L 257.382812 127.699219 Z M 207.839844 96.761719 L 187.425781 167.066406 L 260.832031 167.066406 C 264.304688 167.066406 267.117188 164.253906 267.117188 160.78125 L 267.117188 103.046875 C 267.117188 99.578125 264.304688 96.761719 260.832031 96.761719 L 207.839844 96.761719 "/></g><g style="fill:#62e1e9;fill-opacity:1;"><g transform="translate(26.479479, 241.048227)"><path style="stroke:none" d="M 14.109375 -8.53125 L 11.28125 -16.46875 L 8.46875 -8.53125 Z M 22.4375 0 L 17.15625 0 L 15.546875 -4.5 L 7.046875 -4.5 L 5.4375 0 L 0.15625 0 L 9.21875 -22.296875 L 13.375 -22.296875 Z M 22.4375 0 "/></g></g><g style="fill:#62e1e9;fill-opacity:1;"><g transform="translate(50.514496, 241.048227)"><path style="stroke:none" d="M 1.96875 0 L 1.96875 -22.296875 L 6.890625 -22.296875 L 6.890625 -4.453125 L 14.890625 -4.453125 L 14.890625 0 Z M 1.96875 0 "/></g></g><g style="fill:#62e1e9;fill-opacity:1;"><g transform="translate(67.991683, 241.048227)"><path style="stroke:none" d="M 8.5 0 L 8.5 -10.65625 L 0.265625 -22.296875 L 6.140625 -22.296875 L 10.953125 -14.59375 L 15.78125 -22.296875 L 21.640625 -22.296875 L 13.40625 -10.65625 L 13.40625 0 Z M 8.5 0 "/></g></g><g style="fill:#62e1e9;fill-opacity:1;"><g transform="translate(91.338121, 241.048227)"><path style="stroke:none" d="M 10.625 -3.46875 C 11.144531 -3.46875 11.710938 -3.550781 12.328125 -3.71875 C 12.941406 -3.882812 13.472656 -4.15625 13.921875 -4.53125 C 14.367188 -4.914062 14.59375 -5.4375 14.59375 -6.09375 C 14.59375 -6.707031 14.359375 -7.203125 13.890625 -7.578125 C 13.421875 -7.953125 12.800781 -8.257812 12.03125 -8.5 C 11.269531 -8.738281 10.4375 -8.960938 9.53125 -9.171875 C 8.625 -9.378906 7.707031 -9.628906 6.78125 -9.921875 C 5.863281 -10.210938 5.019531 -10.597656 4.25 -11.078125 C 3.488281 -11.566406 2.875 -12.191406 2.40625 -12.953125 C 1.9375 -13.722656 1.703125 -14.695312 1.703125 -15.875 C 1.703125 -17.03125 1.941406 -18.03125 2.421875 -18.875 C 2.910156 -19.71875 3.550781 -20.414062 4.34375 -20.96875 C 5.144531 -21.53125 6.039062 -21.945312 7.03125 -22.21875 C 8.03125 -22.488281 9.03125 -22.625 10.03125 -22.625 C 11.5625 -22.625 12.992188 -22.382812 14.328125 -21.90625 C 15.660156 -21.425781 16.75 -20.664062 17.59375 -19.625 C 18.4375 -18.59375 18.878906 -17.222656 18.921875 -15.515625 L 14.171875 -15.515625 C 14.035156 -16.671875 13.628906 -17.472656 12.953125 -17.921875 C 12.273438 -18.367188 11.320312 -18.59375 10.09375 -18.59375 C 9.632812 -18.59375 9.148438 -18.515625 8.640625 -18.359375 C 8.128906 -18.210938 7.691406 -17.96875 7.328125 -17.625 C 6.960938 -17.289062 6.78125 -16.835938 6.78125 -16.265625 C 6.78125 -15.703125 7.015625 -15.253906 7.484375 -14.921875 C 7.960938 -14.597656 8.582031 -14.328125 9.34375 -14.109375 C 10.113281 -13.890625 10.957031 -13.679688 11.875 -13.484375 C 12.789062 -13.285156 13.703125 -13.039062 14.609375 -12.75 C 15.515625 -12.46875 16.347656 -12.082031 17.109375 -11.59375 C 17.878906 -11.101562 18.5 -10.460938 18.96875 -9.671875 C 19.4375 -8.890625 19.671875 -7.882812 19.671875 -6.65625 C 19.671875 -5.34375 19.410156 -4.226562 18.890625 -3.3125 C 18.367188 -2.394531 17.664062 -1.65625 16.78125 -1.09375 C 15.894531 -0.539062 14.898438 -0.132812 13.796875 0.125 C 12.691406 0.394531 11.566406 0.53125 10.421875 0.53125 C 8.785156 0.53125 7.25 0.253906 5.8125 -0.296875 C 4.382812 -0.859375 3.226562 -1.71875 2.34375 -2.875 C 1.457031 -4.039062 1.003906 -5.53125 0.984375 -7.34375 L 5.96875 -7.34375 C 6.03125 -6.007812 6.519531 -5.03125 7.4375 -4.40625 C 8.363281 -3.78125 9.425781 -3.46875 10.625 -3.46875 Z M 10.625 -3.46875 "/></g></g><g style="fill:#62e1e9;fill-opacity:1;"><g transform="translate(113.438572, 241.048227)"><path style="stroke:none" d="M 10.625 -3.46875 C 11.144531 -3.46875 11.710938 -3.550781 12.328125 -3.71875 C 12.941406 -3.882812 13.472656 -4.15625 13.921875 -4.53125 C 14.367188 -4.914062 14.59375 -5.4375 14.59375 -6.09375 C 14.59375 -6.707031 14.359375 -7.203125 13.890625 -7.578125 C 13.421875 -7.953125 12.800781 -8.257812 12.03125 -8.5 C 11.269531 -8.738281 10.4375 -8.960938 9.53125 -9.171875 C 8.625 -9.378906 7.707031 -9.628906 6.78125 -9.921875 C 5.863281 -10.210938 5.019531 -10.597656 4.25 -11.078125 C 3.488281 -11.566406 2.875 -12.191406 2.40625 -12.953125 C 1.9375 -13.722656 1.703125 -14.695312 1.703125 -15.875 C 1.703125 -17.03125 1.941406 -18.03125 2.421875 -18.875 C 2.910156 -19.71875 3.550781 -20.414062 4.34375 -20.96875 C 5.144531 -21.53125 6.039062 -21.945312 7.03125 -22.21875 C 8.03125 -22.488281 9.03125 -22.625 10.03125 -22.625 C 11.5625 -22.625 12.992188 -22.382812 14.328125 -21.90625 C 15.660156 -21.425781 16.75 -20.664062 17.59375 -19.625 C 18.4375 -18.59375 18.878906 -17.222656 18.921875 -15.515625 L 14.171875 -15.515625 C 14.035156 -16.671875 13.628906 -17.472656 12.953125 -17.921875 C 12.273438 -18.367188 11.320312 -18.59375 10.09375 -18.59375 C 9.632812 -18.59375 9.148438 -18.515625 8.640625 -18.359375 C 8.128906 -18.210938 7.691406 -17.96875 7.328125 -17.625 C 6.960938 -17.289062 6.78125 -16.835938 6.78125 -16.265625 C 6.78125 -15.703125 7.015625 -15.253906 7.484375 -14.921875 C 7.960938 -14.597656 8.582031 -14.328125 9.34375 -14.109375 C 10.113281 -13.890625 10.957031 -13.679688 11.875 -13.484375 C 12.789062 -13.285156 13.703125 -13.039062 14.609375 -12.75 C 15.515625 -12.46875 16.347656 -12.082031 17.109375 -11.59375 C 17.878906 -11.101562 18.5 -10.460938 18.96875 -9.671875 C 19.4375 -8.890625 19.671875 -7.882812 19.671875 -6.65625 C 19.671875 -5.34375 19.410156 -4.226562 18.890625 -3.3125 C 18.367188 -2.394531 17.664062 -1.65625 16.78125 -1.09375 C 15.894531 -0.539062 14.898438 -0.132812 13.796875 0.125 C 12.691406 0.394531 11.566406 0.53125 10.421875 0.53125 C 8.785156 0.53125 7.25 0.253906 5.8125 -0.296875 C 4.382812 -0.859375 3.226562 -1.71875 2.34375 -2.875 C 1.457031 -4.039062 1.003906 -5.53125 0.984375 -7.34375 L 5.96875 -7.34375 C 6.03125 -6.007812 6.519531 -5.03125 7.4375 -4.40625 C 8.363281 -3.78125 9.425781 -3.46875 10.625 -3.46875 Z M 10.625 -3.46875 "/></g></g><g style="fill:#62e1e9;fill-opacity:1;"><g transform="translate(135.539023, 241.048227)"><path style="stroke:none" d="M 14.109375 -8.53125 L 11.28125 -16.46875 L 8.46875 -8.53125 Z M 22.4375 0 L 17.15625 0 L 15.546875 -4.5 L 7.046875 -4.5 L 5.4375 0 L 0.15625 0 L 9.21875 -22.296875 L 13.375 -22.296875 Z M 22.4375 0 "/></g></g><g style="fill:#62e1e9;fill-opacity:1;"><g transform="translate(159.574041, 241.048227)"><path style="stroke:none" d="M 18.078125 -7.578125 L 23.546875 -7.578125 C 23.046875 -6.046875 22.257812 -4.679688 21.1875 -3.484375 C 20.113281 -2.296875 18.84375 -1.363281 17.375 -0.6875 C 15.914062 -0.0078125 14.332031 0.328125 12.625 0.328125 C 11.050781 0.328125 9.566406 0.0351562 8.171875 -0.546875 C 6.785156 -1.140625 5.5625 -1.96875 4.5 -3.03125 C 3.445312 -4.09375 2.625 -5.316406 2.03125 -6.703125 C 1.4375 -8.097656 1.140625 -9.582031 1.140625 -11.15625 C 1.140625 -12.726562 1.4375 -14.207031 2.03125 -15.59375 C 2.625 -16.976562 3.445312 -18.203125 4.5 -19.265625 C 5.5625 -20.328125 6.785156 -21.148438 8.171875 -21.734375 C 9.566406 -22.328125 11.050781 -22.625 12.625 -22.625 C 14.332031 -22.625 15.910156 -22.285156 17.359375 -21.609375 C 18.816406 -20.929688 20.082031 -20.007812 21.15625 -18.84375 C 22.226562 -17.675781 23.015625 -16.328125 23.515625 -14.796875 L 18.03125 -14.796875 C 17.570312 -15.796875 16.835938 -16.582031 15.828125 -17.15625 C 14.828125 -17.738281 13.757812 -18.03125 12.625 -18.03125 C 11.425781 -18.03125 10.332031 -17.71875 9.34375 -17.09375 C 8.363281 -16.476562 7.582031 -15.648438 7 -14.609375 C 6.425781 -13.566406 6.140625 -12.414062 6.140625 -11.15625 C 6.140625 -9.882812 6.425781 -8.726562 7 -7.6875 C 7.582031 -6.65625 8.363281 -5.828125 9.34375 -5.203125 C 10.332031 -4.578125 11.425781 -4.265625 12.625 -4.265625 C 13.78125 -4.265625 14.859375 -4.566406 15.859375 -5.171875 C 16.867188 -5.785156 17.609375 -6.585938 18.078125 -7.578125 Z M 18.078125 -7.578125 "/></g></g><g style="fill:#62e1e9;fill-opacity:1;"><g transform="translate(185.379665, 241.048227)"><path style="stroke:none" d="M 19.1875 -11.1875 C 19.1875 -12.34375 18.878906 -13.414062 18.265625 -14.40625 C 17.648438 -15.40625 16.84375 -16.210938 15.84375 -16.828125 C 14.851562 -17.441406 13.78125 -17.75 12.625 -17.75 C 11.488281 -17.75 10.414062 -17.441406 9.40625 -16.828125 C 8.40625 -16.210938 7.597656 -15.40625 6.984375 -14.40625 C 6.367188 -13.414062 6.0625 -12.34375 6.0625 -11.1875 C 6.0625 -10.050781 6.367188 -8.976562 6.984375 -7.96875 C 7.597656 -6.96875 8.40625 -6.15625 9.40625 -5.53125 C 10.414062 -4.90625 11.488281 -4.59375 12.625 -4.59375 C 13.78125 -4.59375 14.851562 -4.90625 15.84375 -5.53125 C 16.84375 -6.15625 17.648438 -6.96875 18.265625 -7.96875 C 18.878906 -8.976562 19.1875 -10.050781 19.1875 -11.1875 Z M 24.109375 -11.15625 C 24.109375 -9.625 23.800781 -8.160156 23.1875 -6.765625 C 22.570312 -5.378906 21.734375 -4.15625 20.671875 -3.09375 C 19.617188 -2.039062 18.398438 -1.207031 17.015625 -0.59375 C 15.640625 0.0195312 14.175781 0.328125 12.625 0.328125 C 11.09375 0.328125 9.632812 0.0195312 8.25 -0.59375 C 6.863281 -1.207031 5.640625 -2.039062 4.578125 -3.09375 C 3.515625 -4.15625 2.675781 -5.378906 2.0625 -6.765625 C 1.445312 -8.160156 1.140625 -9.625 1.140625 -11.15625 C 1.140625 -12.707031 1.445312 -14.171875 2.0625 -15.546875 C 2.675781 -16.921875 3.515625 -18.140625 4.578125 -19.203125 C 5.640625 -20.265625 6.863281 -21.097656 8.25 -21.703125 C 9.632812 -22.316406 11.09375 -22.625 12.625 -22.625 C 14.175781 -22.625 15.640625 -22.316406 17.015625 -21.703125 C 18.398438 -21.097656 19.617188 -20.265625 20.671875 -19.203125 C 21.734375 -18.140625 22.570312 -16.921875 23.1875 -15.546875 C 23.800781 -14.171875 24.109375 -12.707031 24.109375 -11.15625 Z M 24.109375 -11.15625 "/></g></g><g style="fill:#62e1e9;fill-opacity:1;"><g transform="translate(212.070592, 241.048227)"><path style="stroke:none" d="M 6.828125 -4.53125 L 8.296875 -4.53125 C 9.566406 -4.53125 10.675781 -4.820312 11.625 -5.40625 C 12.570312 -6 13.3125 -6.796875 13.84375 -7.796875 C 14.382812 -8.804688 14.65625 -9.925781 14.65625 -11.15625 C 14.65625 -12.394531 14.382812 -13.507812 13.84375 -14.5 C 13.3125 -15.5 12.570312 -16.289062 11.625 -16.875 C 10.675781 -17.457031 9.566406 -17.75 8.296875 -17.75 L 6.828125 -17.75 Z M 1.96875 -22.296875 L 8.59375 -22.296875 C 10.164062 -22.296875 11.625 -22.007812 12.96875 -21.4375 C 14.3125 -20.875 15.484375 -20.085938 16.484375 -19.078125 C 17.492188 -18.078125 18.273438 -16.898438 18.828125 -15.546875 C 19.390625 -14.191406 19.671875 -12.726562 19.671875 -11.15625 C 19.671875 -9.582031 19.390625 -8.113281 18.828125 -6.75 C 18.273438 -5.394531 17.5 -4.210938 16.5 -3.203125 C 15.507812 -2.203125 14.335938 -1.414062 12.984375 -0.84375 C 11.628906 -0.28125 10.164062 0 8.59375 0 L 1.96875 0 Z M 1.96875 -22.296875 "/></g></g><g style="fill:#62e1e9;fill-opacity:1;"><g transform="translate(234.33498, 241.048227)"><path style="stroke:none" d="M 14.890625 -4.453125 L 14.890625 0 L 1.96875 0 L 1.96875 -22.296875 L 14.890625 -22.296875 L 14.890625 -17.84375 L 6.890625 -17.84375 L 6.890625 -13.40625 L 14.5625 -13.40625 L 14.5625 -8.953125 L 6.890625 -8.953125 L 6.890625 -4.453125 Z M 14.890625 -4.453125 "/></g></g><g style="fill:#62e1e9;fill-opacity:1;"><g transform="translate(252.631907, 241.048227)"><path style="stroke:none" d="M 10.625 -3.46875 C 11.144531 -3.46875 11.710938 -3.550781 12.328125 -3.71875 C 12.941406 -3.882812 13.472656 -4.15625 13.921875 -4.53125 C 14.367188 -4.914062 14.59375 -5.4375 14.59375 -6.09375 C 14.59375 -6.707031 14.359375 -7.203125 13.890625 -7.578125 C 13.421875 -7.953125 12.800781 -8.257812 12.03125 -8.5 C 11.269531 -8.738281 10.4375 -8.960938 9.53125 -9.171875 C 8.625 -9.378906 7.707031 -9.628906 6.78125 -9.921875 C 5.863281 -10.210938 5.019531 -10.597656 4.25 -11.078125 C 3.488281 -11.566406 2.875 -12.191406 2.40625 -12.953125 C 1.9375 -13.722656 1.703125 -14.695312 1.703125 -15.875 C 1.703125 -17.03125 1.941406 -18.03125 2.421875 -18.875 C 2.910156 -19.71875 3.550781 -20.414062 4.34375 -20.96875 C 5.144531 -21.53125 6.039062 -21.945312 7.03125 -22.21875 C 8.03125 -22.488281 9.03125 -22.625 10.03125 -22.625 C 11.5625 -22.625 12.992188 -22.382812 14.328125 -21.90625 C 15.660156 -21.425781 16.75 -20.664062 17.59375 -19.625 C 18.4375 -18.59375 18.878906 -17.222656 18.921875 -15.515625 L 14.171875 -15.515625 C 14.035156 -16.671875 13.628906 -17.472656 12.953125 -17.921875 C 12.273438 -18.367188 11.320312 -18.59375 10.09375 -18.59375 C 9.632812 -18.59375 9.148438 -18.515625 8.640625 -18.359375 C 8.128906 -18.210938 7.691406 -17.96875 7.328125 -17.625 C 6.960938 -17.289062 6.78125 -16.835938 6.78125 -16.265625 C 6.78125 -15.703125 7.015625 -15.253906 7.484375 -14.921875 C 7.960938 -14.597656 8.582031 -14.328125 9.34375 -14.109375 C 10.113281 -13.890625 10.957031 -13.679688 11.875 -13.484375 C 12.789062 -13.285156 13.703125 -13.039062 14.609375 -12.75 C 15.515625 -12.46875 16.347656 -12.082031 17.109375 -11.59375 C 17.878906 -11.101562 18.5 -10.460938 18.96875 -9.671875 C 19.4375 -8.890625 19.671875 -7.882812 19.671875 -6.65625 C 19.671875 -5.34375 19.410156 -4.226562 18.890625 -3.3125 C 18.367188 -2.394531 17.664062 -1.65625 16.78125 -1.09375 C 15.894531 -0.539062 14.898438 -0.132812 13.796875 0.125 C 12.691406 0.394531 11.566406 0.53125 10.421875 0.53125 C 8.785156 0.53125 7.25 0.253906 5.8125 -0.296875 C 4.382812 -0.859375 3.226562 -1.71875 2.34375 -2.875 C 1.457031 -4.039062 1.003906 -5.53125 0.984375 -7.34375 L 5.96875 -7.34375 C 6.03125 -6.007812 6.519531 -5.03125 7.4375 -4.40625 C 8.363281 -3.78125 9.425781 -3.46875 10.625 -3.46875 Z M 10.625 -3.46875 "/></g></g><g style="fill:#62e1e9;fill-opacity:1;"><g transform="translate(274.732347, 241.048227)"><path style="stroke:none" d="M 1.703125 -2.53125 C 1.703125 -3.332031 1.976562 -4.007812 2.53125 -4.5625 C 3.09375 -5.125 3.78125 -5.40625 4.59375 -5.40625 C 5.375 -5.40625 6.050781 -5.125 6.625 -4.5625 C 7.195312 -4.007812 7.484375 -3.332031 7.484375 -2.53125 C 7.484375 -1.738281 7.195312 -1.0625 6.625 -0.5 C 6.050781 0.0507812 5.375 0.328125 4.59375 0.328125 C 3.78125 0.328125 3.09375 0.0507812 2.53125 -0.5 C 1.976562 -1.0625 1.703125 -1.738281 1.703125 -2.53125 Z M 1.703125 -2.53125 "/></g></g><g style="fill:#62e1e9;fill-opacity:1;"><g transform="translate(285.356629, 241.048227)"><path style="stroke:none" d="M 6.828125 -4.53125 L 8.296875 -4.53125 C 9.566406 -4.53125 10.675781 -4.820312 11.625 -5.40625 C 12.570312 -6 13.3125 -6.796875 13.84375 -7.796875 C 14.382812 -8.804688 14.65625 -9.925781 14.65625 -11.15625 C 14.65625 -12.394531 14.382812 -13.507812 13.84375 -14.5 C 13.3125 -15.5 12.570312 -16.289062 11.625 -16.875 C 10.675781 -17.457031 9.566406 -17.75 8.296875 -17.75 L 6.828125 -17.75 Z M 1.96875 -22.296875 L 8.59375 -22.296875 C 10.164062 -22.296875 11.625 -22.007812 12.96875 -21.4375 C 14.3125 -20.875 15.484375 -20.085938 16.484375 -19.078125 C 17.492188 -18.078125 18.273438 -16.898438 18.828125 -15.546875 C 19.390625 -14.191406 19.671875 -12.726562 19.671875 -11.15625 C 19.671875 -9.582031 19.390625 -8.113281 18.828125 -6.75 C 18.273438 -5.394531 17.5 -4.210938 16.5 -3.203125 C 15.507812 -2.203125 14.335938 -1.414062 12.984375 -0.84375 C 11.628906 -0.28125 10.164062 0 8.59375 0 L 1.96875 0 Z M 1.96875 -22.296875 "/></g></g><g style="fill:#62e1e9;fill-opacity:1;"><g transform="translate(307.621017, 241.048227)"><path style="stroke:none" d="M 14.890625 -4.453125 L 14.890625 0 L 1.96875 0 L 1.96875 -22.296875 L 14.890625 -22.296875 L 14.890625 -17.84375 L 6.890625 -17.84375 L 6.890625 -13.40625 L 14.5625 -13.40625 L 14.5625 -8.953125 L 6.890625 -8.953125 L 6.890625 -4.453125 Z M 14.890625 -4.453125 "/></g></g><g style="fill:#62e1e9;fill-opacity:1;"><g transform="translate(325.917944, 241.048227)"><path style="stroke:none" d="M 22.4375 -22.296875 L 13.40625 0 L 9.1875 0 L 0.15625 -22.296875 L 5.484375 -22.296875 L 10.0625 -9.78125 L 11.28125 -6.265625 L 12.5 -9.78125 L 17.125 -22.296875 Z M 22.4375 -22.296875 "/></g></g></g></svg>