<svg xmlns="http://www.w3.org/2000/svg" xmlns:xlink="http://www.w3.org/1999/xlink" width="500" zoomAndPan="magnify" viewBox="0 0 375 374.999991" height="500" preserveAspectRatio="xMidYMid meet" version="1.2"><defs><clipPath id="c02f2dc612"><path d="M 107.613281 133 L 188 133 L 188 203.980469 L 107.613281 203.980469 Z M 107.613281 133 "/></clipPath><clipPath id="17b6a452f2"><path d="M 187 96.730469 L 267.363281 96.730469 L 267.363281 168 L 187 168 Z M 187 96.730469 "/></clipPath></defs><g id="c1697b469f"><g clip-rule="nonzero" clip-path="url(#c02f2dc612)"><path style=" stroke:none;fill-rule:nonzero;fill:#0097b2;fill-opacity:1;" d="M 161.316406 183.4375 L 161.316406 193.144531 L 117.351562 172.722656 L 117.351562 164.84375 L 161.316406 144.417969 L 161.316406 154.128906 L 128.066406 168.691406 L 128.066406 168.875 Z M 187.425781 133.628906 L 113.902344 133.628906 C 110.433594 133.628906 107.617188 136.445312 107.617188 139.917969 L 107.617188 197.648438 C 107.617188 201.121094 110.433594 203.933594 113.902344 203.933594 L 167.019531 203.933594 L 187.425781 133.628906 "/></g><g clip-rule="nonzero" clip-path="url(#17b6a452f2)"><path style=" stroke:none;fill-rule:nonzero;fill:#62e1e9;fill-opacity:1;" d="M 257.382812 136.128906 L 213.421875 156.277344 L 213.421875 146.566406 L 247.402344 132.007812 L 247.402344 131.824219 L 213.421875 117.257812 L 213.421875 107.550781 L 257.382812 127.699219 Z M 207.839844 96.761719 L 187.425781 167.066406 L 260.832031 167.066406 C 264.304688 167.066406 267.117188 164.253906 267.117188 160.78125 L 267.117188 103.046875 C 267.117188 99.578125 264.304688 96.761719 260.832031 96.761719 L 207.839844 96.761719 "/></g><g style="fill:#62e1e9;fill-opacity:1;"><g transform="translate(95.760725, 240.298167)"><path style="stroke:none" d="M 0.328125 0 L 3.765625 0 L 4.421875 -4.921875 L 7.84375 -4.921875 L 8.5 0 L 11.9375 0 L 8.296875 -24.109375 L 3.96875 -24.109375 Z M 6.328125 -16.265625 L 7.34375 -8.65625 L 4.921875 -8.65625 L 5.9375 -16.265625 L 6.03125 -16.890625 L 6.234375 -16.890625 Z M 6.328125 -16.265625 "/></g></g><g style="fill:#62e1e9;fill-opacity:1;"><g transform="translate(109.467163, 240.298167)"><path style="stroke:none" d="M 1.3125 -24.109375 L 1.3125 0 L 9.546875 0 L 9.546875 -3.28125 L 4.859375 -3.28125 L 4.859375 -24.109375 Z M 1.3125 -24.109375 "/></g></g><g style="fill:#62e1e9;fill-opacity:1;"><g transform="translate(120.583267, 240.298167)"><path style="stroke:none" d="M 5.484375 -16.390625 L 3.703125 -24.109375 L 0.234375 -24.109375 L 3.84375 -10.265625 L 3.84375 0 L 7.375 0 L 7.375 -10.265625 L 10.984375 -24.109375 L 7.515625 -24.109375 L 5.734375 -16.390625 L 5.640625 -16.171875 L 5.578125 -16.171875 Z M 5.484375 -16.390625 "/></g></g><g style="fill:#62e1e9;fill-opacity:1;"><g transform="translate(133.240454, 240.298167)"><path style="stroke:none" d="M 7.1875 -17.640625 L 10.65625 -17.96875 C 10.65625 -18.644531 10.59375 -19.359375 10.46875 -20.109375 C 10.351562 -20.867188 10.125 -21.578125 9.78125 -22.234375 C 9.425781 -22.867188 8.925781 -23.390625 8.28125 -23.796875 C 7.632812 -24.203125 6.773438 -24.394531 5.703125 -24.375 C 4.867188 -24.34375 4.15625 -24.15625 3.5625 -23.8125 C 2.976562 -23.476562 2.5 -23.050781 2.125 -22.53125 C 1.757812 -21.988281 1.492188 -21.378906 1.328125 -20.703125 C 1.160156 -20.035156 1.078125 -19.378906 1.078125 -18.734375 C 1.078125 -18.078125 1.175781 -17.429688 1.375 -16.796875 C 1.726562 -15.546875 2.304688 -14.296875 3.109375 -13.046875 C 3.503906 -12.441406 3.890625 -11.863281 4.265625 -11.3125 C 4.640625 -10.769531 5 -10.242188 5.34375 -9.734375 C 5.519531 -9.492188 5.675781 -9.253906 5.8125 -9.015625 C 5.957031 -8.773438 6.109375 -8.535156 6.265625 -8.296875 C 6.523438 -7.816406 6.742188 -7.351562 6.921875 -6.90625 C 7.097656 -6.457031 7.1875 -6.035156 7.1875 -5.640625 C 7.1875 -4.878906 7.078125 -4.242188 6.859375 -3.734375 C 6.640625 -3.234375 6.265625 -2.984375 5.734375 -2.984375 C 5.367188 -2.984375 5.078125 -3.101562 4.859375 -3.34375 C 4.640625 -3.582031 4.472656 -3.898438 4.359375 -4.296875 C 4.234375 -4.671875 4.148438 -5.101562 4.109375 -5.59375 C 4.078125 -6.082031 4.0625 -6.578125 4.0625 -7.078125 L 0.59375 -6.75 C 0.59375 -5.851562 0.648438 -4.984375 0.765625 -4.140625 C 0.890625 -3.304688 1.125 -2.5625 1.46875 -1.90625 C 1.84375 -1.25 2.363281 -0.722656 3.03125 -0.328125 C 3.695312 0.0664062 4.597656 0.265625 5.734375 0.265625 C 6.703125 0.265625 7.5 0.0976562 8.125 -0.234375 C 8.757812 -0.578125 9.265625 -1.023438 9.640625 -1.578125 C 10.015625 -2.140625 10.273438 -2.78125 10.421875 -3.5 C 10.578125 -4.226562 10.65625 -5 10.65625 -5.8125 C 10.65625 -6.457031 10.554688 -7.09375 10.359375 -7.71875 C 10.160156 -8.34375 9.910156 -8.960938 9.609375 -9.578125 C 9.304688 -10.191406 8.957031 -10.800781 8.5625 -11.40625 C 8.164062 -12.019531 7.757812 -12.632812 7.34375 -13.25 C 7 -13.75 6.660156 -14.238281 6.328125 -14.71875 C 6.003906 -15.207031 5.707031 -15.679688 5.4375 -16.140625 C 5.175781 -16.597656 4.960938 -17.039062 4.796875 -17.46875 C 4.640625 -17.894531 4.5625 -18.316406 4.5625 -18.734375 C 4.5625 -19.429688 4.644531 -20 4.8125 -20.4375 C 4.988281 -20.875 5.304688 -21.101562 5.765625 -21.125 C 6.054688 -21.125 6.289062 -21.019531 6.46875 -20.8125 C 6.65625 -20.601562 6.804688 -20.332031 6.921875 -20 C 7.023438 -19.65625 7.09375 -19.273438 7.125 -18.859375 C 7.164062 -18.441406 7.1875 -18.035156 7.1875 -17.640625 Z M 7.1875 -17.640625 "/></g></g><g style="fill:#62e1e9;fill-opacity:1;"><g transform="translate(145.930441, 240.298167)"><path style="stroke:none" d="M 7.1875 -17.640625 L 10.65625 -17.96875 C 10.65625 -18.644531 10.59375 -19.359375 10.46875 -20.109375 C 10.351562 -20.867188 10.125 -21.578125 9.78125 -22.234375 C 9.425781 -22.867188 8.925781 -23.390625 8.28125 -23.796875 C 7.632812 -24.203125 6.773438 -24.394531 5.703125 -24.375 C 4.867188 -24.34375 4.15625 -24.15625 3.5625 -23.8125 C 2.976562 -23.476562 2.5 -23.050781 2.125 -22.53125 C 1.757812 -21.988281 1.492188 -21.378906 1.328125 -20.703125 C 1.160156 -20.035156 1.078125 -19.378906 1.078125 -18.734375 C 1.078125 -18.078125 1.175781 -17.429688 1.375 -16.796875 C 1.726562 -15.546875 2.304688 -14.296875 3.109375 -13.046875 C 3.503906 -12.441406 3.890625 -11.863281 4.265625 -11.3125 C 4.640625 -10.769531 5 -10.242188 5.34375 -9.734375 C 5.519531 -9.492188 5.675781 -9.253906 5.8125 -9.015625 C 5.957031 -8.773438 6.109375 -8.535156 6.265625 -8.296875 C 6.523438 -7.816406 6.742188 -7.351562 6.921875 -6.90625 C 7.097656 -6.457031 7.1875 -6.035156 7.1875 -5.640625 C 7.1875 -4.878906 7.078125 -4.242188 6.859375 -3.734375 C 6.640625 -3.234375 6.265625 -2.984375 5.734375 -2.984375 C 5.367188 -2.984375 5.078125 -3.101562 4.859375 -3.34375 C 4.640625 -3.582031 4.472656 -3.898438 4.359375 -4.296875 C 4.234375 -4.671875 4.148438 -5.101562 4.109375 -5.59375 C 4.078125 -6.082031 4.0625 -6.578125 4.0625 -7.078125 L 0.59375 -6.75 C 0.59375 -5.851562 0.648438 -4.984375 0.765625 -4.140625 C 0.890625 -3.304688 1.125 -2.5625 1.46875 -1.90625 C 1.84375 -1.25 2.363281 -0.722656 3.03125 -0.328125 C 3.695312 0.0664062 4.597656 0.265625 5.734375 0.265625 C 6.703125 0.265625 7.5 0.0976562 8.125 -0.234375 C 8.757812 -0.578125 9.265625 -1.023438 9.640625 -1.578125 C 10.015625 -2.140625 10.273438 -2.78125 10.421875 -3.5 C 10.578125 -4.226562 10.65625 -5 10.65625 -5.8125 C 10.65625 -6.457031 10.554688 -7.09375 10.359375 -7.71875 C 10.160156 -8.34375 9.910156 -8.960938 9.609375 -9.578125 C 9.304688 -10.191406 8.957031 -10.800781 8.5625 -11.40625 C 8.164062 -12.019531 7.757812 -12.632812 7.34375 -13.25 C 7 -13.75 6.660156 -14.238281 6.328125 -14.71875 C 6.003906 -15.207031 5.707031 -15.679688 5.4375 -16.140625 C 5.175781 -16.597656 4.960938 -17.039062 4.796875 -17.46875 C 4.640625 -17.894531 4.5625 -18.316406 4.5625 -18.734375 C 4.5625 -19.429688 4.644531 -20 4.8125 -20.4375 C 4.988281 -20.875 5.304688 -21.101562 5.765625 -21.125 C 6.054688 -21.125 6.289062 -21.019531 6.46875 -20.8125 C 6.65625 -20.601562 6.804688 -20.332031 6.921875 -20 C 7.023438 -19.65625 7.09375 -19.273438 7.125 -18.859375 C 7.164062 -18.441406 7.1875 -18.035156 7.1875 -17.640625 Z M 7.1875 -17.640625 "/></g></g><g style="fill:#62e1e9;fill-opacity:1;"><g transform="translate(158.620427, 240.298167)"><path style="stroke:none" d="M 0.328125 0 L 3.765625 0 L 4.421875 -4.921875 L 7.84375 -4.921875 L 8.5 0 L 11.9375 0 L 8.296875 -24.109375 L 3.96875 -24.109375 Z M 6.328125 -16.265625 L 7.34375 -8.65625 L 4.921875 -8.65625 L 5.9375 -16.265625 L 6.03125 -16.890625 L 6.234375 -16.890625 Z M 6.328125 -16.265625 "/></g></g><g style="fill:#62e1e9;fill-opacity:1;"><g transform="translate(172.326866, 240.298167)"><path style="stroke:none" d="M 10.53125 -8.265625 L 7.21875 -8.265625 L 7.21875 -4.953125 C 7.21875 -4.554688 7.171875 -4.257812 7.078125 -4.0625 C 6.992188 -3.820312 6.863281 -3.613281 6.6875 -3.4375 C 6.507812 -3.269531 6.238281 -3.1875 5.875 -3.1875 C 5.582031 -3.1875 5.351562 -3.269531 5.1875 -3.4375 C 4.832031 -3.8125 4.644531 -4.316406 4.625 -4.953125 L 4.625 -19.15625 C 4.644531 -19.332031 4.664062 -19.488281 4.6875 -19.625 C 4.707031 -19.769531 4.738281 -19.90625 4.78125 -20.03125 C 4.875 -20.25 5 -20.453125 5.15625 -20.640625 C 5.320312 -20.828125 5.5625 -20.921875 5.875 -20.921875 C 6.238281 -20.921875 6.507812 -20.832031 6.6875 -20.65625 C 7.039062 -20.289062 7.21875 -19.789062 7.21875 -19.15625 L 7.21875 -15.84375 L 10.53125 -15.84375 L 10.53125 -19.15625 C 10.488281 -20.132812 10.289062 -21 9.9375 -21.75 C 9.78125 -22.070312 9.585938 -22.390625 9.359375 -22.703125 C 9.128906 -23.023438 8.851562 -23.304688 8.53125 -23.546875 C 8.195312 -23.785156 7.804688 -23.984375 7.359375 -24.140625 C 6.910156 -24.296875 6.394531 -24.375 5.8125 -24.375 C 5.21875 -24.375 4.691406 -24.296875 4.234375 -24.140625 C 3.773438 -23.984375 3.378906 -23.785156 3.046875 -23.546875 C 2.722656 -23.304688 2.453125 -23.023438 2.234375 -22.703125 C 2.015625 -22.390625 1.828125 -22.070312 1.671875 -21.75 C 1.316406 -21 1.117188 -20.132812 1.078125 -19.15625 L 1.078125 -4.953125 C 1.117188 -3.941406 1.316406 -3.066406 1.671875 -2.328125 C 1.828125 -2.003906 2.015625 -1.6875 2.234375 -1.375 C 2.453125 -1.070312 2.722656 -0.800781 3.046875 -0.5625 C 3.722656 -0.0078125 4.644531 0.265625 5.8125 0.265625 C 6.945312 0.265625 7.851562 -0.0078125 8.53125 -0.5625 C 8.851562 -0.800781 9.128906 -1.070312 9.359375 -1.375 C 9.585938 -1.6875 9.78125 -2.003906 9.9375 -2.328125 C 10.289062 -3.066406 10.488281 -3.941406 10.53125 -4.953125 Z M 10.53125 -8.265625 "/></g></g><g style="fill:#62e1e9;fill-opacity:1;"><g transform="translate(185.115214, 240.298167)"><path style="stroke:none" d="M 10.53125 -4.953125 L 10.53125 -19.15625 C 10.488281 -20.132812 10.289062 -21 9.9375 -21.75 C 9.78125 -22.070312 9.585938 -22.390625 9.359375 -22.703125 C 9.128906 -23.023438 8.851562 -23.304688 8.53125 -23.546875 C 8.195312 -23.785156 7.804688 -23.984375 7.359375 -24.140625 C 6.910156 -24.296875 6.394531 -24.375 5.8125 -24.375 C 5.21875 -24.375 4.691406 -24.296875 4.234375 -24.140625 C 3.773438 -23.984375 3.378906 -23.785156 3.046875 -23.546875 C 2.722656 -23.304688 2.453125 -23.023438 2.234375 -22.703125 C 2.015625 -22.390625 1.828125 -22.070312 1.671875 -21.75 C 1.316406 -21 1.117188 -20.132812 1.078125 -19.15625 L 1.078125 -4.953125 C 1.117188 -3.941406 1.316406 -3.066406 1.671875 -2.328125 C 1.828125 -2.003906 2.015625 -1.6875 2.234375 -1.375 C 2.453125 -1.070312 2.722656 -0.800781 3.046875 -0.5625 C 3.722656 -0.0078125 4.644531 0.265625 5.8125 0.265625 C 6.945312 0.265625 7.851562 -0.0078125 8.53125 -0.5625 C 8.851562 -0.800781 9.128906 -1.070312 9.359375 -1.375 C 9.585938 -1.6875 9.78125 -2.003906 9.9375 -2.328125 C 10.289062 -3.066406 10.488281 -3.941406 10.53125 -4.953125 Z M 6.984375 -19.15625 L 6.984375 -4.953125 C 6.984375 -4.554688 6.941406 -4.257812 6.859375 -4.0625 C 6.785156 -3.820312 6.664062 -3.613281 6.5 -3.4375 C 6.34375 -3.269531 6.113281 -3.1875 5.8125 -3.1875 C 5.519531 -3.1875 5.285156 -3.269531 5.109375 -3.4375 C 4.785156 -3.8125 4.625 -4.316406 4.625 -4.953125 L 4.625 -19.15625 C 4.625 -19.5 4.664062 -19.789062 4.75 -20.03125 C 4.820312 -20.25 4.9375 -20.453125 5.09375 -20.640625 C 5.257812 -20.828125 5.5 -20.921875 5.8125 -20.921875 C 6.113281 -20.921875 6.351562 -20.832031 6.53125 -20.65625 C 6.832031 -20.289062 6.984375 -19.789062 6.984375 -19.15625 Z M 6.984375 -19.15625 "/></g></g><g style="fill:#62e1e9;fill-opacity:1;"><g transform="translate(198.165872, 240.298167)"><path style="stroke:none" d="M 1.3125 0 L 4.09375 0 C 5.738281 0 7.03125 -0.179688 7.96875 -0.546875 C 8.90625 -0.921875 9.613281 -1.570312 10.09375 -2.5 C 10.5625 -3.414062 10.851562 -4.644531 10.96875 -6.1875 C 11.09375 -7.726562 11.15625 -9.675781 11.15625 -12.03125 C 11.15625 -14.394531 11.09375 -16.351562 10.96875 -17.90625 C 10.851562 -19.457031 10.5625 -20.691406 10.09375 -21.609375 C 9.613281 -22.523438 8.90625 -23.171875 7.96875 -23.546875 C 7.03125 -23.921875 5.738281 -24.109375 4.09375 -24.109375 L 1.3125 -24.109375 Z M 4.859375 -3.546875 L 4.859375 -20.5625 C 5.460938 -20.5625 5.945312 -20.488281 6.3125 -20.34375 C 6.675781 -20.207031 6.941406 -19.851562 7.109375 -19.28125 C 7.203125 -19 7.273438 -18.644531 7.328125 -18.21875 C 7.378906 -17.789062 7.414062 -17.289062 7.4375 -16.71875 C 7.46875 -16.15625 7.484375 -15.484375 7.484375 -14.703125 C 7.484375 -13.929688 7.484375 -13.050781 7.484375 -12.0625 C 7.484375 -11.082031 7.484375 -10.203125 7.484375 -9.421875 C 7.484375 -8.648438 7.46875 -7.976562 7.4375 -7.40625 C 7.414062 -6.84375 7.378906 -6.347656 7.328125 -5.921875 C 7.273438 -5.492188 7.203125 -5.140625 7.109375 -4.859375 C 6.941406 -4.265625 6.675781 -3.894531 6.3125 -3.75 C 5.945312 -3.613281 5.460938 -3.546875 4.859375 -3.546875 Z M 4.859375 -3.546875 "/></g></g><g style="fill:#62e1e9;fill-opacity:1;"><g transform="translate(211.806737, 240.298167)"><path style="stroke:none" d="M 1.3125 -24.109375 L 1.3125 0 L 9.40625 0 L 9.40625 -3.640625 L 4.859375 -3.640625 L 4.859375 -10.265625 L 8.140625 -10.265625 L 8.140625 -14.140625 L 4.859375 -14.140625 L 4.859375 -20.46875 L 9.40625 -20.46875 L 9.40625 -24.109375 Z M 1.3125 -24.109375 "/></g></g><g style="fill:#62e1e9;fill-opacity:1;"><g transform="translate(223.316311, 240.298167)"><path style="stroke:none" d="M 7.1875 -17.640625 L 10.65625 -17.96875 C 10.65625 -18.644531 10.59375 -19.359375 10.46875 -20.109375 C 10.351562 -20.867188 10.125 -21.578125 9.78125 -22.234375 C 9.425781 -22.867188 8.925781 -23.390625 8.28125 -23.796875 C 7.632812 -24.203125 6.773438 -24.394531 5.703125 -24.375 C 4.867188 -24.34375 4.15625 -24.15625 3.5625 -23.8125 C 2.976562 -23.476562 2.5 -23.050781 2.125 -22.53125 C 1.757812 -21.988281 1.492188 -21.378906 1.328125 -20.703125 C 1.160156 -20.035156 1.078125 -19.378906 1.078125 -18.734375 C 1.078125 -18.078125 1.175781 -17.429688 1.375 -16.796875 C 1.726562 -15.546875 2.304688 -14.296875 3.109375 -13.046875 C 3.503906 -12.441406 3.890625 -11.863281 4.265625 -11.3125 C 4.640625 -10.769531 5 -10.242188 5.34375 -9.734375 C 5.519531 -9.492188 5.675781 -9.253906 5.8125 -9.015625 C 5.957031 -8.773438 6.109375 -8.535156 6.265625 -8.296875 C 6.523438 -7.816406 6.742188 -7.351562 6.921875 -6.90625 C 7.097656 -6.457031 7.1875 -6.035156 7.1875 -5.640625 C 7.1875 -4.878906 7.078125 -4.242188 6.859375 -3.734375 C 6.640625 -3.234375 6.265625 -2.984375 5.734375 -2.984375 C 5.367188 -2.984375 5.078125 -3.101562 4.859375 -3.34375 C 4.640625 -3.582031 4.472656 -3.898438 4.359375 -4.296875 C 4.234375 -4.671875 4.148438 -5.101562 4.109375 -5.59375 C 4.078125 -6.082031 4.0625 -6.578125 4.0625 -7.078125 L 0.59375 -6.75 C 0.59375 -5.851562 0.648438 -4.984375 0.765625 -4.140625 C 0.890625 -3.304688 1.125 -2.5625 1.46875 -1.90625 C 1.84375 -1.25 2.363281 -0.722656 3.03125 -0.328125 C 3.695312 0.0664062 4.597656 0.265625 5.734375 0.265625 C 6.703125 0.265625 7.5 0.0976562 8.125 -0.234375 C 8.757812 -0.578125 9.265625 -1.023438 9.640625 -1.578125 C 10.015625 -2.140625 10.273438 -2.78125 10.421875 -3.5 C 10.578125 -4.226562 10.65625 -5 10.65625 -5.8125 C 10.65625 -6.457031 10.554688 -7.09375 10.359375 -7.71875 C 10.160156 -8.34375 9.910156 -8.960938 9.609375 -9.578125 C 9.304688 -10.191406 8.957031 -10.800781 8.5625 -11.40625 C 8.164062 -12.019531 7.757812 -12.632812 7.34375 -13.25 C 7 -13.75 6.660156 -14.238281 6.328125 -14.71875 C 6.003906 -15.207031 5.707031 -15.679688 5.4375 -16.140625 C 5.175781 -16.597656 4.960938 -17.039062 4.796875 -17.46875 C 4.640625 -17.894531 4.5625 -18.316406 4.5625 -18.734375 C 4.5625 -19.429688 4.644531 -20 4.8125 -20.4375 C 4.988281 -20.875 5.304688 -21.101562 5.765625 -21.125 C 6.054688 -21.125 6.289062 -21.019531 6.46875 -20.8125 C 6.65625 -20.601562 6.804688 -20.332031 6.921875 -20 C 7.023438 -19.65625 7.09375 -19.273438 7.125 -18.859375 C 7.164062 -18.441406 7.1875 -18.035156 7.1875 -17.640625 Z M 7.1875 -17.640625 "/></g></g><g style="fill:#62e1e9;fill-opacity:1;"><g transform="translate(236.006297, 240.298167)"><path style="stroke:none" d="M 0.859375 -3.640625 L 0.859375 0 L 4.296875 0 L 4.296875 -3.640625 Z M 0.859375 -3.640625 "/></g></g><g style="fill:#62e1e9;fill-opacity:1;"><g transform="translate(242.59751, 240.298167)"><path style="stroke:none" d="M 1.3125 0 L 4.09375 0 C 5.738281 0 7.03125 -0.179688 7.96875 -0.546875 C 8.90625 -0.921875 9.613281 -1.570312 10.09375 -2.5 C 10.5625 -3.414062 10.851562 -4.644531 10.96875 -6.1875 C 11.09375 -7.726562 11.15625 -9.675781 11.15625 -12.03125 C 11.15625 -14.394531 11.09375 -16.351562 10.96875 -17.90625 C 10.851562 -19.457031 10.5625 -20.691406 10.09375 -21.609375 C 9.613281 -22.523438 8.90625 -23.171875 7.96875 -23.546875 C 7.03125 -23.921875 5.738281 -24.109375 4.09375 -24.109375 L 1.3125 -24.109375 Z M 4.859375 -3.546875 L 4.859375 -20.5625 C 5.460938 -20.5625 5.945312 -20.488281 6.3125 -20.34375 C 6.675781 -20.207031 6.941406 -19.851562 7.109375 -19.28125 C 7.203125 -19 7.273438 -18.644531 7.328125 -18.21875 C 7.378906 -17.789062 7.414062 -17.289062 7.4375 -16.71875 C 7.46875 -16.15625 7.484375 -15.484375 7.484375 -14.703125 C 7.484375 -13.929688 7.484375 -13.050781 7.484375 -12.0625 C 7.484375 -11.082031 7.484375 -10.203125 7.484375 -9.421875 C 7.484375 -8.648438 7.46875 -7.976562 7.4375 -7.40625 C 7.414062 -6.84375 7.378906 -6.347656 7.328125 -5.921875 C 7.273438 -5.492188 7.203125 -5.140625 7.109375 -4.859375 C 6.941406 -4.265625 6.675781 -3.894531 6.3125 -3.75 C 5.945312 -3.613281 5.460938 -3.546875 4.859375 -3.546875 Z M 4.859375 -3.546875 "/></g></g><g style="fill:#62e1e9;fill-opacity:1;"><g transform="translate(256.238374, 240.298167)"><path style="stroke:none" d="M 1.3125 -24.109375 L 1.3125 0 L 9.40625 0 L 9.40625 -3.640625 L 4.859375 -3.640625 L 4.859375 -10.265625 L 8.140625 -10.265625 L 8.140625 -14.140625 L 4.859375 -14.140625 L 4.859375 -20.46875 L 9.40625 -20.46875 L 9.40625 -24.109375 Z M 1.3125 -24.109375 "/></g></g><g style="fill:#62e1e9;fill-opacity:1;"><g transform="translate(267.747948, 240.298167)"><path style="stroke:none" d="M 7.734375 -24.109375 L 5.96875 -10.859375 L 5.84375 -9.84375 L 5.640625 -9.84375 L 5.515625 -10.859375 L 3.734375 -24.109375 L 0.296875 -24.109375 L 3.96875 0 L 7.515625 0 L 11.1875 -24.109375 Z M 7.734375 -24.109375 "/></g></g></g></svg>