<svg xmlns="http://www.w3.org/2000/svg" xmlns:xlink="http://www.w3.org/1999/xlink" width="500" zoomAndPan="magnify" viewBox="0 0 375 374.999991" height="500" preserveAspectRatio="xMidYMid meet" version="1.2"><defs><clipPath id="4d9524b855"><path d="M 107.613281 133 L 188 133 L 188 203.980469 L 107.613281 203.980469 Z M 107.613281 133 "/></clipPath><clipPath id="fc3bc9f2e5"><path d="M 187 96.730469 L 267.363281 96.730469 L 267.363281 168 L 187 168 Z M 187 96.730469 "/></clipPath></defs><g id="b675bb0f2d"><g clip-rule="nonzero" clip-path="url(#4d9524b855)"><path style=" stroke:none;fill-rule:nonzero;fill:#0097b2;fill-opacity:1;" d="M 161.316406 183.4375 L 161.316406 193.144531 L 117.351562 172.722656 L 117.351562 164.84375 L 161.316406 144.417969 L 161.316406 154.128906 L 128.066406 168.691406 L 128.066406 168.875 Z M 187.425781 133.628906 L 113.902344 133.628906 C 110.433594 133.628906 107.617188 136.445312 107.617188 139.917969 L 107.617188 197.648438 C 107.617188 201.121094 110.433594 203.933594 113.902344 203.933594 L 167.019531 203.933594 L 187.425781 133.628906 "/></g><g clip-rule="nonzero" clip-path="url(#fc3bc9f2e5)"><path style=" stroke:none;fill-rule:nonzero;fill:#62e1e9;fill-opacity:1;" d="M 257.382812 136.128906 L 213.421875 156.277344 L 213.421875 146.566406 L 247.402344 132.007812 L 247.402344 131.824219 L 213.421875 117.257812 L 213.421875 107.550781 L 257.382812 127.699219 Z M 207.839844 96.761719 L 187.425781 167.066406 L 260.832031 167.066406 C 264.304688 167.066406 267.117188 164.253906 267.117188 160.78125 L 267.117188 103.046875 C 267.117188 99.578125 264.304688 96.761719 260.832031 96.761719 L 207.839844 96.761719 "/></g><g style="fill:#62e1e9;fill-opacity:1;"><g transform="translate(25.073229, 241.04811)"><path style="stroke:none" d="M -0.203125 -1.078125 C 0.347656 -1.078125 0.785156 -1.203125 1.109375 -1.453125 C 1.441406 -1.710938 1.710938 -2.039062 1.921875 -2.4375 C 2.128906 -2.84375 2.375 -3.453125 2.65625 -4.265625 L 2.984375 -5.1875 L 9.734375 -23.578125 L 10.53125 -23.578125 L 17.84375 -4.921875 C 18.082031 -4.328125 18.289062 -3.6875 18.46875 -3 C 18.644531 -2.3125 18.71875 -1.75 18.6875 -1.3125 L 20.921875 -1.4375 L 20.921875 0 L 13.40625 0 L 13.40625 -1.078125 C 14.695312 -1.097656 15.34375 -1.625 15.34375 -2.65625 C 15.34375 -3.070312 15.234375 -3.585938 15.015625 -4.203125 L 13.875 -7.28125 L 5.34375 -7.078125 C 5.019531 -6.179688 4.640625 -5.015625 4.203125 -3.578125 C 3.984375 -2.859375 3.707031 -2.101562 3.375 -1.3125 L 5.9375 -1.4375 L 5.9375 0 L -0.203125 0 Z M 13.40625 -8.5 L 11.078125 -14.765625 L 9.609375 -18.796875 L 9.546875 -18.796875 L 8.171875 -15.09375 L 6.390625 -10.09375 L 5.84375 -8.5 Z M 13.40625 -8.5 "/></g></g><g style="fill:#62e1e9;fill-opacity:1;"><g transform="translate(47.042531, 241.04811)"><path style="stroke:none" d="M 1.796875 -1.078125 C 2.566406 -1.097656 3.113281 -1.269531 3.4375 -1.59375 C 3.769531 -1.925781 3.957031 -2.316406 4 -2.765625 C 4.039062 -3.210938 4.0625 -3.992188 4.0625 -5.109375 L 4.0625 -19.28125 C 4.0625 -20.195312 4.097656 -20.984375 4.171875 -21.640625 L 1.796875 -21.515625 L 1.796875 -22.953125 L 9.1875 -22.953125 L 9.1875 -21.875 C 8.414062 -21.851562 7.863281 -21.675781 7.53125 -21.34375 C 7.207031 -21.019531 7.023438 -20.632812 6.984375 -20.1875 C 6.941406 -19.738281 6.921875 -18.957031 6.921875 -17.84375 L 6.921875 -3.765625 C 6.921875 -2.628906 6.890625 -1.78125 6.828125 -1.21875 L 12.953125 -1.3125 C 14.347656 -1.332031 15.394531 -1.773438 16.09375 -2.640625 C 16.800781 -3.503906 17.15625 -4.882812 17.15625 -6.78125 L 18.265625 -6.78125 L 18.078125 0 L 1.796875 0 Z M 1.796875 -1.078125 "/></g></g><g style="fill:#62e1e9;fill-opacity:1;"><g transform="translate(67.437949, 241.04811)"><path style="stroke:none" d="M 7.046875 -1.078125 C 7.992188 -1.117188 8.601562 -1.378906 8.875 -1.859375 C 9.144531 -2.347656 9.28125 -3.09375 9.28125 -4.09375 L 9.28125 -5.109375 L 9.3125 -8.859375 L 3.609375 -17.875 C 2.597656 -19.425781 2.007812 -20.660156 1.84375 -21.578125 L -0.203125 -21.515625 L -0.203125 -22.953125 L 8.265625 -22.953125 L 8.265625 -21.875 C 6.554688 -21.875 5.703125 -21.394531 5.703125 -20.4375 C 5.703125 -19.863281 5.976562 -19.148438 6.53125 -18.296875 L 7.546875 -16.6875 C 8.941406 -14.414062 10.15625 -12.570312 11.1875 -11.15625 L 11.25 -11.15625 C 12.007812 -12.65625 13.179688 -14.882812 14.765625 -17.84375 L 15.453125 -19.125 C 16.078125 -20.320312 16.597656 -21.148438 17.015625 -21.609375 L 14.4375 -21.515625 L 14.4375 -22.953125 L 21.125 -22.953125 L 21.125 -21.875 C 20.09375 -21.8125 19.234375 -21.460938 18.546875 -20.828125 C 17.859375 -20.191406 17.109375 -19.128906 16.296875 -17.640625 L 12.171875 -9.84375 C 12.148438 -8.769531 12.132812 -7.628906 12.125 -6.421875 C 12.113281 -5.222656 12.117188 -4.382812 12.140625 -3.90625 C 12.140625 -2.75 12.101562 -1.882812 12.03125 -1.3125 L 14.765625 -1.4375 L 14.765625 0 L 7.046875 0 Z M 7.046875 -1.078125 "/></g></g><g style="fill:#62e1e9;fill-opacity:1;"><g transform="translate(89.669561, 241.04811)"><path style="stroke:none" d="M 9.484375 0.53125 C 8.453125 0.53125 7.414062 0.382812 6.375 0.09375 C 5.34375 -0.1875 4.429688 -0.597656 3.640625 -1.140625 L 3.796875 0.265625 L 2.09375 0.265625 L 1.90625 -6.71875 L 3.1875 -6.71875 C 3.289062 -4.84375 3.929688 -3.394531 5.109375 -2.375 C 6.296875 -1.363281 7.796875 -0.859375 9.609375 -0.859375 C 10.941406 -0.859375 12.0625 -1.222656 12.96875 -1.953125 C 13.875 -2.679688 14.328125 -3.679688 14.328125 -4.953125 C 14.328125 -5.890625 14.070312 -6.691406 13.5625 -7.359375 C 13.050781 -8.023438 12.414062 -8.582031 11.65625 -9.03125 C 10.90625 -9.476562 9.882812 -10 8.59375 -10.59375 C 7.125 -11.289062 5.957031 -11.898438 5.09375 -12.421875 C 4.226562 -12.953125 3.488281 -13.648438 2.875 -14.515625 C 2.269531 -15.378906 1.96875 -16.441406 1.96875 -17.703125 C 1.96875 -18.578125 2.171875 -19.453125 2.578125 -20.328125 C 2.984375 -21.203125 3.679688 -21.945312 4.671875 -22.5625 C 5.671875 -23.175781 6.988281 -23.484375 8.625 -23.484375 C 9.601562 -23.484375 10.59375 -23.359375 11.59375 -23.109375 C 12.59375 -22.859375 13.503906 -22.425781 14.328125 -21.8125 L 14.203125 -23.21875 L 15.875 -23.21875 L 15.875 -16 L 14.6875 -16 C 14.582031 -17.726562 14.03125 -19.1875 13.03125 -20.375 C 12.039062 -21.570312 10.648438 -22.171875 8.859375 -22.171875 C 7.546875 -22.171875 6.515625 -21.800781 5.765625 -21.0625 C 5.023438 -20.332031 4.65625 -19.421875 4.65625 -18.328125 C 4.65625 -17.453125 4.90625 -16.695312 5.40625 -16.0625 C 5.914062 -15.4375 6.53125 -14.914062 7.25 -14.5 C 7.96875 -14.082031 8.984375 -13.566406 10.296875 -12.953125 C 11.785156 -12.273438 12.984375 -11.660156 13.890625 -11.109375 C 14.796875 -10.566406 15.566406 -9.851562 16.203125 -8.96875 C 16.835938 -8.082031 17.15625 -6.992188 17.15625 -5.703125 C 17.15625 -4.484375 16.851562 -3.398438 16.25 -2.453125 C 15.644531 -1.515625 14.765625 -0.78125 13.609375 -0.25 C 12.453125 0.269531 11.078125 0.53125 9.484375 0.53125 Z M 9.484375 0.53125 "/></g></g><g style="fill:#62e1e9;fill-opacity:1;"><g transform="translate(109.704307, 241.04811)"><path style="stroke:none" d="M 9.484375 0.53125 C 8.453125 0.53125 7.414062 0.382812 6.375 0.09375 C 5.34375 -0.1875 4.429688 -0.597656 3.640625 -1.140625 L 3.796875 0.265625 L 2.09375 0.265625 L 1.90625 -6.71875 L 3.1875 -6.71875 C 3.289062 -4.84375 3.929688 -3.394531 5.109375 -2.375 C 6.296875 -1.363281 7.796875 -0.859375 9.609375 -0.859375 C 10.941406 -0.859375 12.0625 -1.222656 12.96875 -1.953125 C 13.875 -2.679688 14.328125 -3.679688 14.328125 -4.953125 C 14.328125 -5.890625 14.070312 -6.691406 13.5625 -7.359375 C 13.050781 -8.023438 12.414062 -8.582031 11.65625 -9.03125 C 10.90625 -9.476562 9.882812 -10 8.59375 -10.59375 C 7.125 -11.289062 5.957031 -11.898438 5.09375 -12.421875 C 4.226562 -12.953125 3.488281 -13.648438 2.875 -14.515625 C 2.269531 -15.378906 1.96875 -16.441406 1.96875 -17.703125 C 1.96875 -18.578125 2.171875 -19.453125 2.578125 -20.328125 C 2.984375 -21.203125 3.679688 -21.945312 4.671875 -22.5625 C 5.671875 -23.175781 6.988281 -23.484375 8.625 -23.484375 C 9.601562 -23.484375 10.59375 -23.359375 11.59375 -23.109375 C 12.59375 -22.859375 13.503906 -22.425781 14.328125 -21.8125 L 14.203125 -23.21875 L 15.875 -23.21875 L 15.875 -16 L 14.6875 -16 C 14.582031 -17.726562 14.03125 -19.1875 13.03125 -20.375 C 12.039062 -21.570312 10.648438 -22.171875 8.859375 -22.171875 C 7.546875 -22.171875 6.515625 -21.800781 5.765625 -21.0625 C 5.023438 -20.332031 4.65625 -19.421875 4.65625 -18.328125 C 4.65625 -17.453125 4.90625 -16.695312 5.40625 -16.0625 C 5.914062 -15.4375 6.53125 -14.914062 7.25 -14.5 C 7.96875 -14.082031 8.984375 -13.566406 10.296875 -12.953125 C 11.785156 -12.273438 12.984375 -11.660156 13.890625 -11.109375 C 14.796875 -10.566406 15.566406 -9.851562 16.203125 -8.96875 C 16.835938 -8.082031 17.15625 -6.992188 17.15625 -5.703125 C 17.15625 -4.484375 16.851562 -3.398438 16.25 -2.453125 C 15.644531 -1.515625 14.765625 -0.78125 13.609375 -0.25 C 12.453125 0.269531 11.078125 0.53125 9.484375 0.53125 Z M 9.484375 0.53125 "/></g></g><g style="fill:#62e1e9;fill-opacity:1;"><g transform="translate(129.739054, 241.04811)"><path style="stroke:none" d="M -0.203125 -1.078125 C 0.347656 -1.078125 0.785156 -1.203125 1.109375 -1.453125 C 1.441406 -1.710938 1.710938 -2.039062 1.921875 -2.4375 C 2.128906 -2.84375 2.375 -3.453125 2.65625 -4.265625 L 2.984375 -5.1875 L 9.734375 -23.578125 L 10.53125 -23.578125 L 17.84375 -4.921875 C 18.082031 -4.328125 18.289062 -3.6875 18.46875 -3 C 18.644531 -2.3125 18.71875 -1.75 18.6875 -1.3125 L 20.921875 -1.4375 L 20.921875 0 L 13.40625 0 L 13.40625 -1.078125 C 14.695312 -1.097656 15.34375 -1.625 15.34375 -2.65625 C 15.34375 -3.070312 15.234375 -3.585938 15.015625 -4.203125 L 13.875 -7.28125 L 5.34375 -7.078125 C 5.019531 -6.179688 4.640625 -5.015625 4.203125 -3.578125 C 3.984375 -2.859375 3.707031 -2.101562 3.375 -1.3125 L 5.9375 -1.4375 L 5.9375 0 L -0.203125 0 Z M 13.40625 -8.5 L 11.078125 -14.765625 L 9.609375 -18.796875 L 9.546875 -18.796875 L 8.171875 -15.09375 L 6.390625 -10.09375 L 5.84375 -8.5 Z M 13.40625 -8.5 "/></g></g><g style="fill:#62e1e9;fill-opacity:1;"><g transform="translate(151.708355, 241.04811)"><path style="stroke:none" d="M 12.65625 0.53125 C 10.519531 0.53125 8.601562 0.015625 6.90625 -1.015625 C 5.207031 -2.046875 3.882812 -3.445312 2.9375 -5.21875 C 1.988281 -6.988281 1.515625 -8.957031 1.515625 -11.125 C 1.515625 -13.257812 1.941406 -15.265625 2.796875 -17.140625 C 3.660156 -19.023438 4.953125 -20.550781 6.671875 -21.71875 C 8.390625 -22.894531 10.460938 -23.484375 12.890625 -23.484375 C 15.296875 -23.484375 17.503906 -22.816406 19.515625 -21.484375 L 19.34375 -23.25 L 21.125 -23.25 L 21.125 -15.640625 L 19.9375 -15.640625 C 19.71875 -17.671875 19 -19.257812 17.78125 -20.40625 C 16.570312 -21.5625 15.019531 -22.140625 13.125 -22.140625 C 11.570312 -22.140625 10.15625 -21.707031 8.875 -20.84375 C 7.59375 -19.976562 6.578125 -18.75 5.828125 -17.15625 C 5.085938 -15.5625 4.71875 -13.710938 4.71875 -11.609375 C 4.71875 -9.597656 5.109375 -7.800781 5.890625 -6.21875 C 6.679688 -4.632812 7.742188 -3.398438 9.078125 -2.515625 C 10.410156 -1.628906 11.890625 -1.1875 13.515625 -1.1875 C 14.972656 -1.1875 16.378906 -1.515625 17.734375 -2.171875 C 19.097656 -2.828125 20.21875 -3.753906 21.09375 -4.953125 L 21.9375 -4.265625 C 20.664062 -2.492188 19.210938 -1.25 17.578125 -0.53125 C 15.941406 0.175781 14.300781 0.53125 12.65625 0.53125 Z M 12.65625 0.53125 "/></g></g><g style="fill:#62e1e9;fill-opacity:1;"><g transform="translate(176.071257, 241.04811)"><path style="stroke:none" d="M 13.1875 0.53125 C 10.5625 0.53125 8.375 -0.046875 6.625 -1.203125 C 4.875 -2.367188 3.582031 -3.863281 2.75 -5.6875 C 1.925781 -7.507812 1.515625 -9.441406 1.515625 -11.484375 C 1.515625 -13.421875 1.941406 -15.304688 2.796875 -17.140625 C 3.660156 -18.984375 4.953125 -20.5 6.671875 -21.6875 C 8.390625 -22.882812 10.472656 -23.484375 12.921875 -23.484375 C 15.429688 -23.484375 17.566406 -22.882812 19.328125 -21.6875 C 21.085938 -20.5 22.40625 -18.984375 23.28125 -17.140625 C 24.15625 -15.304688 24.59375 -13.421875 24.59375 -11.484375 C 24.59375 -9.554688 24.160156 -7.664062 23.296875 -5.8125 C 22.429688 -3.96875 21.140625 -2.445312 19.421875 -1.25 C 17.710938 -0.0625 15.632812 0.53125 13.1875 0.53125 Z M 13.25 -0.8125 C 14.957031 -0.8125 16.414062 -1.296875 17.625 -2.265625 C 18.84375 -3.242188 19.757812 -4.5 20.375 -6.03125 C 21 -7.5625 21.3125 -9.171875 21.3125 -10.859375 C 21.3125 -12.710938 20.972656 -14.507812 20.296875 -16.25 C 19.617188 -17.988281 18.632812 -19.410156 17.34375 -20.515625 C 16.0625 -21.617188 14.554688 -22.171875 12.828125 -22.171875 C 11.117188 -22.171875 9.648438 -21.679688 8.421875 -20.703125 C 7.203125 -19.734375 6.28125 -18.472656 5.65625 -16.921875 C 5.03125 -15.367188 4.71875 -13.75 4.71875 -12.0625 C 4.71875 -10.34375 5.035156 -8.613281 5.671875 -6.875 C 6.304688 -5.132812 7.269531 -3.6875 8.5625 -2.53125 C 9.851562 -1.382812 11.414062 -0.8125 13.25 -0.8125 Z M 13.25 -0.8125 "/></g></g><g style="fill:#62e1e9;fill-opacity:1;"><g transform="translate(203.549126, 241.04811)"><path style="stroke:none" d="M 1.796875 -1.078125 C 2.566406 -1.097656 3.113281 -1.269531 3.4375 -1.59375 C 3.769531 -1.925781 3.957031 -2.316406 4 -2.765625 C 4.039062 -3.210938 4.0625 -3.992188 4.0625 -5.109375 L 4.0625 -19.28125 C 4.0625 -20.195312 4.097656 -20.984375 4.171875 -21.640625 L 1.796875 -21.515625 L 1.796875 -22.953125 L 9.546875 -22.984375 C 13.648438 -23.003906 16.90625 -22.039062 19.3125 -20.09375 C 21.71875 -18.15625 22.921875 -15.273438 22.921875 -11.453125 C 22.921875 -9.390625 22.4375 -7.484375 21.46875 -5.734375 C 20.507812 -3.984375 19.085938 -2.585938 17.203125 -1.546875 C 15.328125 -0.515625 13.066406 0 10.421875 0 L 1.796875 0 Z M 10.328125 -1.25 C 12.171875 -1.25 13.800781 -1.695312 15.21875 -2.59375 C 16.632812 -3.488281 17.734375 -4.722656 18.515625 -6.296875 C 19.304688 -7.867188 19.703125 -9.628906 19.703125 -11.578125 C 19.703125 -14.765625 18.828125 -17.257812 17.078125 -19.0625 C 15.335938 -20.875 12.707031 -21.78125 9.1875 -21.78125 C 8.414062 -21.78125 7.863281 -21.625 7.53125 -21.3125 C 7.207031 -21.007812 7.023438 -20.632812 6.984375 -20.1875 C 6.941406 -19.738281 6.921875 -18.957031 6.921875 -17.84375 L 6.921875 -3.875 C 6.921875 -2.738281 6.890625 -1.882812 6.828125 -1.3125 C 7.585938 -1.269531 8.753906 -1.25 10.328125 -1.25 Z M 10.328125 -1.25 "/></g></g><g style="fill:#62e1e9;fill-opacity:1;"><g transform="translate(229.420336, 241.04811)"><path style="stroke:none" d="M 1.796875 -1.078125 C 2.566406 -1.097656 3.113281 -1.269531 3.4375 -1.59375 C 3.769531 -1.925781 3.957031 -2.316406 4 -2.765625 C 4.039062 -3.210938 4.0625 -3.992188 4.0625 -5.109375 L 4.0625 -19.28125 C 4.0625 -20.195312 4.097656 -20.984375 4.171875 -21.640625 L 1.796875 -21.515625 L 1.796875 -22.953125 L 17.578125 -22.953125 L 17.75 -17.21875 L 16.65625 -17.21875 C 16.65625 -19.007812 16.265625 -20.234375 15.484375 -20.890625 C 14.710938 -21.546875 13.628906 -21.851562 12.234375 -21.8125 L 9.40625 -21.75 C 8.625 -21.726562 8.054688 -21.578125 7.703125 -21.296875 C 7.359375 -21.023438 7.140625 -20.644531 7.046875 -20.15625 C 6.960938 -19.664062 6.921875 -18.894531 6.921875 -17.84375 L 6.921875 -12.59375 L 13.09375 -12.5625 L 12.859375 -15.375 L 14.296875 -15.375 L 14.296875 -8.5 L 13.21875 -8.5 C 13.21875 -9.300781 13.117188 -9.914062 12.921875 -10.34375 C 12.722656 -10.769531 12.421875 -11.050781 12.015625 -11.1875 C 11.609375 -11.332031 11.046875 -11.40625 10.328125 -11.40625 L 9.3125 -11.375 L 6.921875 -11.28125 L 6.921875 -3.765625 C 6.921875 -2.628906 6.890625 -1.78125 6.828125 -1.21875 L 13.09375 -1.3125 C 14.613281 -1.332031 15.78125 -1.71875 16.59375 -2.46875 C 17.40625 -3.226562 17.8125 -4.535156 17.8125 -6.390625 L 18.921875 -6.390625 L 18.734375 0 L 1.796875 0 Z M 1.796875 -1.078125 "/></g></g><g style="fill:#62e1e9;fill-opacity:1;"><g transform="translate(251.258454, 241.04811)"><path style="stroke:none" d="M 9.484375 0.53125 C 8.453125 0.53125 7.414062 0.382812 6.375 0.09375 C 5.34375 -0.1875 4.429688 -0.597656 3.640625 -1.140625 L 3.796875 0.265625 L 2.09375 0.265625 L 1.90625 -6.71875 L 3.1875 -6.71875 C 3.289062 -4.84375 3.929688 -3.394531 5.109375 -2.375 C 6.296875 -1.363281 7.796875 -0.859375 9.609375 -0.859375 C 10.941406 -0.859375 12.0625 -1.222656 12.96875 -1.953125 C 13.875 -2.679688 14.328125 -3.679688 14.328125 -4.953125 C 14.328125 -5.890625 14.070312 -6.691406 13.5625 -7.359375 C 13.050781 -8.023438 12.414062 -8.582031 11.65625 -9.03125 C 10.90625 -9.476562 9.882812 -10 8.59375 -10.59375 C 7.125 -11.289062 5.957031 -11.898438 5.09375 -12.421875 C 4.226562 -12.953125 3.488281 -13.648438 2.875 -14.515625 C 2.269531 -15.378906 1.96875 -16.441406 1.96875 -17.703125 C 1.96875 -18.578125 2.171875 -19.453125 2.578125 -20.328125 C 2.984375 -21.203125 3.679688 -21.945312 4.671875 -22.5625 C 5.671875 -23.175781 6.988281 -23.484375 8.625 -23.484375 C 9.601562 -23.484375 10.59375 -23.359375 11.59375 -23.109375 C 12.59375 -22.859375 13.503906 -22.425781 14.328125 -21.8125 L 14.203125 -23.21875 L 15.875 -23.21875 L 15.875 -16 L 14.6875 -16 C 14.582031 -17.726562 14.03125 -19.1875 13.03125 -20.375 C 12.039062 -21.570312 10.648438 -22.171875 8.859375 -22.171875 C 7.546875 -22.171875 6.515625 -21.800781 5.765625 -21.0625 C 5.023438 -20.332031 4.65625 -19.421875 4.65625 -18.328125 C 4.65625 -17.453125 4.90625 -16.695312 5.40625 -16.0625 C 5.914062 -15.4375 6.53125 -14.914062 7.25 -14.5 C 7.96875 -14.082031 8.984375 -13.566406 10.296875 -12.953125 C 11.785156 -12.273438 12.984375 -11.660156 13.890625 -11.109375 C 14.796875 -10.566406 15.566406 -9.851562 16.203125 -8.96875 C 16.835938 -8.082031 17.15625 -6.992188 17.15625 -5.703125 C 17.15625 -4.484375 16.851562 -3.398438 16.25 -2.453125 C 15.644531 -1.515625 14.765625 -0.78125 13.609375 -0.25 C 12.453125 0.269531 11.078125 0.53125 9.484375 0.53125 Z M 9.484375 0.53125 "/></g></g><g style="fill:#62e1e9;fill-opacity:1;"><g transform="translate(271.293213, 241.04811)"><path style="stroke:none" d="M 4 0.53125 C 3.476562 0.53125 3.03125 0.328125 2.65625 -0.078125 C 2.28125 -0.484375 2.09375 -0.984375 2.09375 -1.578125 C 2.09375 -2.160156 2.285156 -2.660156 2.671875 -3.078125 C 3.054688 -3.492188 3.507812 -3.703125 4.03125 -3.703125 C 4.582031 -3.703125 5.035156 -3.492188 5.390625 -3.078125 C 5.753906 -2.660156 5.9375 -2.160156 5.9375 -1.578125 C 5.9375 -0.984375 5.742188 -0.484375 5.359375 -0.078125 C 4.972656 0.328125 4.519531 0.53125 4 0.53125 Z M 4 0.53125 "/></g></g><g style="fill:#62e1e9;fill-opacity:1;"><g transform="translate(280.802657, 241.04811)"><path style="stroke:none" d="M 1.796875 -1.078125 C 2.566406 -1.097656 3.113281 -1.269531 3.4375 -1.59375 C 3.769531 -1.925781 3.957031 -2.316406 4 -2.765625 C 4.039062 -3.210938 4.0625 -3.992188 4.0625 -5.109375 L 4.0625 -19.28125 C 4.0625 -20.195312 4.097656 -20.984375 4.171875 -21.640625 L 1.796875 -21.515625 L 1.796875 -22.953125 L 9.546875 -22.984375 C 13.648438 -23.003906 16.90625 -22.039062 19.3125 -20.09375 C 21.71875 -18.15625 22.921875 -15.273438 22.921875 -11.453125 C 22.921875 -9.390625 22.4375 -7.484375 21.46875 -5.734375 C 20.507812 -3.984375 19.085938 -2.585938 17.203125 -1.546875 C 15.328125 -0.515625 13.066406 0 10.421875 0 L 1.796875 0 Z M 10.328125 -1.25 C 12.171875 -1.25 13.800781 -1.695312 15.21875 -2.59375 C 16.632812 -3.488281 17.734375 -4.722656 18.515625 -6.296875 C 19.304688 -7.867188 19.703125 -9.628906 19.703125 -11.578125 C 19.703125 -14.765625 18.828125 -17.257812 17.078125 -19.0625 C 15.335938 -20.875 12.707031 -21.78125 9.1875 -21.78125 C 8.414062 -21.78125 7.863281 -21.625 7.53125 -21.3125 C 7.207031 -21.007812 7.023438 -20.632812 6.984375 -20.1875 C 6.941406 -19.738281 6.921875 -18.957031 6.921875 -17.84375 L 6.921875 -3.875 C 6.921875 -2.738281 6.890625 -1.882812 6.828125 -1.3125 C 7.585938 -1.269531 8.753906 -1.25 10.328125 -1.25 Z M 10.328125 -1.25 "/></g></g><g style="fill:#62e1e9;fill-opacity:1;"><g transform="translate(306.673856, 241.04811)"><path style="stroke:none" d="M 1.796875 -1.078125 C 2.566406 -1.097656 3.113281 -1.269531 3.4375 -1.59375 C 3.769531 -1.925781 3.957031 -2.316406 4 -2.765625 C 4.039062 -3.210938 4.0625 -3.992188 4.0625 -5.109375 L 4.0625 -19.28125 C 4.0625 -20.195312 4.097656 -20.984375 4.171875 -21.640625 L 1.796875 -21.515625 L 1.796875 -22.953125 L 17.578125 -22.953125 L 17.75 -17.21875 L 16.65625 -17.21875 C 16.65625 -19.007812 16.265625 -20.234375 15.484375 -20.890625 C 14.710938 -21.546875 13.628906 -21.851562 12.234375 -21.8125 L 9.40625 -21.75 C 8.625 -21.726562 8.054688 -21.578125 7.703125 -21.296875 C 7.359375 -21.023438 7.140625 -20.644531 7.046875 -20.15625 C 6.960938 -19.664062 6.921875 -18.894531 6.921875 -17.84375 L 6.921875 -12.59375 L 13.09375 -12.5625 L 12.859375 -15.375 L 14.296875 -15.375 L 14.296875 -8.5 L 13.21875 -8.5 C 13.21875 -9.300781 13.117188 -9.914062 12.921875 -10.34375 C 12.722656 -10.769531 12.421875 -11.050781 12.015625 -11.1875 C 11.609375 -11.332031 11.046875 -11.40625 10.328125 -11.40625 L 9.3125 -11.375 L 6.921875 -11.28125 L 6.921875 -3.765625 C 6.921875 -2.628906 6.890625 -1.78125 6.828125 -1.21875 L 13.09375 -1.3125 C 14.613281 -1.332031 15.78125 -1.71875 16.59375 -2.46875 C 17.40625 -3.226562 17.8125 -4.535156 17.8125 -6.390625 L 18.921875 -6.390625 L 18.734375 0 L 1.796875 0 Z M 1.796875 -1.078125 "/></g></g><g style="fill:#62e1e9;fill-opacity:1;"><g transform="translate(328.511974, 241.04811)"><path style="stroke:none" d="M 3.109375 -17.125 C 2.328125 -18.976562 1.859375 -20.460938 1.703125 -21.578125 L -0.125 -21.515625 L -0.125 -22.953125 L 7.484375 -22.953125 L 7.484375 -21.875 L 7.4375 -21.84375 C 6.71875 -21.800781 6.1875 -21.640625 5.84375 -21.359375 C 5.507812 -21.085938 5.34375 -20.691406 5.34375 -20.171875 C 5.34375 -19.671875 5.5 -19.046875 5.8125 -18.296875 L 6.65625 -16.203125 C 6.875 -15.648438 7.207031 -14.816406 7.65625 -13.703125 C 8.101562 -12.585938 8.523438 -11.570312 8.921875 -10.65625 L 9.78125 -8.65625 C 10.625 -6.707031 11.222656 -5.265625 11.578125 -4.328125 L 11.640625 -4.328125 L 12.859375 -7.84375 L 13.28125 -9.015625 L 16.171875 -17.125 L 16.921875 -19.21875 C 17.335938 -20.394531 17.65625 -21.203125 17.875 -21.640625 L 15.34375 -21.515625 L 15.34375 -22.953125 L 22 -22.953125 L 22 -21.875 C 21.039062 -21.832031 20.300781 -21.582031 19.78125 -21.125 C 19.269531 -20.664062 18.8125 -19.84375 18.40625 -18.65625 L 11.484375 0.328125 L 10.5625 0.328125 Z M 3.109375 -17.125 "/></g></g></g></svg>