<svg xmlns="http://www.w3.org/2000/svg" xmlns:xlink="http://www.w3.org/1999/xlink" width="500" zoomAndPan="magnify" viewBox="0 0 375 374.999991" height="500" preserveAspectRatio="xMidYMid meet" version="1.2"><defs><clipPath id="1c63a2dded"><path d="M 107.613281 133 L 188 133 L 188 203.980469 L 107.613281 203.980469 Z M 107.613281 133 "/></clipPath><clipPath id="5a8389901e"><path d="M 187 96.730469 L 267.363281 96.730469 L 267.363281 168 L 187 168 Z M 187 96.730469 "/></clipPath></defs><g id="b2ec46541f"><g clip-rule="nonzero" clip-path="url(#1c63a2dded)"><path style=" stroke:none;fill-rule:nonzero;fill:#0097b2;fill-opacity:1;" d="M 161.316406 183.4375 L 161.316406 193.144531 L 117.351562 172.722656 L 117.351562 164.84375 L 161.316406 144.417969 L 161.316406 154.128906 L 128.066406 168.691406 L 128.066406 168.875 Z M 187.425781 133.628906 L 113.902344 133.628906 C 110.433594 133.628906 107.617188 136.445312 107.617188 139.917969 L 107.617188 197.648438 C 107.617188 201.121094 110.433594 203.933594 113.902344 203.933594 L 167.019531 203.933594 L 187.425781 133.628906 "/></g><g clip-rule="nonzero" clip-path="url(#5a8389901e)"><path style=" stroke:none;fill-rule:nonzero;fill:#62e1e9;fill-opacity:1;" d="M 257.382812 136.128906 L 213.421875 156.277344 L 213.421875 146.566406 L 247.402344 132.007812 L 247.402344 131.824219 L 213.421875 117.257812 L 213.421875 107.550781 L 257.382812 127.699219 Z M 207.839844 96.761719 L 187.425781 167.066406 L 260.832031 167.066406 C 264.304688 167.066406 267.117188 164.253906 267.117188 160.78125 L 267.117188 103.046875 C 267.117188 99.578125 264.304688 96.761719 260.832031 96.761719 L 207.839844 96.761719 "/></g><g style="fill:#62e1e9;fill-opacity:1;"><g transform="translate(19.002917, 246.864769)"><path style="stroke:none" d="M 17.46875 0 L 15.953125 -4.625 L 6.765625 -4.625 L 5.25 0 L -0.53125 0 L 8.328125 -24.59375 L 14.390625 -24.59375 L 23.25 0 Z M 8.203125 -9.140625 L 14.515625 -9.140625 L 11.359375 -18.90625 Z M 8.203125 -9.140625 "/></g></g><g style="fill:#62e1e9;fill-opacity:1;"><g transform="translate(43.152639, 246.864769)"><path style="stroke:none" d="M 7.828125 -4.796875 L 15.984375 -4.796875 L 15.984375 0 L 2.421875 0 L 2.421875 -24.59375 L 7.828125 -24.59375 Z M 7.828125 -4.796875 "/></g></g><g style="fill:#62e1e9;fill-opacity:1;"><g transform="translate(60.66259, 246.864769)"><path style="stroke:none" d="M 22.09375 -24.59375 L 13.53125 -11.609375 L 13.53125 0 L 8.125 0 L 8.125 -11.5625 L -0.53125 -24.59375 L 5.578125 -24.59375 L 10.828125 -16.28125 L 16.078125 -24.59375 Z M 22.09375 -24.59375 "/></g></g><g style="fill:#62e1e9;fill-opacity:1;"><g transform="translate(83.70569, 246.864769)"><path style="stroke:none" d="M 10 0.328125 C 7.84375 0.328125 5.941406 -0.203125 4.296875 -1.265625 C 2.660156 -2.335938 1.445312 -3.640625 0.65625 -5.171875 L 5.125 -7.953125 C 5.59375 -6.992188 6.25 -6.21875 7.09375 -5.625 C 7.9375 -5.039062 8.921875 -4.75 10.046875 -4.75 C 11.003906 -4.75 11.75 -4.953125 12.28125 -5.359375 C 12.8125 -5.773438 13.078125 -6.328125 13.078125 -7.015625 C 13.078125 -7.722656 12.800781 -8.296875 12.25 -8.734375 C 11.707031 -9.171875 11.003906 -9.539062 10.140625 -9.84375 C 9.285156 -10.144531 8.367188 -10.460938 7.390625 -10.796875 C 6.421875 -11.140625 5.503906 -11.582031 4.640625 -12.125 C 3.785156 -12.675781 3.082031 -13.390625 2.53125 -14.265625 C 1.988281 -15.140625 1.71875 -16.273438 1.71875 -17.671875 C 1.71875 -19.304688 2.097656 -20.65625 2.859375 -21.71875 C 3.628906 -22.789062 4.625 -23.59375 5.84375 -24.125 C 7.0625 -24.65625 8.3125 -24.921875 9.59375 -24.921875 C 11.125 -24.921875 12.546875 -24.597656 13.859375 -23.953125 C 15.171875 -23.316406 16.273438 -22.476562 17.171875 -21.4375 L 13.5625 -18 C 12.96875 -18.675781 12.328125 -19.195312 11.640625 -19.5625 C 10.960938 -19.9375 10.265625 -20.125 9.546875 -20.125 C 8.890625 -20.125 8.328125 -19.957031 7.859375 -19.625 C 7.398438 -19.300781 7.171875 -18.785156 7.171875 -18.078125 C 7.171875 -17.367188 7.441406 -16.804688 7.984375 -16.390625 C 8.535156 -15.984375 9.238281 -15.628906 10.09375 -15.328125 C 10.957031 -15.023438 11.867188 -14.695312 12.828125 -14.34375 C 13.785156 -13.988281 14.691406 -13.523438 15.546875 -12.953125 C 16.410156 -12.378906 17.113281 -11.617188 17.65625 -10.671875 C 18.207031 -9.734375 18.484375 -8.5 18.484375 -6.96875 C 18.484375 -5.4375 18.09375 -4.125 17.3125 -3.03125 C 16.539062 -1.9375 15.507812 -1.101562 14.21875 -0.53125 C 12.9375 0.0390625 11.53125 0.328125 10 0.328125 Z M 10 0.328125 "/></g></g><g style="fill:#62e1e9;fill-opacity:1;"><g transform="translate(104.576508, 246.864769)"><path style="stroke:none" d="M 10 0.328125 C 7.84375 0.328125 5.941406 -0.203125 4.296875 -1.265625 C 2.660156 -2.335938 1.445312 -3.640625 0.65625 -5.171875 L 5.125 -7.953125 C 5.59375 -6.992188 6.25 -6.21875 7.09375 -5.625 C 7.9375 -5.039062 8.921875 -4.75 10.046875 -4.75 C 11.003906 -4.75 11.75 -4.953125 12.28125 -5.359375 C 12.8125 -5.773438 13.078125 -6.328125 13.078125 -7.015625 C 13.078125 -7.722656 12.800781 -8.296875 12.25 -8.734375 C 11.707031 -9.171875 11.003906 -9.539062 10.140625 -9.84375 C 9.285156 -10.144531 8.367188 -10.460938 7.390625 -10.796875 C 6.421875 -11.140625 5.503906 -11.582031 4.640625 -12.125 C 3.785156 -12.675781 3.082031 -13.390625 2.53125 -14.265625 C 1.988281 -15.140625 1.71875 -16.273438 1.71875 -17.671875 C 1.71875 -19.304688 2.097656 -20.65625 2.859375 -21.71875 C 3.628906 -22.789062 4.625 -23.59375 5.84375 -24.125 C 7.0625 -24.65625 8.3125 -24.921875 9.59375 -24.921875 C 11.125 -24.921875 12.546875 -24.597656 13.859375 -23.953125 C 15.171875 -23.316406 16.273438 -22.476562 17.171875 -21.4375 L 13.5625 -18 C 12.96875 -18.675781 12.328125 -19.195312 11.640625 -19.5625 C 10.960938 -19.9375 10.265625 -20.125 9.546875 -20.125 C 8.890625 -20.125 8.328125 -19.957031 7.859375 -19.625 C 7.398438 -19.300781 7.171875 -18.785156 7.171875 -18.078125 C 7.171875 -17.367188 7.441406 -16.804688 7.984375 -16.390625 C 8.535156 -15.984375 9.238281 -15.628906 10.09375 -15.328125 C 10.957031 -15.023438 11.867188 -14.695312 12.828125 -14.34375 C 13.785156 -13.988281 14.691406 -13.523438 15.546875 -12.953125 C 16.410156 -12.378906 17.113281 -11.617188 17.65625 -10.671875 C 18.207031 -9.734375 18.484375 -8.5 18.484375 -6.96875 C 18.484375 -5.4375 18.09375 -4.125 17.3125 -3.03125 C 16.539062 -1.9375 15.507812 -1.101562 14.21875 -0.53125 C 12.9375 0.0390625 11.53125 0.328125 10 0.328125 Z M 10 0.328125 "/></g></g><g style="fill:#62e1e9;fill-opacity:1;"><g transform="translate(125.447326, 246.864769)"><path style="stroke:none" d="M 17.46875 0 L 15.953125 -4.625 L 6.765625 -4.625 L 5.25 0 L -0.53125 0 L 8.328125 -24.59375 L 14.390625 -24.59375 L 23.25 0 Z M 8.203125 -9.140625 L 14.515625 -9.140625 L 11.359375 -18.90625 Z M 8.203125 -9.140625 "/></g></g><g style="fill:#62e1e9;fill-opacity:1;"><g transform="translate(149.597048, 246.864769)"><path style="stroke:none" d="M 14.140625 0.328125 C 12.390625 0.328125 10.753906 0 9.234375 -0.65625 C 7.722656 -1.3125 6.382812 -2.21875 5.21875 -3.375 C 4.0625 -4.539062 3.15625 -5.878906 2.5 -7.390625 C 1.84375 -8.910156 1.515625 -10.546875 1.515625 -12.296875 C 1.515625 -14.046875 1.84375 -15.675781 2.5 -17.1875 C 3.15625 -18.707031 4.0625 -20.046875 5.21875 -21.203125 C 6.382812 -22.367188 7.722656 -23.28125 9.234375 -23.9375 C 10.753906 -24.59375 12.390625 -24.921875 14.140625 -24.921875 C 16.578125 -24.921875 18.789062 -24.296875 20.78125 -23.046875 C 22.78125 -21.804688 24.296875 -20.175781 25.328125 -18.15625 L 20.65625 -15.75 C 20.0625 -16.914062 19.1875 -17.851562 18.03125 -18.5625 C 16.882812 -19.28125 15.585938 -19.640625 14.140625 -19.640625 C 12.773438 -19.640625 11.535156 -19.316406 10.421875 -18.671875 C 9.316406 -18.023438 8.441406 -17.148438 7.796875 -16.046875 C 7.160156 -14.941406 6.84375 -13.691406 6.84375 -12.296875 C 6.84375 -10.898438 7.160156 -9.648438 7.796875 -8.546875 C 8.441406 -7.441406 9.316406 -6.566406 10.421875 -5.921875 C 11.535156 -5.273438 12.773438 -4.953125 14.140625 -4.953125 C 15.585938 -4.953125 16.882812 -5.304688 18.03125 -6.015625 C 19.1875 -6.734375 20.0625 -7.679688 20.65625 -8.859375 L 25.328125 -6.4375 C 24.296875 -4.4375 22.78125 -2.804688 20.78125 -1.546875 C 18.789062 -0.296875 16.578125 0.328125 14.140625 0.328125 Z M 14.140625 0.328125 "/></g></g><g style="fill:#62e1e9;fill-opacity:1;"><g transform="translate(177.435543, 246.864769)"><path style="stroke:none" d="M 14.140625 0.328125 C 12.390625 0.328125 10.753906 0 9.234375 -0.65625 C 7.722656 -1.3125 6.382812 -2.21875 5.21875 -3.375 C 4.0625 -4.539062 3.15625 -5.878906 2.5 -7.390625 C 1.84375 -8.910156 1.515625 -10.546875 1.515625 -12.296875 C 1.515625 -14.046875 1.84375 -15.675781 2.5 -17.1875 C 3.15625 -18.707031 4.0625 -20.046875 5.21875 -21.203125 C 6.382812 -22.367188 7.722656 -23.28125 9.234375 -23.9375 C 10.753906 -24.59375 12.390625 -24.921875 14.140625 -24.921875 C 15.890625 -24.921875 17.53125 -24.59375 19.0625 -23.9375 C 20.59375 -23.28125 21.929688 -22.367188 23.078125 -21.203125 C 24.222656 -20.046875 25.125 -18.707031 25.78125 -17.1875 C 26.4375 -15.675781 26.765625 -14.046875 26.765625 -12.296875 C 26.765625 -10.546875 26.4375 -8.910156 25.78125 -7.390625 C 25.125 -5.878906 24.222656 -4.539062 23.078125 -3.375 C 21.929688 -2.21875 20.59375 -1.3125 19.0625 -0.65625 C 17.53125 0 15.890625 0.328125 14.140625 0.328125 Z M 14.140625 -4.953125 C 15.535156 -4.953125 16.785156 -5.273438 17.890625 -5.921875 C 19.003906 -6.566406 19.878906 -7.441406 20.515625 -8.546875 C 21.160156 -9.648438 21.484375 -10.898438 21.484375 -12.296875 C 21.484375 -13.691406 21.160156 -14.941406 20.515625 -16.046875 C 19.878906 -17.148438 19.003906 -18.023438 17.890625 -18.671875 C 16.785156 -19.316406 15.535156 -19.640625 14.140625 -19.640625 C 12.773438 -19.640625 11.535156 -19.316406 10.421875 -18.671875 C 9.316406 -18.023438 8.441406 -17.148438 7.796875 -16.046875 C 7.160156 -14.941406 6.84375 -13.691406 6.84375 -12.296875 C 6.84375 -10.898438 7.160156 -9.648438 7.796875 -8.546875 C 8.441406 -7.441406 9.316406 -6.566406 10.421875 -5.921875 C 11.535156 -5.273438 12.773438 -4.953125 14.140625 -4.953125 Z M 14.140625 -4.953125 "/></g></g><g style="fill:#62e1e9;fill-opacity:1;"><g transform="translate(207.200387, 246.864769)"><path style="stroke:none" d="M 2.421875 0 L 2.421875 -24.59375 L 10.53125 -24.59375 C 12.226562 -24.59375 13.820312 -24.269531 15.3125 -23.625 C 16.800781 -22.988281 18.101562 -22.109375 19.21875 -20.984375 C 20.34375 -19.867188 21.222656 -18.566406 21.859375 -17.078125 C 22.503906 -15.585938 22.828125 -13.992188 22.828125 -12.296875 C 22.828125 -10.597656 22.503906 -9.003906 21.859375 -7.515625 C 21.222656 -6.023438 20.34375 -4.71875 19.21875 -3.59375 C 18.101562 -2.476562 16.800781 -1.597656 15.3125 -0.953125 C 13.820312 -0.316406 12.226562 0 10.53125 0 Z M 7.828125 -4.796875 L 10.5 -4.796875 C 11.8125 -4.796875 12.984375 -5.125 14.015625 -5.78125 C 15.054688 -6.4375 15.882812 -7.332031 16.5 -8.46875 C 17.113281 -9.601562 17.421875 -10.878906 17.421875 -12.296875 C 17.421875 -13.722656 17.113281 -15 16.5 -16.125 C 15.882812 -17.257812 15.054688 -18.15625 14.015625 -18.8125 C 12.984375 -19.46875 11.8125 -19.796875 10.5 -19.796875 L 7.828125 -19.796875 Z M 7.828125 -4.796875 "/></g></g><g style="fill:#62e1e9;fill-opacity:1;"><g transform="translate(232.989566, 246.864769)"><path style="stroke:none" d="M 17.421875 -19.84375 L 8.03125 -19.84375 L 8.03125 -14.671875 L 16.078125 -14.671875 L 16.078125 -9.921875 L 8.03125 -9.921875 L 8.03125 -4.75 L 17.421875 -4.75 L 17.421875 0 L 2.625 0 L 2.625 -24.59375 L 17.421875 -24.59375 Z M 17.421875 -19.84375 "/></g></g><g style="fill:#62e1e9;fill-opacity:1;"><g transform="translate(253.532488, 246.864769)"><path style="stroke:none" d="M 10 0.328125 C 7.84375 0.328125 5.941406 -0.203125 4.296875 -1.265625 C 2.660156 -2.335938 1.445312 -3.640625 0.65625 -5.171875 L 5.125 -7.953125 C 5.59375 -6.992188 6.25 -6.21875 7.09375 -5.625 C 7.9375 -5.039062 8.921875 -4.75 10.046875 -4.75 C 11.003906 -4.75 11.75 -4.953125 12.28125 -5.359375 C 12.8125 -5.773438 13.078125 -6.328125 13.078125 -7.015625 C 13.078125 -7.722656 12.800781 -8.296875 12.25 -8.734375 C 11.707031 -9.171875 11.003906 -9.539062 10.140625 -9.84375 C 9.285156 -10.144531 8.367188 -10.460938 7.390625 -10.796875 C 6.421875 -11.140625 5.503906 -11.582031 4.640625 -12.125 C 3.785156 -12.675781 3.082031 -13.390625 2.53125 -14.265625 C 1.988281 -15.140625 1.71875 -16.273438 1.71875 -17.671875 C 1.71875 -19.304688 2.097656 -20.65625 2.859375 -21.71875 C 3.628906 -22.789062 4.625 -23.59375 5.84375 -24.125 C 7.0625 -24.65625 8.3125 -24.921875 9.59375 -24.921875 C 11.125 -24.921875 12.546875 -24.597656 13.859375 -23.953125 C 15.171875 -23.316406 16.273438 -22.476562 17.171875 -21.4375 L 13.5625 -18 C 12.96875 -18.675781 12.328125 -19.195312 11.640625 -19.5625 C 10.960938 -19.9375 10.265625 -20.125 9.546875 -20.125 C 8.890625 -20.125 8.328125 -19.957031 7.859375 -19.625 C 7.398438 -19.300781 7.171875 -18.785156 7.171875 -18.078125 C 7.171875 -17.367188 7.441406 -16.804688 7.984375 -16.390625 C 8.535156 -15.984375 9.238281 -15.628906 10.09375 -15.328125 C 10.957031 -15.023438 11.867188 -14.695312 12.828125 -14.34375 C 13.785156 -13.988281 14.691406 -13.523438 15.546875 -12.953125 C 16.410156 -12.378906 17.113281 -11.617188 17.65625 -10.671875 C 18.207031 -9.734375 18.484375 -8.5 18.484375 -6.96875 C 18.484375 -5.4375 18.09375 -4.125 17.3125 -3.03125 C 16.539062 -1.9375 15.507812 -1.101562 14.21875 -0.53125 C 12.9375 0.0390625 11.53125 0.328125 10 0.328125 Z M 10 0.328125 "/></g></g><g style="fill:#62e1e9;fill-opacity:1;"><g transform="translate(274.403306, 246.864769)"><path style="stroke:none" d="M 5.53125 0.328125 C 4.738281 0.328125 4.046875 0.0351562 3.453125 -0.546875 C 2.867188 -1.140625 2.578125 -1.847656 2.578125 -2.671875 C 2.578125 -3.484375 2.867188 -4.179688 3.453125 -4.765625 C 4.046875 -5.359375 4.738281 -5.65625 5.53125 -5.65625 C 6.351562 -5.65625 7.0625 -5.359375 7.65625 -4.765625 C 8.257812 -4.179688 8.5625 -3.484375 8.5625 -2.671875 C 8.5625 -1.847656 8.257812 -1.140625 7.65625 -0.546875 C 7.0625 0.0351562 6.351562 0.328125 5.53125 0.328125 Z M 5.53125 0.328125 "/></g></g><g style="fill:#62e1e9;fill-opacity:1;"><g transform="translate(286.953926, 246.864769)"><path style="stroke:none" d="M 2.421875 0 L 2.421875 -24.59375 L 10.53125 -24.59375 C 12.226562 -24.59375 13.820312 -24.269531 15.3125 -23.625 C 16.800781 -22.988281 18.101562 -22.109375 19.21875 -20.984375 C 20.34375 -19.867188 21.222656 -18.566406 21.859375 -17.078125 C 22.503906 -15.585938 22.828125 -13.992188 22.828125 -12.296875 C 22.828125 -10.597656 22.503906 -9.003906 21.859375 -7.515625 C 21.222656 -6.023438 20.34375 -4.71875 19.21875 -3.59375 C 18.101562 -2.476562 16.800781 -1.597656 15.3125 -0.953125 C 13.820312 -0.316406 12.226562 0 10.53125 0 Z M 7.828125 -4.796875 L 10.5 -4.796875 C 11.8125 -4.796875 12.984375 -5.125 14.015625 -5.78125 C 15.054688 -6.4375 15.882812 -7.332031 16.5 -8.46875 C 17.113281 -9.601562 17.421875 -10.878906 17.421875 -12.296875 C 17.421875 -13.722656 17.113281 -15 16.5 -16.125 C 15.882812 -17.257812 15.054688 -18.15625 14.015625 -18.8125 C 12.984375 -19.46875 11.8125 -19.796875 10.5 -19.796875 L 7.828125 -19.796875 Z M 7.828125 -4.796875 "/></g></g><g style="fill:#62e1e9;fill-opacity:1;"><g transform="translate(312.743117, 246.864769)"><path style="stroke:none" d="M 17.421875 -19.84375 L 8.03125 -19.84375 L 8.03125 -14.671875 L 16.078125 -14.671875 L 16.078125 -9.921875 L 8.03125 -9.921875 L 8.03125 -4.75 L 17.421875 -4.75 L 17.421875 0 L 2.625 0 L 2.625 -24.59375 L 17.421875 -24.59375 Z M 17.421875 -19.84375 "/></g></g><g style="fill:#62e1e9;fill-opacity:1;"><g transform="translate(333.286038, 246.864769)"><path style="stroke:none" d="M 17.21875 -24.59375 L 23.25 -24.59375 L 14.390625 0 L 8.328125 0 L -0.53125 -24.59375 L 5.5 -24.59375 L 11.359375 -7.015625 Z M 17.21875 -24.59375 "/></g></g></g></svg>